<svg xmlns="http://www.w3.org/2000/svg" version="1.1" xmlns:xlink="http://www.w3.org/1999/xlink" xmlns:svgjs="http://svgjs.dev/svgjs" width="1000" height="1000"><style>
    #light-icon {
      display: inline;
    }
    #dark-icon {
      display: none;
    }

    @media (prefers-color-scheme: dark) {
      #light-icon {
        display: none;
      }
      #dark-icon {
        display: inline;
      }
    }
  </style><g id="light-icon"><svg xmlns="http://www.w3.org/2000/svg" version="1.1" xmlns:xlink="http://www.w3.org/1999/xlink" xmlns:svgjs="http://svgjs.dev/svgjs" width="1000" height="1000"><g><g transform="matrix(25.75328354365182,0,0,25.75328354365182,-5.684341886080802e-14,113.31444759206795)"><svg xmlns="http://www.w3.org/2000/svg" version="1.1" xmlns:xlink="http://www.w3.org/1999/xlink" xmlns:svgjs="http://svgjs.dev/svgjs" width="38.83" height="30.03"><svg id="Vrstva_2" data-name="Vrstva 2" xmlns="http://www.w3.org/2000/svg" viewBox="0 0 38.83 30.03">
  <defs>
    <style>
      .cls-1 {
        fill: #3c3c3b;
      }

      .cls-2 {
        fill: #f03;
      }
    </style>
  </defs>
  <g id="Vrstva_1-2" data-name="Vrstva 1">
    <g>
      <g>
        <path class="cls-1" d="M2.64.4C1.18.4,0,1.58,0,3.04v24.36c0,1.46,1.18,2.64,2.64,2.64s2.64-1.18,2.64-2.64V3.04C5.28,1.58,4.1.4,2.64.4Z"></path>
        <path class="cls-1" d="M14.14,10.2h-3.6c-1.46,0-2.64,1.18-2.64,2.64s1.18,2.64,2.64,2.64h3.6c4.16,0,7.54-3.38,7.54-7.54S18.3.4,14.14.4h-3.6c-1.46,0-2.64,1.18-2.64,2.64s1.18,2.64,2.64,2.64h3.6c1.25,0,2.26,1.01,2.26,2.26s-1.01,2.26-2.26,2.26Z"></path>
        <path class="cls-1" d="M24.7,15.55c-.67-1.29-2.26-1.8-3.56-1.13-1.29.67-1.8,2.26-1.13,3.56.34.66.52,1.38.52,2.13,0,2.56-2.08,4.64-4.64,4.64h-5.35c-1.46,0-2.64,1.18-2.64,2.64s1.18,2.64,2.64,2.64h5.35c5.47,0,9.92-4.45,9.92-9.92,0-1.59-.38-3.17-1.11-4.56Z"></path>
      </g>
      <path class="cls-2" d="M36.41,29.94c-1.34,0-2.42-1.08-2.42-2.42v-15.05c0-1.34,1.08-2.42,2.42-2.42s2.42,1.08,2.42,2.42v15.05c0,1.34-1.08,2.42-2.42,2.42Z"></path>
      <path class="cls-2" d="M28.23,12.98c-.62,0-1.24-.24-1.71-.71-.95-.95-.95-2.48,0-3.43L34.65.71c.95-.95,2.48-.95,3.43,0,.95.95.95,2.48,0,3.43l-8.13,8.13c-.47.47-1.09.71-1.71.71Z"></path>
    </g>
  </g>
</svg></svg></g></g></svg></g><g id="dark-icon"><svg xmlns="http://www.w3.org/2000/svg" version="1.1" xmlns:xlink="http://www.w3.org/1999/xlink" xmlns:svgjs="http://svgjs.dev/svgjs" width="1000" height="1000"><g clip-path="url(#SvgjsClipPath1018)"><rect width="1000" height="1000" fill="#ffffff"></rect><g transform="matrix(18.027298480556272,0,0,18.027298480556272,150,229.32011331444755)"><svg xmlns="http://www.w3.org/2000/svg" version="1.1" xmlns:xlink="http://www.w3.org/1999/xlink" xmlns:svgjs="http://svgjs.dev/svgjs" width="38.83" height="30.03"><svg id="Vrstva_2" data-name="Vrstva 2" xmlns="http://www.w3.org/2000/svg" viewBox="0 0 38.83 30.03">
  <defs>
    <style>
      .cls-1 {
        fill: #3c3c3b;
      }

      .cls-2 {
        fill: #f03;
      }
    </style>
  <clipPath id="SvgjsClipPath1018"><rect width="1000" height="1000" x="0" y="0" rx="350" ry="350"></rect></clipPath></defs>
  <g id="Vrstva_1-2" data-name="Vrstva 1">
    <g>
      <g>
        <path class="cls-1" d="M2.64.4C1.18.4,0,1.58,0,3.04v24.36c0,1.46,1.18,2.64,2.64,2.64s2.64-1.18,2.64-2.64V3.04C5.28,1.58,4.1.4,2.64.4Z"></path>
        <path class="cls-1" d="M14.14,10.2h-3.6c-1.46,0-2.64,1.18-2.64,2.64s1.18,2.64,2.64,2.64h3.6c4.16,0,7.54-3.38,7.54-7.54S18.3.4,14.14.4h-3.6c-1.46,0-2.64,1.18-2.64,2.64s1.18,2.64,2.64,2.64h3.6c1.25,0,2.26,1.01,2.26,2.26s-1.01,2.26-2.26,2.26Z"></path>
        <path class="cls-1" d="M24.7,15.55c-.67-1.29-2.26-1.8-3.56-1.13-1.29.67-1.8,2.26-1.13,3.56.34.66.52,1.38.52,2.13,0,2.56-2.08,4.64-4.64,4.64h-5.35c-1.46,0-2.64,1.18-2.64,2.64s1.18,2.64,2.64,2.64h5.35c5.47,0,9.92-4.45,9.92-9.92,0-1.59-.38-3.17-1.11-4.56Z"></path>
      </g>
      <path class="cls-2" d="M36.41,29.94c-1.34,0-2.42-1.08-2.42-2.42v-15.05c0-1.34,1.08-2.42,2.42-2.42s2.42,1.08,2.42,2.42v15.05c0,1.34-1.08,2.42-2.42,2.42Z"></path>
      <path class="cls-2" d="M28.23,12.98c-.62,0-1.24-.24-1.71-.71-.95-.95-.95-2.48,0-3.43L34.65.71c.95-.95,2.48-.95,3.43,0,.95.95.95,2.48,0,3.43l-8.13,8.13c-.47.47-1.09.71-1.71.71Z"></path>
    </g>
  </g>
</svg></svg></g></g></svg></g></svg>