<svg width="28" height="28" viewBox="0 0 28 28" fill="none" xmlns="http://www.w3.org/2000/svg">
<path fill-rule="evenodd" clip-rule="evenodd" d="M1.16667 0H26.8333C27.475 0 28 0.525 28 1.16667V26.8333C28 27.475 27.475 28 26.8333 28H1.16667C0.525 28 0 27.475 0 26.8333V1.16667C0 0.525 0.525 0 1.16667 0ZM4.1416 23.8583H8.28327V10.5H4.1416V23.8583ZM6.2416 8.69197C4.89993 8.69197 3.84993 7.64197 3.84993 6.3003C3.84993 4.95864 4.89993 3.90864 6.2416 3.90864C7.58327 3.90864 8.63327 4.95864 8.63327 6.3003C8.63327 7.58364 7.58327 8.69197 6.2416 8.69197ZM19.7167 23.8582H23.8V16.5082C23.8 12.8915 23.0417 10.1498 18.8417 10.1498C16.8583 10.1498 15.4583 11.2582 14.9333 12.3082H14.875V10.4998H10.9083V23.8582H15.05V17.2665C15.05 15.5165 15.4 13.8248 17.5583 13.8248C19.7167 13.8248 19.7167 15.8082 19.7167 17.3832V23.8582Z" fill="white"/>
</svg>
