<svg width="40" height="28" viewBox="0 0 40 28" fill="none" xmlns="http://www.w3.org/2000/svg">
<mask id="path-1-outside-1_11_234" maskUnits="userSpaceOnUse" x="0" y="0" width="40" height="28" fill="black">
<rect fill="white" width="40" height="28"/>
<path d="M7.17187 11.6719H9.57812C10.349 11.6719 10.9844 11.5417 11.4844 11.2812C11.9844 11.0104 12.3542 10.6354 12.5937 10.1563C12.8437 9.66667 12.9687 9.09896 12.9687 8.45313C12.9687 7.86979 12.8542 7.35417 12.625 6.90625C12.4062 6.44792 12.0677 6.09375 11.6094 5.84375C11.151 5.58333 10.5729 5.45313 9.875 5.45313C9.32292 5.45313 8.8125 5.5625 8.34375 5.78125C7.875 6 7.5 6.30729 7.21875 6.70313C6.9375 7.09896 6.79687 7.57813 6.79687 8.14063L2.28125 8.14062C2.28125 6.89062 2.61458 5.80208 3.28125 4.875C3.95833 3.94792 4.86458 3.22396 6 2.70313C7.13542 2.18229 8.38542 1.92188 9.75 1.92188C11.2917 1.92188 12.6406 2.17188 13.7969 2.67188C14.9531 3.16146 15.8542 3.88542 16.5 4.84375C17.1458 5.80208 17.4687 6.98958 17.4687 8.40625C17.4687 9.125 17.3021 9.82292 16.9688 10.5C16.6354 11.1667 16.1562 11.7708 15.5312 12.3125C14.9167 12.8438 14.1667 13.2708 13.2812 13.5938C12.3958 13.9063 11.401 14.0625 10.2969 14.0625H7.17187V11.6719ZM7.17187 15.0938L7.17187 12.7656H10.2969C11.5365 12.7656 12.625 12.9063 13.5625 13.1875C14.5 13.4688 15.2865 13.875 15.9219 14.4063C16.5573 14.9271 17.0365 15.5469 17.3594 16.2656C17.6823 16.974 17.8437 17.7604 17.8437 18.625C17.8437 19.6875 17.6406 20.6354 17.2344 21.4688C16.8281 22.2917 16.2552 22.9896 15.5156 23.5625C14.7865 24.1354 13.9323 24.5729 12.9531 24.875C11.974 25.1667 10.9062 25.3125 9.75 25.3125C8.79167 25.3125 7.84896 25.1823 6.92187 24.9219C6.00521 24.651 5.17187 24.25 4.42187 23.7188C3.68229 23.1771 3.08854 22.5 2.64062 21.6875C2.20312 20.8646 1.98437 19.8906 1.98437 18.7656H6.5C6.5 19.349 6.64583 19.8698 6.9375 20.3281C7.22917 20.7865 7.63021 21.1458 8.14062 21.4062C8.66146 21.6667 9.23958 21.7969 9.875 21.7969C10.5937 21.7969 11.2083 21.6667 11.7187 21.4062C12.2396 21.1354 12.6354 20.7604 12.9062 20.2813C13.1875 19.7917 13.3281 19.224 13.3281 18.5781C13.3281 17.7448 13.1771 17.0781 12.875 16.5781C12.5729 16.0677 12.1406 15.6927 11.5781 15.4531C11.0156 15.2135 10.349 15.0938 9.57812 15.0938H7.17187ZM38.17 11.625V15.5625C38.17 17.2708 37.9877 18.7448 37.6231 19.9844C37.2585 21.2135 36.7325 22.224 36.045 23.0156C35.3679 23.7969 34.5606 24.375 33.6231 24.75C32.6856 25.125 31.644 25.3125 30.4981 25.3125C29.5815 25.3125 28.7273 25.1979 27.9356 24.9688C27.144 24.7292 26.4304 24.3594 25.795 23.8594C25.17 23.3594 24.6283 22.7292 24.17 21.9688C23.7221 21.1979 23.3783 20.2813 23.1388 19.2188C22.8992 18.1563 22.7794 16.9375 22.7794 15.5625V11.625C22.7794 9.91667 22.9617 8.45313 23.3263 7.23438C23.7013 6.00521 24.2273 5 24.9044 4.21875C25.5919 3.4375 26.4044 2.86458 27.3419 2.5C28.2794 2.125 29.321 1.9375 30.4669 1.9375C31.3835 1.9375 32.2325 2.05729 33.0138 2.29688C33.8054 2.52604 34.519 2.88542 35.1544 3.375C35.7898 3.86458 36.3315 4.49479 36.7794 5.26563C37.2273 6.02604 37.571 6.9375 37.8106 8C38.0502 9.05208 38.17 10.2604 38.17 11.625ZM33.6544 16.1563V11.0156C33.6544 10.1927 33.6075 9.47396 33.5138 8.85938C33.4304 8.24479 33.3002 7.72396 33.1231 7.29688C32.946 6.85938 32.7273 6.50521 32.4669 6.23438C32.2065 5.96354 31.9096 5.76563 31.5763 5.64063C31.2429 5.51563 30.8731 5.45313 30.4669 5.45313C29.9565 5.45313 29.5033 5.55208 29.1075 5.75C28.7221 5.94792 28.394 6.26563 28.1231 6.70313C27.8523 7.13021 27.644 7.70313 27.4981 8.42188C27.3627 9.13021 27.295 9.99479 27.295 11.0156V16.1563C27.295 16.9792 27.3367 17.7031 27.42 18.3281C27.5138 18.9531 27.6492 19.4896 27.8263 19.9375C28.0138 20.375 28.2325 20.7344 28.4825 21.0156C28.7429 21.2865 29.0398 21.4844 29.3731 21.6094C29.7169 21.7344 30.0919 21.7969 30.4981 21.7969C30.9981 21.7969 31.4408 21.6979 31.8263 21.5C32.2221 21.2917 32.5554 20.9688 32.8263 20.5313C33.1075 20.0833 33.3158 19.5 33.4513 18.7813C33.5867 18.0625 33.6544 17.1875 33.6544 16.1563Z"/>
</mask>
<path d="M7.17187 11.6719V9.95801L5.45801 9.95801V11.6719H7.17187ZM11.4844 11.2812L12.2761 12.8013L12.2884 12.7949L12.3007 12.7882L11.4844 11.2812ZM12.5937 10.1563L11.0674 9.37682L11.0641 9.38329L11.0608 9.38979L12.5937 10.1563ZM12.625 6.90625L11.0783 7.64446L11.0885 7.66581L11.0992 7.68688L12.625 6.90625ZM11.6094 5.84375L10.7627 7.33388L10.7756 7.34123L10.7887 7.34835L11.6094 5.84375ZM6.79687 8.14063L6.79687 9.85449H8.51074L8.51074 8.14063H6.79687ZM2.28125 8.14062H0.567383L0.567383 9.85449H2.28125L2.28125 8.14062ZM3.28125 4.875L1.89717 3.86415L1.8898 3.8744L3.28125 4.875ZM13.7969 2.67188L13.1166 4.24501L13.1286 4.25009L13.7969 2.67188ZM16.5 4.84375L17.9213 3.88595L16.5 4.84375ZM16.9688 10.5L18.5017 11.2665L18.5064 11.257L16.9688 10.5ZM15.5312 12.3125L16.652 13.6091L16.6537 13.6077L15.5312 12.3125ZM13.2812 13.5938L13.8517 15.2099L13.8601 15.2069L13.8685 15.2039L13.2812 13.5938ZM7.17187 14.0625H5.45801L5.45801 15.7764H7.17187L7.17187 14.0625ZM7.17187 15.0938H5.45801V16.8076H7.17187V15.0938ZM7.17187 12.7656V11.0518H5.45801V12.7656H7.17187ZM15.9219 14.4063L14.8226 15.7211L14.829 15.7265L14.8354 15.7317L15.9219 14.4063ZM17.3594 16.2656L15.796 16.968L15.7999 16.9766L17.3594 16.2656ZM17.2344 21.4688L18.7712 22.2274L18.7749 22.2198L17.2344 21.4688ZM15.5156 23.5625L14.466 22.2076L14.4568 22.2149L15.5156 23.5625ZM12.9531 24.875L13.4424 26.5175L13.4504 26.5152L13.4584 26.5127L12.9531 24.875ZM6.92187 24.9219L6.43626 26.5655L6.4473 26.5688L6.45839 26.5719L6.92187 24.9219ZM4.42187 23.7188L3.4092 25.1014L3.42015 25.1095L3.43123 25.1173L4.42187 23.7188ZM2.64062 21.6875L1.12733 22.492L1.13344 22.5035L1.13972 22.5149L2.64062 21.6875ZM1.98437 18.7656L1.98437 17.0518H0.270508L0.270508 18.7656H1.98437ZM6.5 18.7656H8.21387V17.0518H6.5V18.7656ZM8.14062 21.4062L7.3617 22.9329L7.37416 22.9392L8.14062 21.4062ZM11.7187 21.4062L12.4977 22.9329L12.5094 22.9268L11.7187 21.4062ZM12.9062 20.2813L11.4201 19.4275L11.4142 19.4379L12.9062 20.2813ZM12.875 16.5781L11.4001 17.451L11.404 17.4577L11.4081 17.4644L12.875 16.5781ZM7.17187 13.3857H9.57812L9.57812 9.95801H7.17187V13.3857ZM9.57812 13.3857C10.5284 13.3857 11.4585 13.2271 12.2761 12.8013L10.6927 9.7612C10.5102 9.85623 10.1695 9.95801 9.57812 9.95801L9.57812 13.3857ZM12.3007 12.7882C13.0898 12.3608 13.7199 11.7362 14.1267 10.9227L11.0608 9.38979C10.9884 9.53461 10.879 9.66003 10.6681 9.77426L12.3007 12.7882ZM14.1201 10.9357C14.5132 10.1659 14.6826 9.32267 14.6826 8.45313H11.2549C11.2549 8.87525 11.1743 9.16742 11.0674 9.37682L14.1201 10.9357ZM14.6826 8.45313C14.6826 7.6417 14.5219 6.85102 14.1508 6.12562L11.0992 7.68688C11.1864 7.85731 11.2549 8.09788 11.2549 8.45313H14.6826ZM14.1717 6.16804C13.793 5.37459 13.1955 4.75668 12.4301 4.33915L10.7887 7.34835C10.9399 7.43082 11.0195 7.52124 11.0783 7.64446L14.1717 6.16804ZM12.456 4.35362C11.6692 3.90657 10.7767 3.73926 9.875 3.73926V7.16699C10.3691 7.16699 10.6328 7.26009 10.7627 7.33388L12.456 4.35362ZM9.875 3.73926C9.08966 3.73926 8.32974 3.89649 7.61898 4.22817L9.06852 7.33433C9.29526 7.22851 9.55618 7.16699 9.875 7.16699V3.73926ZM7.61898 4.22817C6.89955 4.5639 6.28597 5.05694 5.82164 5.71044L8.61586 7.69581C8.71403 7.55765 8.85045 7.4361 9.06852 7.33433L7.61898 4.22817ZM5.82164 5.71044C5.303 6.44038 5.08301 7.2806 5.08301 8.14062L8.51074 8.14063C8.51074 7.87565 8.572 7.75754 8.61586 7.69581L5.82164 5.71044ZM6.79687 6.42676L2.28125 6.42676L2.28125 9.85449L6.79687 9.85449L6.79687 6.42676ZM3.99512 8.14062C3.99512 7.21395 4.23562 6.48342 4.6727 5.8756L1.8898 3.8744C0.993545 5.12075 0.567383 6.5673 0.567383 8.14062H3.99512ZM4.6653 5.88582C5.15463 5.2158 5.82129 4.67068 6.71458 4.26092L5.28542 1.14533C3.90788 1.77723 2.76203 2.68003 1.8972 3.86418L4.6653 5.88582ZM6.71458 4.26092C7.60576 3.85212 8.60901 3.63574 9.75 3.63574L9.75 0.208008C8.16182 0.208008 6.66507 0.512465 5.28542 1.14533L6.71458 4.26092ZM9.75 3.63574C11.1087 3.63574 12.2175 3.85615 13.1166 4.24496L14.4771 1.09879C13.0638 0.487602 11.4746 0.208008 9.75 0.208008L9.75 3.63574ZM13.1286 4.25009C14.0066 4.62187 14.6346 5.14244 15.0787 5.80155L17.9213 3.88595C17.0738 2.62839 15.8996 1.70104 14.4651 1.09366L13.1286 4.25009ZM15.0787 5.80155C15.4946 6.41859 15.7549 7.25307 15.7549 8.40625L19.1826 8.40625C19.1826 6.7261 18.7971 5.18558 17.9213 3.88595L15.0787 5.80155ZM15.7549 8.40625C15.7549 8.84934 15.6545 9.28933 15.4311 9.74301L18.5064 11.257C18.9497 10.3565 19.1826 9.40066 19.1826 8.40625L15.7549 8.40625ZM15.4358 9.73354C15.2137 10.1777 14.8822 10.607 14.4088 11.0173L16.6537 13.6077C17.4303 12.9346 18.0571 12.1556 18.5017 11.2665L15.4358 9.73354ZM14.4105 11.0159C13.9763 11.3912 13.4148 11.7207 12.694 11.9836L13.8685 15.2039C14.9185 14.8209 15.8571 14.2963 16.652 13.6091L14.4105 11.0159ZM12.7108 11.9776C12.0377 12.2152 11.2402 12.3486 10.2969 12.3486V15.7764C11.5619 15.7764 12.754 15.5973 13.8517 15.2099L12.7108 11.9776ZM10.2969 12.3486H7.17187L7.17187 15.7764H10.2969V12.3486ZM8.88574 14.0625V11.6719H5.45801V14.0625H8.88574ZM8.88574 15.0938V12.7656H5.45801L5.45801 15.0938H8.88574ZM7.17187 14.4795H10.2969L10.2969 11.0518H7.17187L7.17187 14.4795ZM10.2969 14.4795C11.4118 14.4795 12.3282 14.6065 13.07 14.8291L14.055 11.5459C12.9218 11.206 11.6611 11.0518 10.2969 11.0518L10.2969 14.4795ZM13.07 14.8291C13.825 15.0556 14.3945 15.3633 14.8226 15.7211L17.0212 13.0914C16.1784 12.3867 15.175 11.8819 14.055 11.5459L13.07 14.8291ZM14.8354 15.7317C15.2748 16.0919 15.5864 16.5014 15.796 16.968L18.9227 15.5633C18.4865 14.5923 17.8397 13.7622 17.0083 13.0808L14.8354 15.7317ZM15.7999 16.9766C16.0103 17.4381 16.1299 17.9784 16.1299 18.625H19.5576C19.5576 17.5424 19.3543 16.5098 18.9188 15.5547L15.7999 16.9766ZM16.1299 18.625C16.1299 19.4653 15.9704 20.1503 15.6938 20.7177L18.7749 22.2198C19.3108 21.1205 19.5576 19.9097 19.5576 18.625H16.1299ZM15.6976 20.7101C15.4087 21.2952 15.0042 21.7907 14.4661 22.2076L16.5652 24.9174C17.5062 24.1885 18.2476 23.2881 18.7712 22.2274L15.6976 20.7101ZM14.4568 22.2149C13.9093 22.645 13.2473 22.9907 12.4479 23.2373L13.4584 26.5127C14.6172 26.1552 15.6636 25.6258 16.5745 24.9101L14.4568 22.2149ZM12.4639 23.2325C11.6628 23.4711 10.762 23.5986 9.75 23.5986V27.0264C11.0505 27.0264 12.2851 26.8623 13.4424 26.5175L12.4639 23.2325ZM9.75 23.5986C8.94912 23.5986 8.16233 23.4901 7.38536 23.2719L6.45839 26.5719C7.53558 26.8745 8.63421 27.0264 9.75 27.0264V23.5986ZM7.40749 23.2782C6.66419 23.0586 6.0027 22.7382 5.41252 22.3202L3.43123 25.1173C4.34105 25.7618 5.34622 26.2434 6.43626 26.5655L7.40749 23.2782ZM5.43455 22.3361C4.89866 21.9436 4.47054 21.4569 4.14153 20.8601L1.13972 22.5149C1.70654 23.5431 2.46592 24.4106 3.4092 25.1014L5.43455 22.3361ZM4.15392 20.883C3.87276 20.3541 3.69824 19.6677 3.69824 18.7656H0.270508C0.270508 20.1135 0.533489 21.375 1.12733 22.492L4.15392 20.883ZM1.98437 20.4795H6.5L6.5 17.0518H1.98437L1.98437 20.4795ZM4.78613 18.7656C4.78613 19.6498 5.01192 20.4945 5.49158 21.2483L8.38342 19.408C8.27975 19.2451 8.21387 19.0481 8.21387 18.7656H4.78613ZM5.49158 21.2483C5.95659 21.979 6.59435 22.5414 7.36172 22.9329L8.91953 19.8796C8.66606 19.7503 8.50175 19.5939 8.38342 19.408L5.49158 21.2483ZM7.37416 22.9392C8.15412 23.3292 8.99821 23.5107 9.875 23.5107L9.875 20.083C9.48095 20.083 9.16879 20.0042 8.90709 19.8733L7.37416 22.9392ZM9.875 23.5107C10.7972 23.5107 11.6925 23.3437 12.4977 22.9329L10.9398 19.8796C10.7242 19.9896 10.3903 20.083 9.875 20.083L9.875 23.5107ZM12.5094 22.9268C13.3042 22.5136 13.9531 21.9121 14.3983 21.1246L11.4142 19.4379C11.3177 19.6087 11.175 19.7573 10.9281 19.8857L12.5094 22.9268ZM14.3924 21.135C14.8432 20.3501 15.042 19.4798 15.042 18.5781L11.6143 18.5781C11.6143 18.9681 11.5318 19.2332 11.4201 19.4275L14.3924 21.135ZM15.042 18.5781C15.042 17.5586 14.8603 16.5499 14.3419 15.6919L11.4081 17.4644C11.4939 17.6064 11.6143 17.931 11.6143 18.5781L15.042 18.5781ZM14.3499 15.7052C13.8558 14.8704 13.137 14.2543 12.2497 13.8763L10.9065 17.0299C11.1442 17.1312 11.29 17.265 11.4001 17.451L14.3499 15.7052ZM12.2497 13.8763C11.4273 13.526 10.5217 13.3799 9.57812 13.3799V16.8076C10.1762 16.8076 10.604 16.9011 10.9065 17.0299L12.2497 13.8763ZM9.57812 13.3799H7.17187L7.17187 16.8076H9.57812V13.3799ZM37.6231 19.9844L39.2662 20.4717L39.2673 20.468L37.6231 19.9844ZM36.045 23.0156L34.751 21.8919L34.7499 21.8932L36.045 23.0156ZM27.9356 24.9688L27.4392 26.6091L27.4491 26.6121L27.4591 26.615L27.9356 24.9688ZM25.795 23.8594L24.7243 25.1977L24.7352 25.2063L25.795 23.8594ZM24.17 21.9688L22.6881 22.8298L22.6951 22.8417L22.7021 22.8535L24.17 21.9688ZM23.1388 19.2188L21.4669 19.5957L23.1388 19.2188ZM23.3263 7.23438L21.687 6.73425L21.6843 6.74319L23.3263 7.23438ZM24.9044 4.21875L23.6177 3.08649L23.6092 3.09629L24.9044 4.21875ZM27.3419 2.5L27.9631 4.09733L27.9707 4.09435L27.9784 4.09129L27.3419 2.5ZM33.0137 2.29688L32.5113 3.93542L32.5242 3.93939L32.5372 3.94315L33.0137 2.29688ZM36.7794 5.26563L35.2975 6.12672L35.3027 6.13547L36.7794 5.26563ZM37.8106 8L36.1387 8.377L36.1395 8.38054L37.8106 8ZM33.5137 8.85938L31.8154 9.08966L31.8173 9.10376L31.8195 9.11782L33.5137 8.85938ZM33.1231 7.29688L31.5345 7.93991L31.5372 7.94662L31.54 7.95331L33.1231 7.29688ZM29.1075 5.75L28.341 4.21707L28.3328 4.22119L28.3246 4.2254L29.1075 5.75ZM28.1231 6.70313L29.5705 7.62097L29.5755 7.61313L29.5804 7.60523L28.1231 6.70313ZM27.4981 8.42188L25.8185 8.08108L25.8166 8.09055L25.8147 8.10005L27.4981 8.42188ZM27.42 18.3281L25.7212 18.5546L25.723 18.5685L25.7251 18.5824L27.42 18.3281ZM27.8263 19.9375L26.2324 20.5676L26.2414 20.5903L26.251 20.6126L27.8263 19.9375ZM28.4825 21.0156L27.2015 22.1543L27.2238 22.1793L27.2471 22.2035L28.4825 21.0156ZM29.3731 21.6094L28.7713 23.2141L28.7794 23.2171L28.7874 23.2201L29.3731 21.6094ZM31.8263 21.5L32.6092 23.0246L32.6168 23.0207L32.6245 23.0166L31.8263 21.5ZM32.8263 20.5313L31.3748 19.6199L31.369 19.6291L32.8263 20.5313ZM36.4561 11.625V15.5625H39.8839V11.625H36.4561ZM36.4561 15.5625C36.4561 17.1565 36.2852 18.4594 35.9789 19.5008L39.2673 20.468C39.6902 19.0302 39.8839 17.3852 39.8839 15.5625H36.4561ZM35.98 19.497C35.6699 20.5427 35.2464 21.3214 34.751 21.8919L37.339 24.1394C38.2186 23.1265 38.8472 21.8844 39.2662 20.4717L35.98 19.497ZM34.7499 21.8932C34.2473 22.473 33.6641 22.8877 32.9866 23.1587L34.2596 26.3413C35.4571 25.8623 36.4885 25.1208 37.3401 24.1381L34.7499 21.8932ZM32.9866 23.1587C32.277 23.4426 31.4551 23.5986 30.4981 23.5986V27.0264C31.8328 27.0264 33.0943 26.8074 34.2596 26.3413L32.9866 23.1587ZM30.4981 23.5986C29.7248 23.5986 29.0327 23.5021 28.4122 23.3225L27.4591 26.615C28.4219 26.8937 29.4381 27.0264 30.4981 27.0264V23.5986ZM28.4321 23.3284C27.8401 23.1492 27.3185 22.8773 26.8548 22.5125L24.7352 25.2063C25.5423 25.8414 26.4479 26.3091 27.4392 26.6091L28.4321 23.3284ZM26.8656 22.5211C26.4152 22.1607 26.003 21.6898 25.6379 21.084L22.7021 22.8535C23.2537 23.7685 23.9248 24.5581 24.7244 25.1977L26.8656 22.5211ZM25.6519 21.1077C25.3084 20.5167 25.02 19.7704 24.8106 18.8418L21.4669 19.5957C21.7366 20.7921 22.1357 21.8792 22.6881 22.8298L25.6519 21.1077ZM24.8106 18.8418C24.6051 17.9303 24.4932 16.8421 24.4932 15.5625H21.0655C21.0655 17.0329 21.1932 18.3822 21.4669 19.5957L24.8106 18.8418ZM24.4932 15.5625V11.625H21.0655V15.5625H24.4932ZM24.4932 11.625C24.4932 10.0299 24.6645 8.74102 24.9682 7.72556L21.6843 6.74319C21.2589 8.16523 21.0655 9.8034 21.0655 11.625H24.4932ZM24.9655 7.73449C25.2871 6.68044 25.7126 5.903 26.1995 5.34121L23.6092 3.09629C22.7419 4.097 22.1154 5.32998 21.687 6.73426L24.9655 7.73449ZM26.191 5.35098C26.7036 4.76844 27.2904 4.35891 27.9631 4.09733L26.7207 0.902668C25.5183 1.37025 24.4801 2.10656 23.6178 3.08652L26.191 5.35098ZM27.9784 4.09129C28.688 3.80744 29.5099 3.65137 30.4669 3.65137V0.223633C29.1322 0.223633 27.8707 0.442559 26.7054 0.908714L27.9784 4.09129ZM30.4669 3.65137C31.2337 3.65137 31.9113 3.75143 32.5113 3.93542L33.5162 0.658325C32.5537 0.363149 31.5334 0.223633 30.4669 0.223633V3.65137ZM32.5372 3.94315C33.1284 4.11429 33.6477 4.3777 34.1083 4.73262L36.2004 2.01738C35.3902 1.39313 34.4824 0.93779 33.4903 0.650595L32.5372 3.94315ZM34.1083 4.73262C34.549 5.07218 34.9489 5.52666 35.2975 6.1267L38.2612 4.40455C37.7141 3.46292 37.0305 2.65699 36.2004 2.01738L34.1083 4.73262ZM35.3027 6.13547C35.6421 6.71174 35.9295 7.44896 36.1387 8.377L39.4825 7.623C39.2126 6.42604 38.8125 5.34034 38.2561 4.39578L35.3027 6.13547ZM36.1395 8.38054C36.3444 9.28004 36.4561 10.3565 36.4561 11.625H39.8839C39.8839 10.1643 39.756 8.82412 39.4817 7.61946L36.1395 8.38054ZM35.3682 16.1563V11.0156L31.9405 11.0156V16.1563L35.3682 16.1563ZM35.3682 11.0156C35.3682 10.1321 35.3182 9.3233 35.208 8.60093L31.8195 9.11782C31.8968 9.62461 31.9405 10.2533 31.9405 11.0156L35.3682 11.0156ZM35.2121 8.62909C35.1152 7.91448 34.9555 7.24138 34.7063 6.64044L31.54 7.95331C31.6449 8.20653 31.7457 8.57511 31.8154 9.08966L35.2121 8.62909ZM34.7118 6.65384C34.473 6.0638 34.1474 5.50942 33.7023 5.04648L31.2315 7.42227C31.3072 7.50099 31.4191 7.65495 31.5345 7.93991L34.7118 6.65384ZM33.7023 5.04648C33.2745 4.60159 32.7643 4.25573 32.178 4.03588L30.9745 7.24537C31.0549 7.27552 31.1384 7.3255 31.2315 7.42227L33.7023 5.04648ZM32.178 4.03588C31.6271 3.82929 31.05 3.73926 30.4669 3.73926L30.4669 7.16699C30.6963 7.16699 30.8587 7.20196 30.9745 7.24537L32.178 4.03588ZM30.4669 3.73926C29.7313 3.73926 29.0089 3.88314 28.341 4.21707L29.874 7.28293C29.9978 7.22102 30.1817 7.16699 30.4669 7.16699L30.4669 3.73926ZM28.3246 4.2254C27.6139 4.59036 27.0697 5.14868 26.6659 5.80102L29.5804 7.60523C29.7182 7.38257 29.8303 7.30547 29.8904 7.2746L28.3246 4.2254ZM26.6757 5.78528C26.2546 6.44933 25.9888 7.24168 25.8185 8.08108L29.1778 8.76267C29.2991 8.16457 29.4499 7.81109 29.5705 7.62097L26.6757 5.78528ZM25.8147 8.10005C25.6526 8.94804 25.5811 9.92741 25.5811 11.0156H29.0089C29.0089 10.0622 29.0728 9.31238 29.1815 8.7437L25.8147 8.10005ZM25.5811 11.0156V16.1563H29.0089V11.0156H25.5811ZM25.5811 16.1563C25.5811 17.0335 25.6253 17.8359 25.7212 18.5546L29.1188 18.1016C29.048 17.5703 29.0089 16.9249 29.0089 16.1563H25.5811ZM25.7251 18.5824C25.8325 19.2986 25.9953 19.9679 26.2324 20.5676L29.4201 19.3074C29.303 19.0113 29.195 18.6076 29.1149 18.0739L25.7251 18.5824ZM26.251 20.6126C26.4927 21.1767 26.8017 21.7044 27.2015 22.1543L29.7635 19.877C29.6633 19.7643 29.5348 19.5733 29.4015 19.2624L26.251 20.6126ZM27.2471 22.2035C27.6749 22.6484 28.1851 22.9943 28.7713 23.2141L29.9749 20.0046C29.8945 19.9745 29.811 19.9245 29.7179 19.8277L27.2471 22.2035ZM28.7874 23.2201C29.3385 23.4205 29.9141 23.5107 30.4981 23.5107V20.083C30.2696 20.083 30.0952 20.0483 29.9588 19.9987L28.7874 23.2201ZM30.4981 23.5107C31.2283 23.5107 31.9467 23.3648 32.6092 23.0246L31.0433 19.9754C30.935 20.031 30.7679 20.083 30.4981 20.083V23.5107ZM32.6245 23.0166C33.3294 22.6456 33.8763 22.0911 34.2835 21.4334L31.369 19.6291C31.2345 19.8464 31.1148 19.9377 31.028 19.9834L32.6245 23.0166ZM34.2777 21.4426C34.7077 20.7579 34.9745 19.953 35.1355 19.0986L31.767 18.4639C31.6572 19.047 31.5073 19.4088 31.3748 19.6199L34.2777 21.4426ZM35.1355 19.0986C35.2968 18.2424 35.3682 17.2544 35.3682 16.1563L31.9405 16.1563C31.9405 17.1206 31.8765 17.8826 31.767 18.4639L35.1355 19.0986Z" fill="#FF0033" mask="url(#path-1-outside-1_11_234)"/>
</svg>
