<svg width="38" height="38" viewBox="0 0 38 38" fill="none" xmlns="http://www.w3.org/2000/svg">
<path d="M32.9967 7.29919C32.188 6.49011 31.2278 5.8483 30.171 5.4104C29.1142 4.97251 27.9814 4.74713 26.8375 4.74713C25.6936 4.74713 24.5608 4.97251 23.504 5.4104C22.4472 5.8483 21.487 6.49011 20.6783 7.29919L19 8.97752L17.3217 7.29919C15.6882 5.66568 13.4726 4.74798 11.1625 4.74798C8.85236 4.74798 6.63684 5.66568 5.00333 7.29919C3.36982 8.9327 2.45212 11.1482 2.45212 13.4584C2.45212 15.7685 3.36982 17.984 5.00333 19.6175L19 33.6142L32.9967 19.6175C33.8057 18.8088 34.4476 17.8486 34.8854 16.7918C35.3233 15.735 35.5487 14.6023 35.5487 13.4584C35.5487 12.3144 35.3233 11.1817 34.8854 10.1249C34.4476 9.06807 33.8057 8.10789 32.9967 7.29919Z" stroke="#FF0033" stroke-width="2" stroke-linecap="round" stroke-linejoin="round"/>
</svg>
