<svg width="32" height="33" viewBox="0 0 32 33" fill="none" xmlns="http://www.w3.org/2000/svg">
<g clip-path="url(#clip0_53_110)">
<path d="M20.0666 7.16683C21.3689 7.42092 22.5658 8.05784 23.504 8.99608C24.4423 9.93431 25.0792 11.1312 25.3333 12.4335M20.0666 1.8335C22.7723 2.13408 25.2954 3.34573 27.2216 5.26951C29.1478 7.19328 30.3626 9.71484 30.6666 12.4202M29.3333 23.0602V27.0602C29.3348 27.4315 29.2587 27.7991 29.11 28.1393C28.9612 28.4795 28.743 28.7849 28.4694 29.036C28.1958 29.287 27.8727 29.4781 27.521 29.5971C27.1692 29.7161 26.7964 29.7603 26.4266 29.7268C22.3237 29.281 18.3826 27.879 14.92 25.6335C11.6984 23.5864 8.96707 20.8551 6.91995 17.6335C4.66659 14.1551 3.26428 10.1948 2.82662 6.0735C2.7933 5.70479 2.83712 5.33318 2.95529 4.98233C3.07345 4.63148 3.26338 4.30908 3.51297 4.03566C3.76257 3.76223 4.06636 3.54378 4.40501 3.39419C4.74365 3.24461 5.10974 3.16718 5.47995 3.16683H9.47995C10.127 3.16046 10.7543 3.3896 11.245 3.81154C11.7356 4.23348 12.0561 4.81943 12.1466 5.46016C12.3154 6.74025 12.6286 7.99713 13.08 9.20683C13.2593 9.68406 13.2982 10.2027 13.1918 10.7013C13.0855 11.2 12.8384 11.6576 12.48 12.0202L10.7866 13.7135C12.6847 17.0516 15.4486 19.8154 18.7866 21.7135L20.48 20.0202C20.8425 19.6617 21.3002 19.4146 21.7988 19.3083C22.2974 19.2019 22.8161 19.2408 23.2933 19.4202C24.503 19.8716 25.7599 20.1847 27.04 20.3535C27.6876 20.4449 28.2792 20.7711 28.702 21.2702C29.1248 21.7692 29.3495 22.4063 29.3333 23.0602Z" stroke="#FF0033" stroke-width="3" stroke-linecap="round" stroke-linejoin="round"/>
</g>
<defs>
<clipPath id="clip0_53_110">
<rect width="32" height="32" fill="white" transform="translate(0 0.5)"/>
</clipPath>
</defs>
</svg>
