<?xml version="1.0" encoding="UTF-8"?>
<svg id="Vrstva_2" data-name="Vrstva 2" xmlns="http://www.w3.org/2000/svg" viewBox="0 0 234.79 78.61">
  <defs>
    <style>
      .cls-1 {
        fill: #3c3c3b;
      }

      .cls-2 {
        fill: #f03;
      }
    </style>
  </defs>
  <g id="Vrstva_1-2" data-name="Vrstva 1">
    <g>
      <g>
        <path class="cls-1" d="M2.07,74.37v4.1H.69v-10.47h3.86c1.15,0,2.04.29,2.69.88.65.58.97,1.36.97,2.32,0,1.02-.32,1.8-.95,2.35-.63.55-1.54.82-2.73.82h-2.47ZM2.07,73.24h2.48c.74,0,1.3-.17,1.7-.52.39-.35.59-.85.59-1.51s-.2-1.12-.59-1.5c-.39-.37-.93-.57-1.62-.58h-2.56v4.11Z"/>
        <path class="cls-1" d="M14.49,78.47c-.08-.15-.14-.43-.19-.82-.62.64-1.36.96-2.21.96-.77,0-1.4-.22-1.89-.65-.49-.43-.74-.98-.74-1.65,0-.81.31-1.44.92-1.89.62-.45,1.48-.67,2.6-.67h1.29v-.61c0-.46-.14-.84-.42-1.11-.28-.28-.69-.41-1.23-.41-.47,0-.87.12-1.19.36s-.48.53-.48.87h-1.34c0-.39.14-.76.41-1.12.28-.36.65-.65,1.12-.86.47-.21.99-.32,1.56-.32.9,0,1.6.22,2.11.67.51.45.77,1.07.79,1.85v3.58c0,.71.09,1.28.27,1.7v.11h-1.39ZM12.29,77.45c.42,0,.81-.11,1.19-.32.37-.22.64-.5.81-.84v-1.6h-1.04c-1.63,0-2.44.48-2.44,1.43,0,.42.14.74.42.98.28.24.63.35,1.07.35Z"/>
        <path class="cls-1" d="M22.23,76.4c0-.36-.14-.64-.41-.84-.27-.2-.74-.37-1.42-.51-.67-.14-1.21-.32-1.6-.52-.4-.2-.69-.44-.88-.72-.19-.28-.28-.61-.28-.99,0-.64.27-1.18.81-1.62.54-.44,1.23-.66,2.07-.66.88,0,1.6.23,2.15.68.55.46.82,1.04.82,1.75h-1.34c0-.37-.16-.68-.46-.94s-.7-.4-1.17-.4-.86.11-1.14.32c-.27.21-.41.49-.41.83,0,.32.13.56.38.73.25.16.71.32,1.38.47s1.2.33,1.61.53c.41.21.72.45.92.74.2.29.3.64.3,1.06,0,.69-.28,1.25-.83,1.67s-1.28.63-2.16.63c-.62,0-1.17-.11-1.65-.33-.48-.22-.85-.53-1.12-.92-.27-.4-.41-.82-.41-1.28h1.33c.02.45.2.8.54,1.06.33.26.77.39,1.32.39.5,0,.91-.1,1.21-.31.3-.2.46-.47.46-.81Z"/>
        <path class="cls-1" d="M29.82,76.4c0-.36-.14-.64-.41-.84-.27-.2-.74-.37-1.42-.51-.67-.14-1.21-.32-1.6-.52-.4-.2-.69-.44-.88-.72-.19-.28-.28-.61-.28-.99,0-.64.27-1.18.81-1.62.54-.44,1.23-.66,2.07-.66.88,0,1.6.23,2.15.68.55.46.82,1.04.82,1.75h-1.34c0-.37-.16-.68-.46-.94s-.7-.4-1.17-.4-.86.11-1.14.32c-.27.21-.41.49-.41.83,0,.32.13.56.38.73.25.16.71.32,1.38.47s1.2.33,1.61.53c.41.21.72.45.92.74.2.29.3.64.3,1.06,0,.69-.28,1.25-.83,1.67s-1.28.63-2.16.63c-.62,0-1.17-.11-1.65-.33-.48-.22-.85-.53-1.12-.92-.27-.4-.41-.82-.41-1.28h1.33c.02.45.2.8.54,1.06.33.26.77.39,1.32.39.5,0,.91-.1,1.21-.31.3-.2.46-.47.46-.81Z"/>
        <path class="cls-1" d="M32.89,68.63c0-.22.07-.4.2-.55.13-.15.33-.22.58-.22s.46.07.59.22c.13.15.2.33.2.55s-.07.4-.2.54c-.13.14-.33.22-.59.22s-.45-.07-.58-.22c-.13-.14-.2-.32-.2-.54ZM34.32,78.47h-1.33v-7.78h1.33v7.78Z"/>
        <path class="cls-1" d="M36.1,74.51c0-.76.15-1.45.45-2.06s.72-1.08,1.25-1.41,1.14-.5,1.83-.5c1.06,0,1.91.37,2.57,1.1.65.73.98,1.71.98,2.92v.09c0,.76-.14,1.44-.44,2.04-.29.6-.7,1.07-1.24,1.41-.54.34-1.16.5-1.86.5-1.05,0-1.91-.37-2.56-1.1-.65-.73-.98-1.7-.98-2.91v-.09ZM37.44,74.66c0,.86.2,1.56.6,2.08.4.52.94.78,1.61.78s1.21-.26,1.61-.79.6-1.27.6-2.22c0-.85-.2-1.54-.61-2.07-.41-.53-.94-.79-1.61-.79s-1.19.26-1.59.78c-.4.52-.6,1.27-.6,2.24Z"/>
        <path class="cls-1" d="M46.1,70.69l.04.98c.59-.75,1.37-1.12,2.33-1.12,1.64,0,2.47.93,2.49,2.78v5.14h-1.33v-5.15c0-.56-.13-.98-.38-1.24s-.64-.4-1.18-.4c-.43,0-.81.11-1.13.34s-.58.53-.76.91v5.54h-1.33v-7.78h1.26Z"/>
        <path class="cls-1" d="M56.19,78.61c-1.05,0-1.91-.35-2.57-1.04s-.99-1.62-.99-2.78v-.24c0-.77.15-1.46.44-2.07.3-.61.71-1.08,1.24-1.42s1.1-.51,1.72-.51c1.01,0,1.8.33,2.36,1,.56.67.84,1.62.84,2.86v.55h-5.27c.02.77.24,1.39.67,1.86.43.47.97.71,1.64.71.47,0,.87-.1,1.19-.29.33-.19.61-.45.86-.76l.81.63c-.65,1-1.63,1.5-2.93,1.5ZM56.03,71.64c-.54,0-.99.2-1.35.59-.36.39-.59.94-.68,1.64h3.9v-.1c-.04-.68-.22-1.2-.55-1.57-.33-.37-.77-.56-1.32-.56Z"/>
        <path class="cls-1" d="M60.44,74.51c0-1.19.28-2.15.85-2.88.57-.73,1.31-1.09,2.22-1.09s1.63.31,2.16.93v-4.05h1.33v11.04h-1.22l-.06-.83c-.53.65-1.27.98-2.22.98s-1.64-.37-2.2-1.11c-.57-.74-.85-1.7-.85-2.89v-.1ZM61.77,74.66c0,.88.18,1.57.55,2.07s.87.75,1.51.75c.84,0,1.46-.38,1.85-1.13v-3.57c-.4-.73-1.01-1.1-1.83-1.1-.65,0-1.16.25-1.52.76-.36.5-.55,1.25-.55,2.23Z"/>
        <path class="cls-1" d="M77.51,78.47c-.08-.15-.14-.43-.19-.82-.62.64-1.36.96-2.21.96-.77,0-1.4-.22-1.89-.65-.49-.43-.74-.98-.74-1.65,0-.81.31-1.44.92-1.89.62-.45,1.48-.67,2.6-.67h1.29v-.61c0-.46-.14-.84-.42-1.11-.28-.28-.69-.41-1.23-.41-.47,0-.87.12-1.19.36s-.48.53-.48.87h-1.34c0-.39.14-.76.41-1.12.28-.36.65-.65,1.12-.86.47-.21.99-.32,1.56-.32.9,0,1.6.22,2.11.67.51.45.77,1.07.79,1.85v3.58c0,.71.09,1.28.27,1.7v.11h-1.39ZM75.31,77.45c.42,0,.81-.11,1.19-.32.37-.22.64-.5.81-.84v-1.6h-1.04c-1.63,0-2.44.48-2.44,1.43,0,.42.14.74.42.98.28.24.63.35,1.07.35Z"/>
        <path class="cls-1" d="M85.52,77.7c-.52.61-1.28.91-2.28.91-.83,0-1.46-.24-1.89-.72-.43-.48-.65-1.19-.66-2.14v-5.06h1.33v5.02c0,1.18.48,1.77,1.44,1.77,1.02,0,1.69-.38,2.03-1.13v-5.66h1.33v7.78h-1.26l-.03-.77Z"/>
        <path class="cls-1" d="M90.64,68.81v1.88h1.45v1.03h-1.45v4.83c0,.31.06.55.19.7.13.16.35.23.66.23.15,0,.36-.03.63-.09v1.07c-.35.09-.69.14-1.02.14-.59,0-1.04-.18-1.34-.54-.3-.36-.45-.87-.45-1.53v-4.82h-1.42v-1.03h1.42v-1.88h1.33Z"/>
        <path class="cls-1" d="M93.15,74.51c0-.76.15-1.45.45-2.06s.72-1.08,1.25-1.41,1.14-.5,1.83-.5c1.06,0,1.91.37,2.57,1.1.65.73.98,1.71.98,2.92v.09c0,.76-.14,1.44-.44,2.04-.29.6-.7,1.07-1.24,1.41-.54.34-1.16.5-1.86.5-1.05,0-1.91-.37-2.56-1.1-.65-.73-.98-1.7-.98-2.91v-.09ZM94.48,74.66c0,.86.2,1.56.6,2.08.4.52.94.78,1.61.78s1.21-.26,1.61-.79.6-1.27.6-2.22c0-.85-.2-1.54-.61-2.07-.41-.53-.94-.79-1.61-.79s-1.19.26-1.59.78c-.4.52-.6,1.27-.6,2.24Z"/>
        <path class="cls-1" d="M103.14,70.69l.03.86c.57-.67,1.34-1.01,2.31-1.01,1.09,0,1.83.42,2.22,1.25.26-.37.6-.68,1.01-.91.41-.23.9-.34,1.47-.34,1.71,0,2.57.9,2.6,2.71v5.21h-1.33v-5.13c0-.56-.13-.97-.38-1.25-.25-.28-.68-.41-1.28-.41-.49,0-.9.15-1.23.44-.33.3-.52.69-.57,1.19v5.16h-1.34v-5.1c0-1.13-.55-1.7-1.66-1.7-.87,0-1.47.37-1.79,1.11v5.68h-1.33v-7.78h1.26Z"/>
        <path class="cls-1" d="M119.6,78.47c-.08-.15-.14-.43-.19-.82-.62.64-1.36.96-2.21.96-.77,0-1.4-.22-1.89-.65-.49-.43-.74-.98-.74-1.65,0-.81.31-1.44.92-1.89.62-.45,1.48-.67,2.6-.67h1.29v-.61c0-.46-.14-.84-.42-1.11-.28-.28-.69-.41-1.23-.41-.47,0-.87.12-1.19.36s-.48.53-.48.87h-1.34c0-.39.14-.76.41-1.12.28-.36.65-.65,1.12-.86.47-.21.99-.32,1.56-.32.9,0,1.6.22,2.11.67.51.45.77,1.07.79,1.85v3.58c0,.71.09,1.28.27,1.7v.11h-1.39ZM117.39,77.45c.42,0,.81-.11,1.19-.32.37-.22.64-.5.81-.84v-1.6h-1.04c-1.63,0-2.44.48-2.44,1.43,0,.42.14.74.42.98.28.24.63.35,1.07.35Z"/>
        <path class="cls-1" d="M124.61,68.81v1.88h1.45v1.03h-1.45v4.83c0,.31.06.55.19.7.13.16.35.23.66.23.15,0,.36-.03.63-.09v1.07c-.35.09-.69.14-1.02.14-.59,0-1.04-.18-1.34-.54-.3-.36-.45-.87-.45-1.53v-4.82h-1.42v-1.03h1.42v-1.88h1.33Z"/>
        <path class="cls-1" d="M127.62,68.63c0-.22.07-.4.2-.55.13-.15.33-.22.58-.22s.46.07.59.22c.13.15.2.33.2.55s-.07.4-.2.54c-.13.14-.33.22-.59.22s-.45-.07-.58-.22c-.13-.14-.2-.32-.2-.54ZM129.06,78.47h-1.33v-7.78h1.33v7.78Z"/>
        <path class="cls-1" d="M130.83,74.51c0-.76.15-1.45.45-2.06s.72-1.08,1.25-1.41,1.14-.5,1.83-.5c1.06,0,1.91.37,2.57,1.1.65.73.98,1.71.98,2.92v.09c0,.76-.14,1.44-.44,2.04-.29.6-.7,1.07-1.24,1.41-.54.34-1.16.5-1.86.5-1.05,0-1.91-.37-2.56-1.1-.65-.73-.98-1.7-.98-2.91v-.09ZM132.17,74.66c0,.86.2,1.56.6,2.08.4.52.94.78,1.61.78s1.21-.26,1.61-.79.6-1.27.6-2.22c0-.85-.2-1.54-.61-2.07-.41-.53-.94-.79-1.61-.79s-1.19.26-1.59.78c-.4.52-.6,1.27-.6,2.24Z"/>
        <path class="cls-1" d="M140.84,70.69l.04.98c.59-.75,1.37-1.12,2.33-1.12,1.64,0,2.47.93,2.49,2.78v5.14h-1.33v-5.15c0-.56-.13-.98-.38-1.24s-.64-.4-1.18-.4c-.43,0-.81.11-1.13.34s-.58.53-.76.91v5.54h-1.33v-7.78h1.26Z"/>
        <path class="cls-1" d="M151.06,75.66c0-.5.14-.96.42-1.39.28-.42.82-.91,1.61-1.47-.47-.57-.78-1.02-.93-1.37-.16-.34-.24-.69-.24-1.03,0-.79.23-1.42.7-1.87.47-.45,1.11-.68,1.91-.68.72,0,1.31.21,1.78.63s.7.95.7,1.58c0,.42-.11.81-.32,1.17-.21.36-.58.73-1.12,1.12l-.77.57,2.33,2.78c.33-.62.49-1.32.49-2.08h1.2c0,1.22-.29,2.24-.88,3.04l1.49,1.79h-1.59l-.7-.83c-.36.32-.77.56-1.25.72-.48.16-.96.25-1.45.25-1.02,0-1.84-.27-2.46-.81-.62-.54-.93-1.26-.93-2.14ZM154.45,77.53c.7,0,1.35-.27,1.93-.81l-2.55-3.05-.24.17c-.8.59-1.2,1.2-1.2,1.82,0,.57.18,1.02.55,1.36s.87.51,1.51.51ZM153.25,70.36c0,.46.28,1.03.85,1.73l.85-.6c.33-.23.55-.45.67-.66s.18-.46.18-.76c0-.32-.12-.59-.36-.8-.24-.21-.54-.32-.91-.32-.39,0-.7.13-.93.4s-.34.6-.34,1.01Z"/>
        <path class="cls-1" d="M167.36,78.61c-1.05,0-1.91-.35-2.57-1.04s-.99-1.62-.99-2.78v-.24c0-.77.15-1.46.44-2.07.3-.61.71-1.08,1.24-1.42s1.1-.51,1.72-.51c1.01,0,1.8.33,2.36,1,.56.67.84,1.62.84,2.86v.55h-5.27c.02.77.24,1.39.67,1.86.43.47.97.71,1.64.71.47,0,.87-.1,1.19-.29.33-.19.61-.45.86-.76l.81.63c-.65,1-1.63,1.5-2.93,1.5ZM167.2,71.64c-.54,0-.99.2-1.35.59-.36.39-.59.94-.68,1.64h3.9v-.1c-.04-.68-.22-1.2-.55-1.57-.33-.37-.77-.56-1.32-.56Z"/>
        <path class="cls-1" d="M173.38,78.47h-1.33v-11.04h1.33v11.04Z"/>
        <path class="cls-1" d="M178.74,78.61c-1.05,0-1.91-.35-2.57-1.04s-.99-1.62-.99-2.78v-.24c0-.77.15-1.46.44-2.07.3-.61.71-1.08,1.24-1.42s1.1-.51,1.72-.51c1.01,0,1.8.33,2.36,1,.56.67.84,1.62.84,2.86v.55h-5.27c.02.77.24,1.39.67,1.86.43.47.97.71,1.64.71.47,0,.87-.1,1.19-.29.33-.19.61-.45.86-.76l.81.63c-.65,1-1.63,1.5-2.93,1.5ZM178.57,71.64c-.54,0-.99.2-1.35.59-.36.39-.59.94-.68,1.64h3.9v-.1c-.04-.68-.22-1.2-.55-1.57-.33-.37-.77-.56-1.32-.56Z"/>
        <path class="cls-1" d="M186.43,77.53c.47,0,.89-.14,1.24-.43s.55-.65.59-1.08h1.26c-.02.45-.18.87-.46,1.27s-.66.72-1.13.96c-.47.24-.97.36-1.5.36-1.06,0-1.9-.35-2.53-1.06s-.94-1.67-.94-2.9v-.22c0-.76.14-1.43.42-2.02.28-.59.68-1.05,1.2-1.37.52-.33,1.13-.49,1.84-.49.87,0,1.6.26,2.18.78.58.52.88,1.2.92,2.03h-1.26c-.04-.5-.23-.92-.57-1.24s-.77-.49-1.27-.49c-.68,0-1.2.24-1.57.73-.37.49-.56,1.19-.56,2.11v.25c0,.9.18,1.59.55,2.07.37.48.9.73,1.58.73Z"/>
        <path class="cls-1" d="M192.82,68.81v1.88h1.45v1.03h-1.45v4.83c0,.31.06.55.19.7.13.16.35.23.66.23.15,0,.36-.03.63-.09v1.07c-.35.09-.69.14-1.02.14-.59,0-1.04-.18-1.34-.54-.3-.36-.45-.87-.45-1.53v-4.82h-1.42v-1.03h1.42v-1.88h1.33Z"/>
        <path class="cls-1" d="M199.58,71.88c-.2-.03-.42-.05-.65-.05-.87,0-1.46.37-1.78,1.11v5.52h-1.33v-7.78h1.29l.02.9c.44-.7,1.05-1.04,1.85-1.04.26,0,.46.03.59.1v1.24Z"/>
        <path class="cls-1" d="M200.31,74.51c0-.76.15-1.45.45-2.06s.72-1.08,1.25-1.41,1.14-.5,1.83-.5c1.06,0,1.91.37,2.57,1.1.65.73.98,1.71.98,2.92v.09c0,.76-.14,1.44-.44,2.04-.29.6-.7,1.07-1.24,1.41-.54.34-1.16.5-1.86.5-1.05,0-1.91-.37-2.56-1.1-.65-.73-.98-1.7-.98-2.91v-.09ZM201.64,74.66c0,.86.2,1.56.6,2.08.4.52.94.78,1.61.78s1.21-.26,1.61-.79.6-1.27.6-2.22c0-.85-.2-1.54-.61-2.07-.41-.53-.94-.79-1.61-.79s-1.19.26-1.59.78c-.4.52-.6,1.27-.6,2.24Z"/>
        <path class="cls-1" d="M210.31,70.69l.04.98c.59-.75,1.37-1.12,2.33-1.12,1.64,0,2.47.93,2.49,2.78v5.14h-1.33v-5.15c0-.56-.13-.98-.38-1.24s-.64-.4-1.18-.4c-.43,0-.81.11-1.13.34s-.58.53-.76.91v5.54h-1.33v-7.78h1.26Z"/>
        <path class="cls-1" d="M217.18,68.63c0-.22.07-.4.2-.55.13-.15.33-.22.58-.22s.46.07.59.22c.13.15.2.33.2.55s-.07.4-.2.54c-.13.14-.33.22-.59.22s-.45-.07-.58-.22c-.13-.14-.2-.32-.2-.54ZM218.62,78.47h-1.33v-7.78h1.33v7.78Z"/>
        <path class="cls-1" d="M223.87,77.53c.47,0,.89-.14,1.24-.43s.55-.65.59-1.08h1.26c-.02.45-.18.87-.46,1.27s-.66.72-1.13.96c-.47.24-.97.36-1.5.36-1.06,0-1.9-.35-2.53-1.06s-.94-1.67-.94-2.9v-.22c0-.76.14-1.43.42-2.02.28-.59.68-1.05,1.2-1.37.52-.33,1.13-.49,1.84-.49.87,0,1.6.26,2.18.78.58.52.88,1.2.92,2.03h-1.26c-.04-.5-.23-.92-.57-1.24s-.77-.49-1.27-.49c-.68,0-1.2.24-1.57.73-.37.49-.56,1.19-.56,2.11v.25c0,.9.18,1.59.55,2.07.37.48.9.73,1.58.73Z"/>
        <path class="cls-1" d="M232.98,76.4c0-.36-.14-.64-.41-.84-.27-.2-.74-.37-1.42-.51-.67-.14-1.21-.32-1.6-.52-.4-.2-.69-.44-.88-.72-.19-.28-.28-.61-.28-.99,0-.64.27-1.18.81-1.62.54-.44,1.23-.66,2.07-.66.88,0,1.6.23,2.15.68.55.46.82,1.04.82,1.75h-1.34c0-.37-.16-.68-.46-.94s-.7-.4-1.17-.4-.86.11-1.14.32c-.27.21-.41.49-.41.83,0,.32.13.56.38.73.25.16.71.32,1.38.47s1.2.33,1.61.53c.41.21.72.45.92.74.2.29.3.64.3,1.06,0,.69-.28,1.25-.83,1.67s-1.28.63-2.16.63c-.62,0-1.17-.11-1.65-.33-.48-.22-.85-.53-1.12-.92-.27-.4-.41-.82-.41-1.28h1.33c.02.45.2.8.54,1.06.33.26.77.39,1.32.39.5,0,.91-.1,1.21-.31.3-.2.46-.47.46-.81Z"/>
      </g>
      <g>
        <g>
          <path class="cls-1" d="M3.77,12.21c-2.08,0-3.77,1.69-3.77,3.77v34.78c0,2.08,1.69,3.77,3.77,3.77s3.77-1.69,3.77-3.77V15.98c0-2.08-1.69-3.77-3.77-3.77Z"/>
          <path class="cls-1" d="M139.71,12.21c-2.08,0-3.77,1.69-3.77,3.77v34.78c0,2.08,1.69,3.77,3.77,3.77s3.77-1.69,3.77-3.77V15.98c0-2.08-1.69-3.77-3.77-3.77Z"/>
          <path class="cls-1" d="M180.77,12.21c-2.08,0-3.77,1.69-3.77,3.77v34.78c0,2.08,1.69,3.77,3.77,3.77s3.77-1.69,3.77-3.77V15.98c0-2.08-1.69-3.77-3.77-3.77Z"/>
          <path class="cls-1" d="M150.57,36.79h15.07c2.08,0,3.77-1.69,3.77-3.77s-1.69-3.77-3.77-3.77h-15.07c-2.08,0-3.77,1.69-3.77,3.77s1.69,3.77,3.77,3.77Z"/>
          <path class="cls-1" d="M165.64,13.02h-15.07c-2.08,0-3.77,1.69-3.77,3.77s1.69,3.77,3.77,3.77h15.07c2.08,0,3.77-1.69,3.77-3.77s-1.69-3.77-3.77-3.77Z"/>
          <path class="cls-1" d="M165.64,46.63h-15.07c-2.08,0-3.77,1.69-3.77,3.77s1.69,3.77,3.77,3.77h15.07c2.08,0,3.77-1.69,3.77-3.77s-1.69-3.77-3.77-3.77Z"/>
          <path class="cls-1" d="M20.19,26.2h-5.14c-2.08,0-3.77,1.69-3.77,3.77s1.69,3.77,3.77,3.77h5.14c5.93,0,10.76-4.83,10.76-10.76s-4.83-10.76-10.76-10.76h-5.14c-2.08,0-3.77,1.69-3.77,3.77s1.69,3.77,3.77,3.77h5.14c1.78,0,3.23,1.45,3.23,3.23s-1.45,3.23-3.23,3.23Z"/>
          <path class="cls-1" d="M30.19,32.24c-1.85.96-2.57,3.23-1.61,5.08.49.94.74,1.97.74,3.05,0,3.65-2.97,6.63-6.63,6.63h-7.64c-2.08,0-3.77,1.69-3.77,3.77s1.69,3.77,3.77,3.77h7.64c7.81,0,14.16-6.35,14.16-14.16,0-2.27-.55-4.52-1.59-6.52-.96-1.85-3.23-2.57-5.08-1.61Z"/>
          <path class="cls-1" d="M57.95,20.51c1.94-.74,2.92-2.92,2.18-4.86-.74-1.95-2.92-2.91-4.86-2.18-8.09,3.09-13.53,10.98-13.53,19.64s5.1,16.17,13,19.43c.47.19.96.29,1.44.29,1.48,0,2.88-.88,3.48-2.33.79-1.92-.12-4.13-2.04-4.92-5.07-2.09-8.34-6.99-8.34-12.47s3.49-10.62,8.68-12.6Z"/>
          <path class="cls-1" d="M69.57,13.23c-1.97-.67-4.11.38-4.79,2.34-.67,1.97.38,4.11,2.34,4.79,5.45,1.87,9.11,6.99,9.11,12.75s-3.74,11.01-9.31,12.82c-1.98.64-3.06,2.77-2.42,4.75.52,1.59,1.99,2.61,3.58,2.61.39,0,.78-.06,1.17-.19,8.68-2.82,14.52-10.86,14.52-19.99s-5.71-16.97-14.2-19.88Z"/>
          <path class="cls-1" d="M120.54,42.29c-2.55,2.76-6.16,4.34-9.91,4.34-5.56,0-10.62-3.49-12.6-8.68-.74-1.95-2.92-2.91-4.86-2.18-1.94.74-2.92,2.92-2.18,4.86,3.09,8.09,10.98,13.53,19.64,13.53,5.85,0,11.48-2.47,15.44-6.76,1.41-1.53,1.32-3.91-.21-5.32-1.53-1.41-3.91-1.32-5.32.21Z"/>
          <path class="cls-1" d="M110.63,12.14c-8.98,0-16.97,5.71-19.88,14.2-.67,1.97.38,4.11,2.34,4.79.4.14.82.2,1.22.2,1.57,0,3.03-.98,3.57-2.55,1.87-5.45,6.99-9.11,12.75-9.11,4.29,0,8.36,2.07,10.9,5.54,1.23,1.68,3.59,2.05,5.26.82,1.68-1.23,2.05-3.58.82-5.26-3.95-5.41-10.3-8.64-16.98-8.64Z"/>
          <path class="cls-1" d="M212.85,48.14l-15.11-15.11,14.38-14.38c1.47-1.47,1.47-3.86,0-5.33-1.47-1.47-3.86-1.47-5.33,0l-17.04,17.04c-1.47,1.47-1.47,3.86,0,5.33l17.78,17.78c.74.74,1.7,1.1,2.66,1.1s1.93-.37,2.66-1.1c1.47-1.47,1.47-3.86,0-5.33Z"/>
          <path class="cls-1" d="M104.41,7.54h11.9c2.08,0,3.77-1.69,3.77-3.77s-1.69-3.77-3.77-3.77h-11.9c-2.08,0-3.77,1.69-3.77,3.77s1.69,3.77,3.77,3.77Z"/>
        </g>
        <path class="cls-2" d="M231.33,54.41c-1.91,0-3.46-1.55-3.46-3.46v-21.5c0-1.91,1.55-3.46,3.46-3.46s3.46,1.55,3.46,3.46v21.5c0,1.91-1.55,3.46-3.46,3.46Z"/>
        <path class="cls-2" d="M219.66,30.18c-.89,0-1.77-.34-2.45-1.01-1.35-1.35-1.35-3.54,0-4.89l11.61-11.61c1.35-1.35,3.54-1.35,4.89,0s1.35,3.54,0,4.89l-11.61,11.61c-.68.68-1.56,1.01-2.45,1.01Z"/>
      </g>
    </g>
  </g>
</svg>