<svg xmlns="http://www.w3.org/2000/svg" width="112.305" height="18.119" viewBox="0 0 112.305 18.119" fill="#3c434a">
  <path id="dm-footer" d="M17.881,18.119a2.093,2.093,0,0,1-1.913-1.577,2.05,2.05,0,0,1,1.58-2.434h.011a2.029,2.029,0,0,1,2.339,1.6c.02.126.028.251.033.321a2.073,2.073,0,0,1-1.641,2.054,1.8,1.8,0,0,1-.292.031ZM5.425,17.945c-.168-.034-.335-.07-.5-.105s-.32-.1-.482-.143c-.122-.048-.243-.092-.367-.138-.071-.031-.145-.06-.217-.09-.094-.047-.189-.1-.284-.146s-.2-.1-.3-.159L3.1,17.058c-.072-.048-.143-.1-.217-.15a.563.563,0,0,1-.13-.083l0,0L2.3,16.469l-.01-.005c-.069-.058-.131-.124-.2-.185-.094-.089-.189-.175-.283-.261-.138-.166-.276-.329-.414-.493s-.247-.335-.371-.5q-.239-.427-.473-.854a7.052,7.052,0,0,1-.449-3.987c.019-.113.039-.227.057-.338C.251,9.559.337,9.283.427,9c.016-.042.037-.087.055-.13.083-.179.162-.358.244-.537l.346-.568c.073-.109.145-.216.219-.324.054-.068.1-.14.161-.205l.009-.008.325-.34.178-.184.2-.2c.052-.044.1-.089.153-.13.088-.072.175-.144.263-.212s.16-.115.239-.175L3.1,5.812c.092-.053.181-.107.271-.161.155-.078.31-.157.468-.235l.542-.22.482-.147c.145-.035.29-.068.436-.1C5.65,4.9,6,4.858,6.359,4.817l1.221.07a5.754,5.754,0,0,1,1.2.293c.268.111.538.219.8.328.184.1.366.2.574.313V4.877c0-.04,0-.08,0-.121V.714c0-.152,0-.152.151-.166A1.233,1.233,0,0,0,10.45.528L10.862.46l.414-.082c.225-.036.45-.071.675-.109s.464-.074.695-.111c.2-.035.4-.073.606-.11.09-.017.18-.031.285-.049h.005V9.546c0,.03,0,.062,0,.1s0,.08,0,.12v7.656c0,.04,0,.08,0,.121v.323H10.406c-.245.009-.2.011-.205-.2,0-.237,0-.478,0-.716,0-.039-.008-.076-.012-.134l-.305.206c-.135.086-.271.176-.408.262a4.372,4.372,0,0,1-1.138.493c-.34.072-.681.145-1.021.215-.275.014-.552.031-.826.044-.123,0-.248,0-.371,0C5.89,18,5.657,17.975,5.425,17.945Zm-2.093-6.5q.069.51.14,1.021c.084.22.169.437.256.655l.392.628c.167.17.334.336.5.506a.163.163,0,0,1,.02.037c.174.117.347.237.52.351.219.1.437.194.657.291a.285.285,0,0,1,.041.032c.115.03.233.06.348.094l.827.083c.355-.034.709-.065,1.064-.1a3.92,3.92,0,0,0,1.547-.68c.137-.12.274-.237.412-.356.03-.066.087-.131.087-.2q.007-2.412,0-4.826a.247.247,0,0,0-.062-.15C10,8.752,9.908,8.674,9.818,8.6l-.826-.5a4.766,4.766,0,0,0-1.175-.349A5.522,5.522,0,0,0,6.622,7.71L5.793,7.9c-.071.018-.143.044-.215.067l-.416.215C5,8.29,4.846,8.4,4.688,8.5l-.261.258-.263.261c-.13.2-.259.391-.39.586-.078.18-.158.357-.238.535-.026.094-.051.188-.074.282,0,.022-.01.04-.013.057-.022.1-.042.194-.059.293-.005.034-.012.068-.017.1s-.013.089-.018.135a.27.27,0,0,1,0,.04c0,.04-.009.082-.013.122s-.005.108-.005.161c0,.028,0,.055,0,.086v.021Zm34.587,3.141h.9A1.962,1.962,0,0,0,40.922,16.2a2.044,2.044,0,0,0,2.145-2.184V12.52a2.532,2.532,0,0,1-2.379,1.4A2.9,2.9,0,0,1,37.8,10.791a2.922,2.922,0,0,1,2.951-3.133,2.381,2.381,0,0,1,2.327,1.43l.091-1.261h.78v6.1a2.88,2.88,0,0,1-3.042,3.094A2.807,2.807,0,0,1,37.919,14.587Zm.78-3.809a2.153,2.153,0,1,0,4.29,0,2.108,2.108,0,0,0-2.158-2.327A2.136,2.136,0,0,0,38.7,10.778Zm65.1.194a3.022,3.022,0,0,1,3.016-3.315,2.779,2.779,0,0,1,2.86,2.99v.442h-5c.065,1.535.87,2.418,2.223,2.418a1.775,1.775,0,0,0,1.923-1.274h.859a2.613,2.613,0,0,1-2.8,2.041A3.024,3.024,0,0,1,103.8,10.973Zm.9-.533h4.082a1.877,1.877,0,0,0-1.963-2.015A2.079,2.079,0,0,0,104.7,10.44ZM93.443,12.416c0-1.157.884-1.885,2.353-2l2.08-.169v-.208a1.463,1.463,0,0,0-1.664-1.625c-1.092,0-1.742.494-1.742,1.339H93.65c0-1.274,1.039-2.093,2.587-2.093a2.237,2.237,0,0,1,2.522,2.392v4.069h-.753l-.117-1.105a2.456,2.456,0,0,1-2.315,1.261A1.872,1.872,0,0,1,93.443,12.416Zm2.574-1.353c-1.184.1-1.664.625-1.664,1.327,0,.767.572,1.156,1.43,1.156a2.042,2.042,0,0,0,2.092-2.288v-.337Zm-13.053-.077c0-1.9,1.079-3.328,2.951-3.328a2.415,2.415,0,0,1,2.314,1.365V4.642h.9v9.477h-.78l-.091-1.287a2.458,2.458,0,0,1-2.379,1.443C84.043,14.275,82.964,12.871,82.964,10.986Zm.91-.026a2.192,2.192,0,1,0,4.342,0,2.192,2.192,0,1,0-4.342,0Zm-7.773.013a3.021,3.021,0,0,1,3.016-3.315,2.779,2.779,0,0,1,2.86,2.99v.442H76.971c.066,1.535.871,2.418,2.223,2.418a1.775,1.775,0,0,0,1.924-1.274h.859a2.613,2.613,0,0,1-2.8,2.041A3.024,3.024,0,0,1,76.1,10.973Zm.9-.533h4.082a1.877,1.877,0,0,0-1.963-2.015A2.079,2.079,0,0,0,77,10.44Zm-24.96,1.976c0-1.157.884-1.885,2.353-2l2.081-.169v-.208a1.463,1.463,0,0,0-1.664-1.625c-1.093,0-1.742.494-1.742,1.339h-.819c0-1.274,1.04-2.093,2.587-2.093a2.237,2.237,0,0,1,2.522,2.392v4.069H56.6l-.117-1.105a2.454,2.454,0,0,1-2.314,1.261A1.873,1.873,0,0,1,52.037,12.416Zm2.574-1.353c-1.183.1-1.664.625-1.664,1.327,0,.767.572,1.156,1.43,1.156a2.043,2.043,0,0,0,2.093-2.288v-.337Zm-27.183-.077c0-1.9,1.079-3.328,2.951-3.328a2.416,2.416,0,0,1,2.314,1.365V4.642h.9v9.477H32.81l-.091-1.287a2.46,2.46,0,0,1-2.38,1.443C28.508,14.275,27.428,12.871,27.428,10.986Zm.91-.026a2.192,2.192,0,1,0,4.342,0,2.192,2.192,0,1,0-4.342,0Zm82.328,2.509a.819.819,0,1,1,1.638,0,.819.819,0,0,1-1.638,0Zm-9.671.65V8.582H99.734V7.827H101V5.838h.884V7.827h1.261v.754h-1.261v5.538Zm-10,0V7.827h.9v6.292Zm-17.134,0V10.18A1.514,1.514,0,0,0,72.3,8.465a1.648,1.648,0,0,0-1.677,1.768v3.887h-.885V10.167a1.506,1.506,0,0,0-1.56-1.69,1.645,1.645,0,0,0-1.69,1.742v3.9h-.9V7.827h.779l.1.9a2,2,0,0,1,1.9-1.066A2.049,2.049,0,0,1,70.406,9a2.066,2.066,0,0,1,2.067-1.339A2.144,2.144,0,0,1,74.735,10v4.121Zm-14.677,0V4.642h.9v9.477Zm-10.036,0V8.582H47.89V7.827h1.261V5.838h.885V7.827H51.3v.754H50.035v5.538Zm-3.327,0V7.827h.9v6.292Zm-10.362,0V7.827h.9v6.292ZM4.427,8.762l-.262.261Zm0,0-.262.261Zm86.35-3.327a.678.678,0,0,1,.663-.676.688.688,0,0,1,.676.676.677.677,0,0,1-.676.663A.667.667,0,0,1,90.777,5.435Zm-45.175,0a.677.677,0,0,1,.663-.676.689.689,0,0,1,.676.676.678.678,0,0,1-.676.663A.666.666,0,0,1,45.6,5.435Zm-10.361,0a.677.677,0,0,1,.662-.676.689.689,0,0,1,.677.676A.678.678,0,0,1,35.9,6.1.666.666,0,0,1,35.241,5.435Z" transform="translate(0)"/>
</svg>
