<svg width="67" height="52" viewBox="0 0 67 52" fill="none" xmlns="http://www.w3.org/2000/svg">
<path fill-rule="evenodd" clip-rule="evenodd" d="M66.03 1.53125V51.0312H51.4988V18.0742L41.1238 21.1055V9.0137L62.7247 1.53125H66.03ZM53.4988 15.4062V49.0312H64.03V3.53125H63.0613L43.1238 10.4375V18.4375L53.4988 15.4062Z" fill="#FF0033"/>
<path fill-rule="evenodd" clip-rule="evenodd" d="M12.2668 50.8525L12.2556 50.8491C10.4123 50.2819 8.73107 49.4255 7.22541 48.2784L7.21131 48.2676L7.19739 48.2566C5.70741 47.0791 4.44088 45.6273 3.39123 43.9245C2.32499 42.1948 1.53428 40.2007 0.9938 37.9712L0.99272 37.9667C0.448912 35.7009 0.1875 33.1859 0.1875 30.4375V22.125C0.1875 18.6899 0.57783 15.6349 1.40384 12.9963L1.40705 12.986C2.24717 10.3521 3.46587 8.09019 5.10327 6.26016C6.7223 4.45066 8.65497 3.09165 10.8857 2.20417C13.0848 1.32925 15.4748 0.90625 18.0312 0.90625C20.0794 0.90625 22.017 1.17882 23.8305 1.74229C25.6819 2.29014 27.3685 3.15029 28.8763 4.32148C30.3983 5.48278 31.6737 6.93304 32.7079 8.64672C33.773 10.377 34.5615 12.38 35.1005 14.6248C35.6451 16.8723 35.9062 19.3779 35.9062 22.125V30.4375C35.9062 33.8547 35.5048 36.9099 34.658 39.5686C33.8397 42.2022 32.6325 44.4653 30.9953 46.297C29.3951 48.1104 27.4705 49.4707 25.2393 50.3583C23.0402 51.2333 20.6502 51.6562 18.0938 51.6562C16.0475 51.6562 14.1052 51.3946 12.2781 50.8558L12.2668 50.8525ZM29.5 44.9688C30.9167 43.3854 32 41.3854 32.75 38.9688C33.5208 36.5521 33.9062 33.7083 33.9062 30.4375V22.125C33.9062 19.5 33.6562 17.1562 33.1562 15.0938C32.6562 13.0104 31.9375 11.2083 31 9.6875C30.0833 8.16667 28.9688 6.90625 27.6562 5.90625C26.3438 4.88542 24.875 4.13542 23.25 3.65625C21.6458 3.15625 19.9062 2.90625 18.0312 2.90625C15.6979 2.90625 13.5625 3.29167 11.625 4.0625C9.6875 4.83333 8.01042 6.01042 6.59375 7.59375C5.17708 9.17708 4.08333 11.1771 3.3125 13.5938C2.5625 15.9896 2.1875 18.8333 2.1875 22.125V30.4375C2.1875 33.0625 2.4375 35.4167 2.9375 37.5C3.4375 39.5625 4.15625 41.3542 5.09375 42.875C6.03125 44.3958 7.14583 45.6667 8.4375 46.6875C9.75 47.6875 11.2188 48.4375 12.8438 48.9375C14.4688 49.4167 16.2188 49.6562 18.0938 49.6562C20.4271 49.6562 22.5625 49.2708 24.5 48.5C26.4375 47.7292 28.1042 46.5521 29.5 44.9688ZM21.1454 17.2542L21.1429 17.2356C21.0128 16.2696 20.8183 15.5327 20.5913 14.988L20.5822 14.9659L20.5735 14.9436C20.3521 14.3743 20.1123 14.0127 19.897 13.7872L19.8817 13.7712L19.8668 13.7548C19.6263 13.4915 19.3885 13.3392 19.1491 13.2505L19.1064 13.2347L19.0645 13.2169C18.8002 13.1051 18.4658 13.0312 18.0312 13.0312C17.4905 13.0312 17.0682 13.1435 16.7196 13.3287L16.7091 13.3343L16.6985 13.3397C16.4402 13.4731 16.1391 13.7272 15.8316 14.2304C15.5388 14.7095 15.2493 15.4583 15.0268 16.564C14.8283 17.6543 14.7188 19.0516 14.7188 20.7812V31.7188C14.7188 33.1268 14.7879 34.3204 14.9175 35.3108C15.0665 36.2717 15.2612 37.0392 15.4839 37.6362C15.7206 38.1967 15.9725 38.5868 16.2121 38.8537C16.447 39.0957 16.6887 39.2485 16.9446 39.3433C17.2614 39.4606 17.6379 39.5312 18.0938 39.5312C18.6252 39.5312 19.0338 39.4244 19.364 39.254C19.6223 39.1207 19.9234 38.8666 20.2309 38.3633L20.2349 38.3568L20.2389 38.3504C20.5443 37.8592 20.8321 37.1092 21.0328 36.0143L21.0351 36.0016L21.0376 35.989C21.2547 34.8855 21.375 33.4712 21.375 31.7188V20.7812C21.375 19.3937 21.2953 18.2289 21.1483 17.2729L21.1454 17.2542ZM14.75 40.2188C14.3125 39.7396 13.9375 39.125 13.625 38.375C13.3333 37.6042 13.1042 36.6771 12.9375 35.5938C12.7917 34.4896 12.7188 33.1979 12.7188 31.7188V20.7812C12.7188 18.9688 12.8333 17.4375 13.0625 16.1875C13.3125 14.9375 13.6667 13.9375 14.125 13.1875C14.5833 12.4375 15.1354 11.8958 15.7812 11.5625C16.4479 11.2083 17.1979 11.0312 18.0312 11.0312C18.6979 11.0312 19.3021 11.1458 19.8438 11.375C20.4062 11.5833 20.9062 11.9271 21.3438 12.4062C21.7812 12.8646 22.1458 13.4688 22.4375 14.2188C22.75 14.9688 22.9792 15.8854 23.125 16.9688C23.2917 18.0521 23.375 19.3229 23.375 20.7812V31.7188C23.375 33.5521 23.25 35.1042 23 36.375C22.7708 37.625 22.4167 38.6354 21.9375 39.4062C21.4792 40.1562 20.9271 40.6979 20.2812 41.0312C19.6354 41.3646 18.9062 41.5312 18.0938 41.5312C17.4271 41.5312 16.8125 41.4271 16.25 41.2188C15.6875 41.0104 15.1875 40.6771 14.75 40.2188Z" fill="#FF0033"/>
</svg>
