<svg width="77" height="52" viewBox="0 0 77 52" fill="none" xmlns="http://www.w3.org/2000/svg">
<path fill-rule="evenodd" clip-rule="evenodd" d="M76.87 38.9062V51.0312H41.12V41.357L56.2663 25.4339C57.5078 24.0103 58.4841 22.7659 59.2105 21.6961C59.9444 20.5946 60.4299 19.6657 60.7128 18.9004L60.7193 18.8826L60.7263 18.865C61.0391 18.0656 61.1512 17.4533 61.1512 17C61.1512 15.8736 60.9793 15.0825 60.7353 14.5431L60.7236 14.5172L60.7126 14.491C60.4822 13.9405 60.1806 13.6101 59.8271 13.3941L59.8163 13.3875L59.8057 13.3808C59.4682 13.1687 58.9545 13 58.1512 13C57.4822 13 56.9691 13.1826 56.5269 13.5227C56.0293 13.9055 55.5926 14.4594 55.2496 15.2641C54.9261 16.0715 54.745 17.0255 54.745 18.1562V20.1562H40.1825V18.1562C40.1825 15.0248 40.9465 12.1215 42.4879 9.48936L42.4946 9.47783C44.0544 6.85465 46.2181 4.76894 48.9444 3.22989C51.7239 1.63961 54.897 0.875 58.4012 0.875C61.9497 0.875 65.0668 1.42428 67.6726 2.61963C70.2792 3.81529 72.3159 5.59063 73.6883 7.95587C75.0711 10.282 75.7137 13.0136 75.7137 16.0625C75.7137 17.8605 75.4291 19.6009 74.8556 21.2736C74.2964 22.9048 73.5005 24.5008 72.4827 26.0613L72.4754 26.0725C71.4747 27.5846 70.2662 29.1198 68.8593 30.6786C67.5083 32.1983 65.9771 33.8033 64.2684 35.4931L61.3114 38.9062H76.87ZM56.9325 40.9062H74.87V49.0312H43.12V42.1562L57.745 26.7812C59.0367 25.3021 60.0783 23.9792 60.87 22.8125C61.6617 21.625 62.2346 20.5521 62.5887 19.5938C62.9637 18.6354 63.1512 17.7708 63.1512 17C63.1512 15.6875 62.9533 14.5938 62.5575 13.7188C62.1825 12.8229 61.62 12.1458 60.87 11.6875C60.1408 11.2292 59.2346 11 58.1512 11C57.0679 11 56.12 11.3125 55.3075 11.9375C54.495 12.5625 53.8596 13.4167 53.4012 14.5C52.9637 15.5833 52.745 16.8021 52.745 18.1562H42.1825C42.1825 17.4753 42.2228 16.8087 42.3033 16.1562C42.5531 14.1339 43.1899 12.2485 44.2137 10.5C45.5887 8.1875 47.495 6.34375 49.9325 4.96875C52.37 3.57292 55.1929 2.875 58.4012 2.875C61.7554 2.875 64.5679 3.39583 66.8387 4.4375C69.1096 5.47917 70.8179 6.98958 71.9637 8.96875C73.1304 10.9271 73.7137 13.2917 73.7137 16.0625C73.7137 17.6458 73.4637 19.1667 72.9637 20.625C72.4637 22.0833 71.745 23.5312 70.8075 24.9688C69.87 26.3854 68.7242 27.8438 67.37 29.3438C66.0367 30.8438 64.5158 32.4375 62.8075 34.125L56.9325 40.9062Z" fill="#FF0033"/>
<path fill-rule="evenodd" clip-rule="evenodd" d="M12.1093 50.8525L12.0981 50.8491C10.2548 50.2819 8.5736 49.4255 7.06794 48.2784L7.05384 48.2676L7.03992 48.2566C5.54994 47.0791 4.28341 45.6273 3.23376 43.9245C2.16752 42.1948 1.37681 40.2007 0.836329 37.9712L0.83525 37.9667C0.291442 35.7009 0.0300293 33.1859 0.0300293 30.4375V22.125C0.0300293 18.6899 0.420359 15.6349 1.24636 12.9963L1.24958 12.986C2.0897 10.3521 3.3084 8.09019 4.9458 6.26016C6.56482 4.45066 8.4975 3.09165 10.7282 2.20417C12.9273 1.32925 15.3173 0.90625 17.8738 0.90625C19.922 0.90625 21.8595 1.17882 23.673 1.74229C25.5244 2.29014 27.211 3.15029 28.7189 4.32148C30.2409 5.48278 31.5162 6.93304 32.5504 8.64672C33.6155 10.377 34.4041 12.38 34.943 14.6248C35.4876 16.8723 35.7488 19.3779 35.7488 22.125V30.4375C35.7488 33.8547 35.3474 36.9099 34.5005 39.5686C33.6823 42.2022 32.4751 44.4653 30.8378 46.297C29.2376 48.1104 27.313 49.4707 25.0819 50.3583C22.8827 51.2333 20.4928 51.6562 17.9363 51.6562C15.89 51.6562 13.9477 51.3946 12.1206 50.8558L12.1093 50.8525ZM29.3425 44.9688C30.7592 43.3854 31.8425 41.3854 32.5925 38.9688C33.3634 36.5521 33.7488 33.7083 33.7488 30.4375V22.125C33.7488 19.5 33.4988 17.1562 32.9988 15.0938C32.4988 13.0104 31.78 11.2083 30.8425 9.6875C29.9259 8.16667 28.8113 6.90625 27.4988 5.90625C26.1863 4.88542 24.7175 4.13542 23.0925 3.65625C21.4884 3.15625 19.7488 2.90625 17.8738 2.90625C15.5404 2.90625 13.405 3.29167 11.4675 4.0625C9.53003 4.83333 7.85295 6.01042 6.43628 7.59375C5.01961 9.17708 3.92586 11.1771 3.15503 13.5938C2.40503 15.9896 2.03003 18.8333 2.03003 22.125V30.4375C2.03003 33.0625 2.28003 35.4167 2.78003 37.5C3.28003 39.5625 3.99878 41.3542 4.93628 42.875C5.87378 44.3958 6.98836 45.6667 8.28003 46.6875C9.59253 47.6875 11.0613 48.4375 12.6863 48.9375C14.3113 49.4167 16.0613 49.6562 17.9363 49.6562C20.2696 49.6562 22.405 49.2708 24.3425 48.5C26.28 47.7292 27.9467 46.5521 29.3425 44.9688ZM20.9879 17.2542L20.9854 17.2356C20.8554 16.2696 20.6608 15.5327 20.4339 14.988L20.4247 14.9659L20.416 14.9436C20.1946 14.3743 19.9548 14.0127 19.7396 13.7872L19.7243 13.7712L19.7093 13.7548C19.4689 13.4915 19.2311 13.3392 18.9917 13.2505L18.9489 13.2347L18.907 13.2169C18.6427 13.1051 18.3083 13.0312 17.8738 13.0312C17.333 13.0312 16.9107 13.1435 16.5621 13.3287L16.5516 13.3343L16.5411 13.3397C16.2827 13.4731 15.9816 13.7272 15.6741 14.2304C15.3813 14.7095 15.0918 15.4583 14.8694 16.564C14.6709 17.6543 14.5613 19.0516 14.5613 20.7812V31.7188C14.5613 33.1268 14.6305 34.3204 14.76 35.3108C14.909 36.2717 15.1038 37.0392 15.3265 37.6362C15.5631 38.1967 15.815 38.5868 16.0546 38.8537C16.2895 39.0957 16.5313 39.2485 16.7872 39.3433C17.1039 39.4606 17.4804 39.5312 17.9363 39.5312C18.4678 39.5312 18.8763 39.4244 19.2065 39.254C19.4648 39.1207 19.7659 38.8666 20.0735 38.3633L20.0774 38.3568L20.0815 38.3504C20.3868 37.8592 20.6746 37.1092 20.8753 36.0143L20.8776 36.0016L20.8801 35.989C21.0972 34.8855 21.2175 33.4712 21.2175 31.7188V20.7812C21.2175 19.3937 21.1379 18.2289 20.9908 17.2729L20.9879 17.2542ZM14.5925 40.2188C14.155 39.7396 13.78 39.125 13.4675 38.375C13.1759 37.6042 12.9467 36.6771 12.78 35.5938C12.6342 34.4896 12.5613 33.1979 12.5613 31.7188V20.7812C12.5613 18.9688 12.6759 17.4375 12.905 16.1875C13.155 14.9375 13.5092 13.9375 13.9675 13.1875C14.4259 12.4375 14.9779 11.8958 15.6238 11.5625C16.2904 11.2083 17.0404 11.0312 17.8738 11.0312C18.5404 11.0312 19.1446 11.1458 19.6863 11.375C20.2488 11.5833 20.7488 11.9271 21.1863 12.4062C21.6238 12.8646 21.9884 13.4688 22.28 14.2188C22.5925 14.9688 22.8217 15.8854 22.9675 16.9688C23.1342 18.0521 23.2175 19.3229 23.2175 20.7812V31.7188C23.2175 33.5521 23.0925 35.1042 22.8425 36.375C22.6134 37.625 22.2592 38.6354 21.78 39.4062C21.3217 40.1562 20.7696 40.6979 20.1238 41.0312C19.4779 41.3646 18.7488 41.5312 17.9363 41.5312C17.2696 41.5312 16.655 41.4271 16.0925 41.2188C15.53 41.0104 15.03 40.6771 14.5925 40.2188Z" fill="#FF0033"/>
</svg>
