<svg width="78" height="52" viewBox="0 0 78 52" fill="none" xmlns="http://www.w3.org/2000/svg">
<path fill-rule="evenodd" clip-rule="evenodd" d="M51.5538 19.875H58.6788C59.7704 19.875 60.4792 19.683 60.9267 19.4389C61.4303 19.1546 61.7709 18.7893 62.0022 18.3189C62.263 17.7672 62.4288 17.0444 62.4288 16.0938C62.4288 15.4759 62.2982 14.9479 62.0559 14.4761L62.046 14.4569L62.0366 14.4374C61.8478 14.0493 61.5542 13.7224 61.083 13.4496L61.0661 13.4398L61.0494 13.4298C60.6567 13.192 60.0343 13 59.0538 13C58.5134 13 57.9784 13.1129 57.433 13.3569L57.4128 13.3659L57.3924 13.3745C56.8864 13.5875 56.5005 13.8747 56.198 14.2324C56.0215 14.4589 55.8975 14.7613 55.8975 15.25V17.25H41.335V15.25C41.335 12.2778 42.1591 9.6259 43.8775 7.40211L43.8794 7.39958C45.5436 5.25297 47.7148 3.63415 50.3383 2.53249C52.953 1.42248 55.7506 0.875 58.71 0.875C62.1396 0.875 65.2378 1.40536 67.9622 2.52181C70.7116 3.62753 72.9304 5.31028 74.5297 7.59412C76.1894 9.91251 76.96 12.714 76.96 15.875C76.96 17.7628 76.516 19.5535 75.6332 21.2183C74.7681 22.8496 73.5671 24.2633 72.0625 25.4606C72.2724 25.5989 72.478 25.7424 72.6794 25.8911C74.2835 27.0757 75.5347 28.5602 76.4079 30.33C77.295 32.1065 77.71 34.0965 77.71 36.25C77.71 38.6491 77.2259 40.8647 76.2086 42.8497C75.2109 44.7964 73.8094 46.4375 72.0281 47.7614C70.2752 49.0643 68.2539 50.0377 65.991 50.7006L65.9821 50.7032L65.9731 50.7058C63.7126 51.3451 61.2877 51.6562 58.71 51.6562C56.6362 51.6562 54.5691 51.3825 52.5125 50.8401L52.5026 50.8375L52.4927 50.8348C50.3935 50.2581 48.462 49.3762 46.7104 48.1851L46.7029 48.18L46.6955 48.1748C44.8866 46.9207 43.4243 45.3238 42.32 43.4032L42.3126 43.3904L42.3055 43.3775C41.1717 41.3368 40.6475 38.9776 40.6475 36.375V34.375H55.21V36.375C55.21 36.9369 55.3532 37.4214 55.6456 37.8755C55.9859 38.351 56.4428 38.7482 57.0585 39.0633C57.6622 39.3722 58.3173 39.5312 59.0538 39.5312C60.0991 39.5312 60.8479 39.338 61.3848 39.0526C62.0026 38.7141 62.4165 38.2999 62.695 37.8156C62.9888 37.3044 63.1475 36.7247 63.1475 36.0312C63.1475 34.6865 62.9159 33.8396 62.6274 33.3318L62.6188 33.3167L62.6105 33.3015C62.3305 32.7882 61.9378 32.4281 61.3644 32.1841L61.3572 32.181L61.3501 32.1779C60.706 31.8979 59.8362 31.7188 58.6788 31.7188H51.5538V19.875ZM62.335 40.8125C61.4392 41.2917 60.3454 41.5312 59.0538 41.5312C58.0121 41.5312 57.0434 41.3021 56.1475 40.8438C55.2517 40.3854 54.5329 39.7708 53.9913 39C53.4704 38.2083 53.21 37.3333 53.21 36.375H42.6475C42.6475 37.0703 42.6892 37.737 42.7724 38.375C42.9685 39.8779 43.3957 41.2216 44.0538 42.4062C45.0121 44.0729 46.2725 45.4479 47.835 46.5312C49.3975 47.5938 51.1267 48.3854 53.0225 48.9062C54.9184 49.4062 56.8142 49.6562 58.71 49.6562C61.1267 49.6562 63.3663 49.3646 65.4288 48.7812C67.4913 48.1771 69.2934 47.3021 70.835 46.1562C72.3767 45.0104 73.5746 43.6042 74.4288 41.9375C75.2829 40.2708 75.71 38.375 75.71 36.25C75.71 34.3542 75.3454 32.6771 74.6163 31.2188C73.8871 29.7396 72.8454 28.5 71.4913 27.5C71.1024 27.2129 70.6921 26.9463 70.2603 26.7004C69.5519 26.297 68.7858 25.949 67.9618 25.6565C68.7456 25.2874 69.4751 24.8665 70.1502 24.3936C70.374 24.2369 70.5919 24.0744 70.8038 23.9062C72.1163 22.8646 73.1371 21.6562 73.8663 20.2812C74.5954 18.9062 74.96 17.4375 74.96 15.875C74.96 13.0417 74.2725 10.6667 72.8975 8.75C71.5434 6.8125 69.6475 5.35417 67.21 4.375C64.7725 3.375 61.9392 2.875 58.71 2.875C56.0017 2.875 53.4704 3.375 51.1163 4.375C48.7829 5.35417 46.8975 6.77083 45.46 8.625C44.4238 9.96602 43.7665 11.5077 43.4883 13.25C43.3861 13.8896 43.335 14.5563 43.335 15.25H53.8975C53.8975 14.3542 54.1475 13.5938 54.6475 12.9688C55.1684 12.3438 55.8246 11.8646 56.6163 11.5312C57.4079 11.1771 58.2204 11 59.0538 11C60.2829 11 61.2934 11.2396 62.085 11.7188C62.8767 12.1771 63.46 12.7917 63.835 13.5625C64.2309 14.3333 64.4288 15.1771 64.4288 16.0938C64.4288 17.2812 64.2204 18.3125 63.8038 19.1875C63.3871 20.0417 62.7517 20.7083 61.8975 21.1875C61.0642 21.6458 59.9913 21.875 58.6788 21.875H53.5538V29.7188H58.6788C60.0329 29.7188 61.1892 29.9271 62.1475 30.3438C63.1267 30.7604 63.8663 31.4271 64.3663 32.3438C64.8871 33.2604 65.1475 34.4896 65.1475 36.0312C65.1475 37.0521 64.9079 37.9792 64.4288 38.8125C63.9496 39.6458 63.2517 40.3125 62.335 40.8125Z" fill="#FF0033"/>
<path fill-rule="evenodd" clip-rule="evenodd" d="M12.9493 50.8525L12.9381 50.8491C11.0948 50.2819 9.41356 49.4255 7.90791 48.2784L7.8938 48.2676L7.87989 48.2566C6.38991 47.0791 5.12337 45.6273 4.07373 43.9245C3.00748 42.1948 2.21677 40.2007 1.67629 37.9712L1.67522 37.9667C1.13141 35.7009 0.869995 33.1859 0.869995 30.4375V22.125C0.869995 18.6899 1.26032 15.6349 2.08633 12.9963L2.08955 12.986C2.92967 10.3521 4.14836 8.09019 5.78576 6.26016C7.40479 4.45066 9.33747 3.09165 11.5682 2.20417C13.7673 1.32925 16.1573 0.90625 18.7137 0.90625C20.7619 0.90625 22.6995 1.17882 24.513 1.74229C26.3644 2.29014 28.051 3.15029 29.5588 4.32148C31.0808 5.48278 32.3562 6.93304 33.3904 8.64672C34.4555 10.377 35.244 12.38 35.783 14.6248C36.3276 16.8723 36.5887 19.3779 36.5887 22.125V30.4375C36.5887 33.8547 36.1873 36.9099 35.3404 39.5686C34.5222 42.2022 33.315 44.4653 31.6778 46.297C30.0776 48.1104 28.153 49.4707 25.9218 50.3583C23.7227 51.2333 21.3327 51.6562 18.7762 51.6562C16.73 51.6562 14.7877 51.3946 12.9606 50.8558L12.9493 50.8525ZM30.1825 44.9688C31.5992 43.3854 32.6825 41.3854 33.4325 38.9688C34.2033 36.5521 34.5887 33.7083 34.5887 30.4375V22.125C34.5887 19.5 34.3387 17.1562 33.8387 15.0938C33.3387 13.0104 32.62 11.2083 31.6825 9.6875C30.7658 8.16667 29.6512 6.90625 28.3387 5.90625C27.0262 4.88542 25.5575 4.13542 23.9325 3.65625C22.3283 3.15625 20.5887 2.90625 18.7137 2.90625C16.3804 2.90625 14.245 3.29167 12.3075 4.0625C10.37 4.83333 8.69291 6.01042 7.27625 7.59375C5.85958 9.17708 4.76583 11.1771 3.995 13.5938C3.245 15.9896 2.87 18.8333 2.87 22.125V30.4375C2.87 33.0625 3.12 35.4167 3.62 37.5C4.12 39.5625 4.83875 41.3542 5.77625 42.875C6.71375 44.3958 7.82833 45.6667 9.12 46.6875C10.4325 47.6875 11.9012 48.4375 13.5262 48.9375C15.1512 49.4167 16.9012 49.6562 18.7762 49.6562C21.1096 49.6562 23.245 49.2708 25.1825 48.5C27.12 47.7292 28.7867 46.5521 30.1825 44.9688ZM21.8279 17.2542L21.8254 17.2356C21.6953 16.2696 21.5008 15.5327 21.2738 14.988L21.2646 14.9659L21.256 14.9436C21.0346 14.3743 20.7948 14.0127 20.5795 13.7872L20.5642 13.7712L20.5493 13.7548C20.3088 13.4915 20.071 13.3392 19.8316 13.2505L19.7889 13.2347L19.747 13.2169C19.4827 13.1051 19.1483 13.0312 18.7137 13.0312C18.173 13.0312 17.7507 13.1435 17.4021 13.3287L17.3916 13.3343L17.381 13.3397C17.1227 13.4731 16.8216 13.7272 16.5141 14.2304C16.2213 14.7095 15.9318 15.4583 15.7093 16.564C15.5108 17.6543 15.4012 19.0516 15.4012 20.7812V31.7188C15.4012 33.1268 15.4704 34.3204 15.6 35.3108C15.7489 36.2717 15.9437 37.0392 16.1664 37.6362C16.4031 38.1967 16.655 38.5868 16.8946 38.8537C17.1295 39.0957 17.3712 39.2485 17.6271 39.3433C17.9439 39.4606 18.3204 39.5312 18.7762 39.5312C19.3077 39.5312 19.7163 39.4244 20.0465 39.254C20.3048 39.1207 20.6059 38.8666 20.9134 38.3633L20.9174 38.3568L20.9214 38.3504C21.2268 37.8592 21.5146 37.1092 21.7153 36.0143L21.7176 36.0016L21.7201 35.989C21.9372 34.8855 22.0575 33.4712 22.0575 31.7188V20.7812C22.0575 19.3937 21.9778 18.2289 21.8308 17.2729L21.8279 17.2542ZM15.4325 40.2188C14.995 39.7396 14.62 39.125 14.3075 38.375C14.0158 37.6042 13.7867 36.6771 13.62 35.5938C13.4742 34.4896 13.4012 33.1979 13.4012 31.7188V20.7812C13.4012 18.9688 13.5158 17.4375 13.745 16.1875C13.995 14.9375 14.3492 13.9375 14.8075 13.1875C15.2658 12.4375 15.8179 11.8958 16.4637 11.5625C17.1304 11.2083 17.8804 11.0312 18.7137 11.0312C19.3804 11.0312 19.9846 11.1458 20.5262 11.375C21.0887 11.5833 21.5887 11.9271 22.0262 12.4062C22.4637 12.8646 22.8283 13.4688 23.12 14.2188C23.4325 14.9688 23.6617 15.8854 23.8075 16.9688C23.9742 18.0521 24.0575 19.3229 24.0575 20.7812V31.7188C24.0575 33.5521 23.9325 35.1042 23.6825 36.375C23.4533 37.625 23.0992 38.6354 22.62 39.4062C22.1617 40.1562 21.6096 40.6979 20.9637 41.0312C20.3179 41.3646 19.5887 41.5312 18.7762 41.5312C18.1096 41.5312 17.495 41.4271 16.9325 41.2188C16.37 41.0104 15.87 40.6771 15.4325 40.2188Z" fill="#FF0033"/>
</svg>
