<svg width="79" height="52" viewBox="0 0 79 52" fill="none" xmlns="http://www.w3.org/2000/svg">
<path fill-rule="evenodd" clip-rule="evenodd" d="M78.2062 29.25V41.375H73.6124V51.0312H59.0812V41.375H41.641L40.7751 32.4567L59.0812 3.01051V1.53125H73.6124V29.25H78.2062ZM71.6124 31.25H76.2062V39.375H71.6124V49.0312H61.0812V39.375H43.4562L42.8312 32.9375L61.0812 3.58152V3.53125H71.6124V31.25ZM61.0812 31.25H52.8937L60.3937 18.3125L61.0812 17.1873V31.25ZM59.0812 29.25V24.5644L56.3649 29.25H59.0812Z" fill="#FF0033"/>
<path fill-rule="evenodd" clip-rule="evenodd" d="M12.7893 50.8525L12.778 50.8491C10.9348 50.2819 9.25353 49.4255 7.74787 48.2784L7.73377 48.2676L7.71985 48.2566C6.22987 47.0791 4.96334 45.6273 3.9137 43.9245C2.84745 42.1948 2.05674 40.2007 1.51626 37.9712L1.51518 37.9667C0.971373 35.7009 0.709961 33.1859 0.709961 30.4375V22.125C0.709961 18.6899 1.10029 15.6349 1.9263 12.9963L1.92951 12.986C2.76964 10.3521 3.98833 8.09019 5.62573 6.26016C7.24476 4.45066 9.17743 3.09165 11.4081 2.20417C13.6073 1.32925 15.9972 0.90625 18.5537 0.90625C20.6019 0.90625 22.5395 1.17882 24.353 1.74229C26.2043 2.29014 27.891 3.15029 29.3988 4.32148C30.9208 5.48278 32.1961 6.93304 33.2303 8.64672C34.2954 10.377 35.084 12.38 35.623 14.6248C36.1676 16.8723 36.4287 19.3779 36.4287 22.125V30.4375C36.4287 33.8547 36.0273 36.9099 35.1804 39.5686C34.3622 42.2022 33.155 44.4653 31.5177 46.297C29.9176 48.1104 27.9929 49.4707 25.7618 50.3583C23.5627 51.2333 21.1727 51.6562 18.6162 51.6562C16.5699 51.6562 14.6276 51.3946 12.8005 50.8558L12.7893 50.8525ZM30.0225 44.9688C31.4391 43.3854 32.5225 41.3854 33.2725 38.9688C34.0433 36.5521 34.4287 33.7083 34.4287 30.4375V22.125C34.4287 19.5 34.1787 17.1562 33.6787 15.0938C33.1787 13.0104 32.46 11.2083 31.5225 9.6875C30.6058 8.16667 29.4912 6.90625 28.1787 5.90625C26.8662 4.88542 25.3975 4.13542 23.7725 3.65625C22.1683 3.15625 20.4287 2.90625 18.5537 2.90625C16.2204 2.90625 14.085 3.29167 12.1475 4.0625C10.21 4.83333 8.53288 6.01042 7.11621 7.59375C5.69954 9.17708 4.60579 11.1771 3.83496 13.5938C3.08496 15.9896 2.70996 18.8333 2.70996 22.125V30.4375C2.70996 33.0625 2.95996 35.4167 3.45996 37.5C3.95996 39.5625 4.67871 41.3542 5.61621 42.875C6.55371 44.3958 7.66829 45.6667 8.95996 46.6875C10.2725 47.6875 11.7412 48.4375 13.3662 48.9375C14.9912 49.4167 16.7412 49.6562 18.6162 49.6562C20.9495 49.6562 23.085 49.2708 25.0225 48.5C26.96 47.7292 28.6266 46.5521 30.0225 44.9688ZM21.6679 17.2542L21.6653 17.2356C21.5353 16.2696 21.3408 15.5327 21.1138 14.988L21.1046 14.9659L21.096 14.9436C20.8745 14.3743 20.6347 14.0127 20.4195 13.7872L20.4042 13.7712L20.3892 13.7548C20.1488 13.4915 19.911 13.3392 19.6716 13.2505L19.6289 13.2347L19.5869 13.2169C19.3226 13.1051 18.9883 13.0312 18.5537 13.0312C18.0129 13.0312 17.5906 13.1435 17.242 13.3287L17.2315 13.3343L17.221 13.3397C16.9627 13.4731 16.6615 13.7272 16.354 14.2304C16.0613 14.7095 15.7717 15.4583 15.5493 16.564C15.3508 17.6543 15.2412 19.0516 15.2412 20.7812V31.7188C15.2412 33.1268 15.3104 34.3204 15.44 35.3108C15.5889 36.2717 15.7837 37.0392 16.0064 37.6362C16.243 38.1967 16.495 38.5868 16.7345 38.8537C16.9695 39.0957 17.2112 39.2485 17.4671 39.3433C17.7839 39.4606 18.1603 39.5312 18.6162 39.5312C19.1477 39.5312 19.5563 39.4244 19.8864 39.254C20.1448 39.1207 20.4459 38.8666 20.7534 38.3633L20.7574 38.3568L20.7614 38.3504C21.0667 37.8592 21.3545 37.1092 21.5552 36.0143L21.5576 36.0016L21.5601 35.989C21.7771 34.8855 21.8975 33.4712 21.8975 31.7188V20.7812C21.8975 19.3937 21.8178 18.2289 21.6707 17.2729L21.6679 17.2542ZM15.2725 40.2188C14.835 39.7396 14.46 39.125 14.1475 38.375C13.8558 37.6042 13.6266 36.6771 13.46 35.5938C13.3141 34.4896 13.2412 33.1979 13.2412 31.7188V20.7812C13.2412 18.9688 13.3558 17.4375 13.585 16.1875C13.835 14.9375 14.1891 13.9375 14.6475 13.1875C15.1058 12.4375 15.6579 11.8958 16.3037 11.5625C16.9704 11.2083 17.7204 11.0312 18.5537 11.0312C19.2204 11.0312 19.8245 11.1458 20.3662 11.375C20.9287 11.5833 21.4287 11.9271 21.8662 12.4062C22.3037 12.8646 22.6683 13.4688 22.96 14.2188C23.2725 14.9688 23.5016 15.8854 23.6475 16.9688C23.8141 18.0521 23.8975 19.3229 23.8975 20.7812V31.7188C23.8975 33.5521 23.7725 35.1042 23.5225 36.375C23.2933 37.625 22.9391 38.6354 22.46 39.4062C22.0016 40.1562 21.4495 40.6979 20.8037 41.0312C20.1579 41.3646 19.4287 41.5312 18.6162 41.5312C17.9495 41.5312 17.335 41.4271 16.7725 41.2188C16.21 41.0104 15.71 40.6771 15.2725 40.2188Z" fill="#FF0033"/>
</svg>
