<svg width="80" height="78" viewBox="0 0 80 78" fill="none" xmlns="http://www.w3.org/2000/svg">
<g clip-path="url(#clip0_2018_161)">
<path d="M26.125 67.5654C25.4672 68.1207 25.3859 69.1036 25.9453 69.7584C26.5047 70.4132 27.4891 70.4941 28.1484 69.9373C28.8078 69.3805 28.8875 68.3991 28.3281 67.7443C27.7688 67.0895 26.7844 67.0086 26.125 67.5654Z" fill="#3A3A3A"/>
<path d="M46.5828 44.6932L43.8734 43.3308L43.1531 40.6556C43.014 40.1408 42.6218 39.7333 42.1109 39.5731C41.6 39.4129 41.0437 39.5234 40.6343 39.8655L33.7109 45.6482C31.5031 43.5656 28.6765 42.2903 25.6 42.0212C21.9984 41.707 18.4906 42.8082 15.7218 45.1209L4.83278 54.2163C2.06559 56.5275 0.367155 59.775 0.0499677 63.3615C-0.265657 66.9449 0.842155 70.4366 3.16559 73.1941C5.83903 76.3654 9.67809 78 13.5422 78C16.6125 78 19.6984 76.9673 22.2297 74.8552L22.6797 74.4788C23.3422 73.9251 23.4281 72.9422 22.8734 72.2843C22.3187 71.6264 21.3297 71.5393 20.6672 72.093L20.2172 72.4694C15.8234 76.1383 9.24997 75.566 5.56403 71.194C3.77653 69.0741 2.92653 66.3912 3.16872 63.6368C3.41247 60.8792 4.71716 58.383 6.84528 56.6068L17.7343 47.5114C19.8625 45.7337 22.5593 44.8892 25.3265 45.1287C27.5672 45.3246 29.6375 46.2127 31.2922 47.6685L29.7437 48.9625C29.2156 49.4042 28.714 49.6593 28.375 49.7635C25.825 47.9935 22.3875 48.1195 19.9578 50.1476L9.06872 59.2431C6.13747 61.6911 5.75309 66.0584 8.21403 68.9777C9.58434 70.6045 11.5547 71.4429 13.5375 71.4429C15.1125 71.4429 16.6953 70.914 17.9937 69.83L28.8828 60.7346C29.4172 60.2882 29.8734 59.775 30.2453 59.2026C31.8062 58.8558 33.2953 58.2337 34.639 57.3674C34.2312 59.5261 33.1453 61.5014 31.5187 63.01C30.8859 63.5963 30.8515 64.5824 31.4406 65.2123C31.7484 65.542 32.1672 65.7085 32.5859 65.7085C32.9687 65.7085 33.3515 65.57 33.6531 65.2901C36.1015 63.0193 37.6109 59.9383 37.9015 56.6177C37.9562 55.9987 37.9656 55.3735 37.9328 54.7529L46.8812 47.2797C47.2843 46.9437 47.4906 46.4274 47.4297 45.9063C47.3687 45.3869 47.05 44.9312 46.5812 44.6948L46.5828 44.6932ZM15.9828 67.4411C14.3734 68.7848 11.9656 68.5749 10.614 66.9729C9.96091 66.1984 9.64997 65.2154 9.73903 64.2045C9.82809 63.1935 10.3047 62.279 11.0828 61.6289L18.0031 55.8494C20.0859 57.8137 22.7203 59.058 25.5906 59.4172L15.9828 67.4426V67.4411ZM33.9812 53.9861C32.55 55.1822 30.8234 55.9723 28.9922 56.2709C28.9781 56.274 27.2437 56.4435 26.389 56.3673C24.1484 56.1729 22.0781 55.2848 20.4234 53.829L21.9734 52.535C23.4047 51.3406 25.4734 51.3483 26.8922 52.5553C27.1406 52.7668 27.4484 52.8943 27.7734 52.9223C29.489 53.0716 31.1312 51.8725 31.7578 51.3483L40.764 43.8253L41.0297 44.8098C41.1453 45.2376 41.4375 45.5968 41.8359 45.7975L43.0515 46.4087L33.9812 53.9846V53.9861Z" fill="#3A3A3A"/>
<path d="M78.1797 6.73127C74.4484 0.300089 66.1563 -1.91311 59.6953 1.80096L47.3844 8.87603C44.2531 10.6755 42.0141 13.5808 41.0813 17.0538C40.9188 17.6542 40.8016 18.2669 40.725 18.8844L30.6094 24.6981C30.15 24.9625 29.8563 25.4384 29.8281 25.9657C29.8 26.4929 30.0422 26.9969 30.4703 27.3079L32.9016 29.0685L33.1266 31.8525C33.1703 32.386 33.4844 32.8588 33.9594 33.1076C34.1875 33.2274 34.4375 33.2865 34.6875 33.2865C34.9578 33.2865 35.2281 33.2165 35.4703 33.0781L43.2969 28.5802C45.1078 31.0127 47.6688 32.7577 50.6516 33.554C51.8172 33.8651 53.0016 34.0191 54.1766 34.0191C56.5203 34.0191 58.8344 33.4078 60.9188 32.2087L73.2297 25.1336C76.3578 23.3357 78.5984 20.4304 79.5359 16.9543C80.4719 13.4797 79.9906 9.84965 78.1828 6.73282L78.1797 6.73127ZM35.9625 28.1058C35.9266 27.6532 35.6922 27.2379 35.3234 26.9704L34.2578 26.199L42.9844 21.1847C42.9938 21.18 43.0031 21.1738 43.0125 21.1691L44.4844 20.3231C46.1031 19.393 47.9438 18.9124 49.7969 18.9357C49.8125 18.9357 49.8281 18.9357 49.8438 18.9357C50.7 18.9497 51.5516 19.0695 52.3781 19.2903C54.55 19.8689 56.4344 21.1023 57.8094 22.8224L56.0578 23.8287C56.0578 23.8287 56.0563 23.8287 56.0547 23.8287C54.4375 24.7572 52.4016 24.3917 51.2156 22.9577C51.0078 22.7073 50.7281 22.5269 50.4125 22.4429C48.7469 21.9997 46.9219 22.8971 46.2141 23.303L43.0063 25.1461L36.0484 29.1447L35.9641 28.1042L35.9625 28.1058ZM53.6938 16.4239L64.5563 10.1809C65.436 9.67546 66.4625 9.5417 67.4469 9.80454C68.4313 10.0674 69.2531 10.6942 69.7609 11.5698C70.2688 12.4454 70.4031 13.4673 70.1391 14.4487C69.875 15.4285 69.2453 16.2466 68.3672 16.7521L60.5438 21.2485C58.836 18.9528 56.4594 17.2731 53.6938 16.4239ZM76.5094 16.1455C75.7891 18.8175 74.0672 21.0509 71.6625 22.4336L59.3516 29.5087C56.9453 30.8913 54.1422 31.2584 51.4594 30.543C49.2859 29.9628 47.4031 28.7295 46.0266 27.0093L47.7781 26.003C48.375 25.6593 48.9141 25.4944 49.2656 25.4509C51.4688 27.6345 54.8766 28.1058 57.6219 26.5272L69.9328 19.4521C71.5375 18.5298 72.6844 17.0398 73.1641 15.2559C73.6438 13.4719 73.3984 11.6103 72.4719 10.013C71.5453 8.41721 70.0484 7.27407 68.2563 6.79659C66.4641 6.31756 64.5938 6.56329 62.9906 7.48403L50.6797 14.5591C50.075 14.9075 49.5359 15.3336 49.0703 15.8329C47.4719 15.9044 45.8969 16.2606 44.4203 16.8827C45.2641 14.6478 46.8438 12.7876 48.95 11.5776L61.261 4.50252C66.2281 1.64854 72.6016 3.34848 75.4688 8.29123C76.8578 10.688 77.2281 13.4782 76.5094 16.1471V16.1455Z" fill="#FF0033"/>
<path d="M15.2921 24.9254C15.5953 25.2131 15.9843 25.3562 16.3734 25.3562C16.7859 25.3562 17.1984 25.1945 17.5062 24.8741C18.1031 24.2519 18.0812 23.2659 17.4546 22.6718L14.4015 19.7696C13.7765 19.1754 12.7859 19.1972 12.1874 19.8209C11.5906 20.443 11.6124 21.4291 12.239 22.0232L15.2921 24.9254Z" fill="#FF0033"/>
<path d="M8.27816 34.6941L11.9125 36.1592C12.1047 36.237 12.3047 36.2743 12.5 36.2743C13.1188 36.2743 13.7047 35.9057 13.9516 35.3007C14.2766 34.5028 13.8891 33.5945 13.0875 33.271L9.45473 31.8059C8.65316 31.4824 7.74066 31.8681 7.41566 32.6644C7.09066 33.4623 7.47817 34.3706 8.27973 34.6941H8.27816Z" fill="#FF0033"/>
<path d="M25.3001 18.5875C25.6001 19.0494 26.1032 19.3014 26.6172 19.3014C26.9079 19.3014 27.2016 19.2205 27.4641 19.0525C28.1907 18.5859 28.4001 17.6216 27.9313 16.8984L25.8079 13.6183C25.3391 12.8951 24.3704 12.6867 23.6438 13.1533C22.9172 13.6198 22.7079 14.5841 23.1766 15.3073L25.3001 18.5875Z" fill="#FF0033"/>
<path d="M63.1235 49.0481C62.4985 48.454 61.5079 48.4758 60.9094 49.0995C60.3125 49.7216 60.336 50.7076 60.961 51.3033L64.0141 54.2055C64.3172 54.4932 64.7063 54.6363 65.0954 54.6363C65.5079 54.6363 65.9204 54.4746 66.2282 54.1542C66.825 53.5321 66.8016 52.546 66.1766 51.9503L63.1235 49.0481Z" fill="#FF0033"/>
<path d="M70.1375 39.2776L66.5047 37.8125C65.7031 37.489 64.7906 37.8747 64.4656 38.671C64.1406 39.4689 64.5281 40.3772 65.3281 40.7007L68.9609 42.1658C69.1531 42.2436 69.3531 42.2809 69.5484 42.2809C70.1672 42.2809 70.7531 41.9138 71 41.3073C71.325 40.5094 70.9375 39.6011 70.1375 39.2776Z" fill="#FF0033"/>
<path d="M53.1156 55.3859C52.6469 54.6626 51.6781 54.4542 50.9515 54.9208C50.225 55.3874 50.0156 56.3517 50.4844 57.0749L52.6078 60.3551C52.9078 60.817 53.4109 61.0689 53.925 61.0689C54.2156 61.0689 54.5094 60.9881 54.7719 60.8201C55.4984 60.3535 55.7078 59.3892 55.239 58.666L53.1156 55.3859Z" fill="#FF0033"/>
</g>
<defs>
<clipPath id="clip0_2018_161">
<rect width="80" height="78" fill="white"/>
</clipPath>
</defs>
</svg>
