<svg width="82" height="78" viewBox="0 0 82 78" fill="none" xmlns="http://www.w3.org/2000/svg">
<g clip-path="url(#clip0_2018_142)">
<path d="M76.7004 47.7792C78.3944 45.7043 79.2785 42.7646 79.2785 39.9198C79.2785 35.3013 75.5311 31.5425 70.9266 31.5425C66.3221 31.5425 62.5798 35.3013 62.5798 39.9198C62.5798 42.3043 63.2733 44.8564 64.4358 46.7485C65.6439 48.715 67.3395 49.9792 69.3119 50.4243C69.0504 50.6731 68.8058 50.9185 68.5746 51.1504L58.8375 60.9171H47.4486C44.8823 60.9171 42.7935 63.0122 42.7935 65.5864C42.7935 66.2853 42.9488 66.947 43.2238 67.5427H38.7779C39.0529 66.947 39.2081 66.2853 39.2081 65.5864C39.2081 63.0122 37.1227 60.9171 34.5581 60.9171H23.1642L13.4271 51.1504C13.1959 50.9185 12.9513 50.6731 12.6898 50.4243C14.6638 49.9809 16.3595 48.715 17.5676 46.7485C18.7284 44.8581 19.4202 42.3043 19.4202 39.9198C19.4202 35.3013 15.6762 31.5425 11.0734 31.5425C6.47058 31.5425 2.72152 35.3013 2.72152 39.9198C2.72152 42.7646 3.60564 45.7043 5.29963 47.7792C2.29128 48.3207 0 50.9625 0 54.134V76.6444C0 77.3924 0.604033 77.9983 1.34979 77.9983C2.09556 77.9983 2.69959 77.3924 2.69959 76.6444V54.134C2.69959 52.0659 4.37671 50.3837 6.43852 50.3837C8.8479 50.3837 10.1437 51.6852 11.5171 53.0628L22.0455 63.6232H34.5564C35.6312 63.6232 36.5069 64.5032 36.5069 65.5847C36.5069 66.6661 35.6312 67.541 34.5564 67.541H21.4229C20.7447 67.541 20.203 67.316 19.7239 66.8353L10.9468 58.0265C10.4204 57.4985 9.56498 57.4968 9.03856 58.0265C8.51214 58.5562 8.51045 59.4126 9.03856 59.9406L13.5553 64.4745V76.6444C13.5553 77.3924 14.1593 77.9983 14.9051 77.9983C15.6509 77.9983 16.2549 77.3924 16.2549 76.6444V67.184L17.8156 68.7494C18.0602 68.9948 18.3218 69.2114 18.5968 69.3976V76.6444C18.5968 77.3924 19.2008 77.9983 19.9466 77.9983H62.0551C62.8009 77.9983 63.4049 77.3924 63.4049 76.6444V69.3976C63.6816 69.2114 63.9414 68.9948 64.1861 68.7494L65.7468 67.184V76.6427C65.7468 77.3907 66.3508 77.9966 67.0966 77.9966C67.8423 77.9966 68.4464 77.3907 68.4464 76.6427V64.4762L72.9682 59.9406C73.4946 59.4126 73.4946 58.5545 72.9682 58.0265C72.4418 57.4985 71.5863 57.4985 71.0599 58.0265L62.2778 66.8353C61.797 67.3177 61.257 67.5427 60.5771 67.5427H47.4486C46.3705 67.5427 45.4931 66.6644 45.4931 65.5864C45.4931 64.5083 46.3705 63.6249 47.4486 63.6249H59.9545L70.4829 53.0628C71.8546 51.6852 73.1504 50.3837 75.5649 50.3837C77.6233 50.3837 79.2987 52.0659 79.2987 54.134V76.6444C79.2987 77.3924 79.9028 77.9983 80.6485 77.9983C81.3943 77.9983 81.9983 77.3924 81.9983 76.6444V54.134C81.9983 50.9608 79.707 48.3173 76.6987 47.7792H76.7004ZM11.0734 34.2503C14.188 34.2503 16.7206 36.7939 16.7206 39.9198C16.7206 43.0456 15.1869 47.8976 11.0734 47.8976C7.17416 47.8976 5.42111 43.2334 5.42111 39.9198C5.42111 36.7939 7.95704 34.2503 11.0734 34.2503ZM60.5771 70.2505H60.7053V75.2905H21.2964V70.2505H60.5771ZM65.2794 39.9198C65.2794 36.7939 67.8137 34.2503 70.9266 34.2503C74.0396 34.2503 76.5789 36.7939 76.5789 39.9198C76.5789 43.2317 74.8258 47.8976 70.9266 47.8976C67.0274 47.8976 65.2794 43.2334 65.2794 39.9198Z" fill="#3A3A3A"/>
<path d="M40.9999 8.45337C32.1875 8.45337 25.0234 15.6443 25.0234 24.4836C25.0234 27.8751 26.0645 31.1126 28.0335 33.8424C28.7303 34.8122 29.4322 35.6008 30.1122 36.3624C31.3371 37.7383 32.3427 38.8688 32.8877 40.5984C32.0457 41.2144 31.4957 42.2112 31.4957 43.3367C31.4957 44.6533 32.2482 45.794 33.3432 46.3542C33.2352 46.6876 33.1745 47.0413 33.1745 47.4102C33.1745 48.8606 34.089 50.096 35.3713 50.5783C35.2903 50.8677 35.2448 51.169 35.2448 51.4838C35.2448 53.3538 36.7616 54.8753 38.6277 54.8753H43.3773C45.24 54.8753 46.7551 53.3538 46.7551 51.4838C46.7551 51.1707 46.7079 50.8677 46.6286 50.58C47.9092 50.0977 48.8254 48.8606 48.8254 47.4102C48.8254 47.0413 48.7646 46.6876 48.6566 46.3542C49.7517 45.794 50.5042 44.6533 50.5042 43.3367C50.5042 42.2129 49.9541 41.2161 49.1122 40.5984C49.6606 38.8688 50.6645 37.7366 51.8894 36.3624C52.5677 35.5991 53.2696 34.8122 53.9647 33.8441C55.9371 31.1075 56.9798 27.8717 56.9798 24.4836C56.9798 15.6443 49.8124 8.45337 40.9999 8.45337ZM43.3773 52.1675H38.6277C38.2565 52.1675 37.9443 51.8544 37.9443 51.4838C37.9443 51.1131 38.2514 50.7984 38.6277 50.7984H43.3773C43.7451 50.7984 44.0555 51.1114 44.0555 51.4838C44.0555 51.8561 43.7451 52.1675 43.3773 52.1675ZM45.4475 48.0905H36.5557C36.1862 48.0905 35.8724 47.7792 35.8724 47.4102C35.8724 47.0413 36.1795 46.7248 36.5557 46.7248H45.4475C45.8153 46.7248 46.1258 47.0396 46.1258 47.4102C46.1258 47.7808 45.8153 48.0905 45.4475 48.0905ZM47.1263 44.017H34.8736C34.5057 44.017 34.1953 43.7056 34.1953 43.3367C34.1953 42.9677 34.5057 42.6512 34.8736 42.6512H47.1263C47.4941 42.6512 47.8046 42.966 47.8046 43.3367C47.8046 43.7073 47.4941 44.017 47.1263 44.017ZM37.8617 25.9932H36.5372C35.8066 25.9932 35.2127 25.3975 35.2127 24.6647C35.2127 23.9319 35.8066 23.3429 36.5372 23.3429C37.2678 23.3429 37.8617 23.9352 37.8617 24.6647V25.9932ZM40.5613 39.9434V28.701H41.4437V39.9434H40.5613ZM51.7764 32.26C51.1622 33.113 50.5076 33.8475 49.8765 34.5566C48.5588 36.0357 47.2022 37.5606 46.4869 39.9434H44.1433V28.701H45.461C47.6797 28.701 49.4851 26.8901 49.4851 24.6647C49.4851 22.4392 47.6797 20.6351 45.461 20.6351C43.2423 20.6351 41.4437 22.4426 41.4437 24.6647V25.9932H40.5613V24.6647C40.5613 22.4426 38.7559 20.6351 36.5372 20.6351C34.3185 20.6351 32.5131 22.4426 32.5131 24.6647C32.5131 26.8867 34.3185 28.701 36.5372 28.701H37.8617V39.9434H35.513C34.7993 37.5606 33.4428 36.0374 32.125 34.5583C31.4906 33.8475 30.836 33.113 30.2218 32.2584C28.5869 29.9906 27.723 27.3014 27.723 24.4836C27.723 17.137 33.679 11.1612 40.9999 11.1612C48.3209 11.1612 54.2802 17.137 54.2802 24.4836C54.2802 27.298 53.4147 29.9855 51.7764 32.26ZM44.1433 25.9932V24.6647C44.1433 23.9352 44.7355 23.3429 45.4627 23.3429C46.1899 23.3429 46.7855 23.9352 46.7855 24.6647C46.7855 25.3941 46.1916 25.9932 45.4627 25.9932H44.1433Z" fill="#FF0033"/>
<path d="M16.5923 24.4818C16.5923 23.7338 17.1963 23.1279 17.9421 23.1279H21.2761C22.0218 23.1279 22.6259 23.7338 22.6259 24.4818C22.6259 25.2299 22.0218 25.8357 21.2761 25.8357H17.9421C17.1963 25.8357 16.5923 25.2299 16.5923 24.4818Z" fill="#FF0033"/>
<path d="M23.7413 9.08475C23.2148 8.55673 23.2148 7.6987 23.7413 7.17067C24.2677 6.64265 25.1231 6.64265 25.6495 7.17067L28.0083 9.53662C28.5347 10.0646 28.5347 10.9227 28.0083 11.4507C27.7451 11.7147 27.3992 11.8467 27.0533 11.8467C26.7074 11.8467 26.3615 11.7147 26.0983 11.4507L23.7396 9.08475H23.7413Z" fill="#FF0033"/>
<path d="M39.6501 4.69804V1.3539C39.6501 0.605871 40.2542 0 40.9999 0C41.7457 0 42.3497 0.605871 42.3497 1.3539V4.69804C42.3497 5.44607 41.7457 6.05194 40.9999 6.05194C40.2542 6.05194 39.6501 5.44607 39.6501 4.69804Z" fill="#FF0033"/>
<path d="M53.9917 11.4507C53.4653 10.9227 53.4653 10.0646 53.9917 9.53662L56.3505 7.17067C56.8769 6.64265 57.7324 6.64265 58.2588 7.17067C58.7852 7.6987 58.7852 8.55673 58.2588 9.08475L55.9 11.4507C55.6368 11.7147 55.2909 11.8467 54.945 11.8467C54.5991 11.8467 54.2533 11.7147 53.99 11.4507H53.9917Z" fill="#FF0033"/>
<path d="M59.3757 24.4818C59.3757 23.7338 59.9798 23.1279 60.7255 23.1279H64.0595C64.8053 23.1279 65.4093 23.7338 65.4093 24.4818C65.4093 25.2299 64.8053 25.8357 64.0595 25.8357H60.7255C59.9798 25.8357 59.3757 25.2299 59.3757 24.4818Z" fill="#FF0033"/>
</g>
<defs>
<clipPath id="clip0_2018_142">
<rect width="82" height="78" fill="white"/>
</clipPath>
</defs>
</svg>
