<svg width="67" height="78" viewBox="0 0 67 78" fill="none" xmlns="http://www.w3.org/2000/svg">
<g clip-path="url(#clip0_2018_152)">
<path d="M56.4602 41.7964H34.6302V37.7626C38.3135 37.5416 41.7952 36.2527 44.7573 33.989C45.2551 33.6085 45.3546 32.8916 44.9783 32.3883C44.6019 31.885 43.893 31.7843 43.3952 32.1649C40.5666 34.345 36.8883 35.5775 33.2317 35.5112C24.2968 35.3664 17.0687 27.9715 17.0687 18.8997C17.0687 9.82795 24.44 2.28574 33.5012 2.28574C42.5624 2.28574 49.9313 9.73957 49.9313 18.8997C49.9313 22.3566 48.8922 25.671 46.9255 28.4822C46.5637 28.9977 46.6851 29.7097 47.195 30.0755C47.7049 30.4389 48.409 30.3161 48.7708 29.8006C51.0069 26.6015 52.1918 22.8329 52.1918 18.8997C52.1918 8.47762 43.8056 0 33.5012 0C23.1969 0 14.8107 8.47762 14.8107 18.8997C14.8107 29.3218 22.5875 37.1709 32.3698 37.7651V41.7964H10.5423C8.38139 41.7964 6.62354 43.5739 6.62354 45.759V50.0727H8.88398V45.759C8.88398 44.8334 9.62694 44.0822 10.5423 44.0822H32.3698V50.0727H34.6302V44.0822H56.4602C57.3731 44.0822 58.1185 44.8334 58.1185 45.759V50.0727H60.3789V45.759C60.3789 43.5739 58.6211 41.7964 56.4602 41.7964Z" fill="#3A3A3A"/>
<path d="M43.1014 11.5514L34.6933 6.98481C33.9528 6.58217 33.069 6.57971 32.3236 6.97499C32.3236 6.97499 32.3188 6.97745 32.3164 6.9799C32.3139 6.9799 32.3091 6.98236 32.3066 6.98481L23.8986 11.5514C23.1847 11.9393 22.5535 12.7986 22.5316 13.8862V24.1512C22.5316 25.1578 23.0731 26.0613 23.9447 26.5106L32.3528 30.8439C32.7073 31.0256 33.103 31.1238 33.4964 31.1238C33.8897 31.1238 34.2879 31.0281 34.6399 30.8464L43.048 26.513C43.9197 26.0638 44.4635 25.1603 44.4635 24.1537V13.8887C44.4635 13.0834 44.0265 12.0743 43.099 11.5538L43.1014 11.5514ZM33.3725 8.99803C33.3725 8.99803 33.3774 8.99558 33.3798 8.99312C33.4575 8.95139 33.5473 8.95139 33.625 8.99312L40.9017 12.9459L33.5012 16.7612L26.1007 12.9459L33.3725 8.99558V8.99803ZM24.9742 24.4728C24.8649 24.4164 24.7945 24.2887 24.7945 24.1487V14.8388L32.3722 18.745V28.2832L24.9742 24.4704V24.4728ZM42.2079 24.1487C42.2079 24.2887 42.1375 24.4164 42.0283 24.4728L34.6326 28.2857V18.7474L42.2079 14.8413V24.1512V24.1487Z" fill="#3A3A3A"/>
<path d="M14.376 71.6117C13.7521 71.6117 13.2446 72.1224 13.2446 72.7534V74.5628C13.2446 75.1987 12.7347 75.7143 12.1083 75.7143H3.39917C2.77275 75.7143 2.26045 75.1987 2.26045 74.5628V67.956C2.26045 66.4535 2.84316 65.0491 3.90176 63.9959C4.96035 62.9426 6.35644 62.373 7.84722 62.4025C10.5253 62.4491 12.8221 64.5483 13.1936 67.2882C13.2786 67.9118 13.8467 68.3489 14.4659 68.2654C15.085 68.1795 15.5172 67.6025 15.4322 66.9789C15.0899 64.4403 13.5627 62.2945 11.477 61.1086C12.9071 59.9842 13.8322 58.2263 13.8322 56.2548C13.8322 53.2571 11.698 50.7553 8.88396 50.2176V50.0728H6.62352V50.2176C3.80949 50.7528 1.6753 53.2571 1.6753 56.2548C1.6753 58.2165 2.58822 59.9645 4.00859 61.0915C3.39674 61.4327 2.82859 61.8575 2.31872 62.3657C0.823084 63.851 0 65.8373 0 67.956V74.5628C0 76.4582 1.52477 78 3.39917 78H12.1083C13.9803 78 15.5051 76.4582 15.5051 74.5628V72.7534C15.5051 72.1224 15 71.6117 14.376 71.6117ZM3.93332 56.2548C3.93332 54.1262 5.64747 52.3929 7.75253 52.3929C9.85758 52.3929 11.5717 54.1262 11.5717 56.2548C11.5717 58.3834 9.86001 60.1168 7.75253 60.1168C5.64504 60.1168 3.93332 58.3834 3.93332 56.2548Z" fill="#FF0033"/>
<path d="M38.9374 62.3657C38.4251 61.8575 37.857 61.4327 37.2451 61.0915C38.6655 59.9645 39.5784 58.2165 39.5784 56.2548C39.5784 53.2571 37.4442 50.7528 34.6302 50.2176V50.0728H32.3697V50.2176C29.5582 50.7553 27.4215 53.2571 27.4215 56.2548C27.4215 58.2263 28.3442 59.9793 29.7742 61.1062C27.3803 62.4663 25.7487 65.0884 25.7487 68.0665V74.5628C25.7487 76.4582 27.2734 78 29.1454 78H37.8545C39.7289 78 41.2537 76.4582 41.2537 74.5628V67.956C41.2537 65.8373 40.4306 63.8535 38.9374 62.3657ZM29.682 56.2548C29.682 54.1262 31.3961 52.3929 33.5012 52.3929C35.6062 52.3929 37.3204 54.1262 37.3204 56.2548C37.3204 58.3834 35.6062 60.1168 33.5012 60.1168C31.3961 60.1168 29.682 58.3834 29.682 56.2548ZM38.9933 74.5628C38.9933 75.1987 38.4834 75.7143 37.8545 75.7143H29.1454C28.519 75.7143 28.0091 75.1987 28.0091 74.5628V68.0665C28.0091 64.9927 30.4298 62.4541 33.4065 62.4025C34.8851 62.3779 36.2934 62.9426 37.352 63.9959C38.4106 65.0491 38.9933 66.4535 38.9933 67.956V74.5628Z" fill="#FF0033"/>
<path d="M64.6837 62.3657C64.1713 61.8575 63.6032 61.4327 62.9938 61.0915C64.4117 59.9645 65.3271 58.2165 65.3271 56.2548C65.3271 53.2571 63.1929 50.7528 60.3788 50.2176V50.0728H58.1184V50.2176C55.3044 50.7553 53.1702 53.2571 53.1702 56.2548C53.1702 58.2238 54.0904 59.9793 55.5205 61.1062C54.2701 61.8108 53.209 62.869 52.4879 64.1825C52.1869 64.7349 52.3835 65.4297 52.9298 65.7366C53.4737 66.041 54.1632 65.8422 54.4643 65.2897C55.4234 63.5417 57.2201 62.4369 59.1527 62.4025C60.6362 62.3779 62.0396 62.9426 63.0982 63.9959C64.1568 65.0491 64.7395 66.4559 64.7395 67.956V74.5628C64.7395 75.1987 64.2296 75.7143 63.6032 75.7143H54.8941C54.2676 75.7143 53.7553 75.1987 53.7553 74.5628V70.0896C53.7553 69.4586 53.2503 68.9479 52.6263 68.9479C52.0023 68.9479 51.4973 69.4586 51.4973 70.0896V74.5628C51.4973 76.4582 53.0197 78 54.8941 78H63.6032C65.4776 78 66.9999 76.4582 66.9999 74.5628V67.956C66.9999 65.8373 66.1769 63.851 64.6837 62.3657ZM59.2474 60.1168C57.1424 60.1168 55.4282 58.3834 55.4282 56.2548C55.4282 54.1262 57.1424 52.3929 59.2474 52.3929C61.3525 52.3929 63.0666 54.1262 63.0666 56.2548C63.0666 58.3834 61.3549 60.1168 59.2474 60.1168Z" fill="#FF0033"/>
</g>
<defs>
<clipPath id="clip0_2018_152">
<rect width="67" height="78" fill="white"/>
</clipPath>
</defs>
</svg>
