<svg width="59" height="78" viewBox="0 0 59 78" fill="none" xmlns="http://www.w3.org/2000/svg">
<g clip-path="url(#clip0_2018_174)">
<path d="M48.3262 54.3634C47.0817 54.033 45.7832 54.2012 44.673 54.8359L33.2782 61.3511C33.1686 60.8219 32.9725 60.3065 32.693 59.8233C32.0013 58.6258 30.8865 57.7693 29.554 57.4099L16.2137 53.8128C16.1597 53.7975 16.1056 53.7868 16.0516 53.7807C13.9471 53.5054 12.0263 54.0131 10.3418 55.2902L7.17193 57.6944L7.15186 57.6209C6.86313 56.5534 5.75144 55.9187 4.67371 56.2032L1.49921 57.0459C0.421487 57.3319 -0.220824 58.433 0.0679071 59.5006L4.67062 76.5134C4.80959 77.0303 5.14464 77.4616 5.61402 77.7293C5.92591 77.9082 6.27331 78 6.62381 78C6.79982 78 6.97584 77.977 7.14877 77.9311L10.3233 77.0884C10.8451 76.9508 11.2806 76.6174 11.5508 76.154C11.821 75.6891 11.8935 75.1492 11.753 74.6338L11.6357 74.1994C13.3866 72.9499 14.9584 72.6196 16.9209 73.0646L24.5622 74.8005C25.2508 74.9565 25.9209 75.0345 26.5725 75.0345C27.9282 75.0345 29.202 74.698 30.377 74.0251L49.4873 63.0977C51.7863 61.7824 52.5769 58.8597 51.2505 56.5825C50.6098 55.4829 49.5707 54.6952 48.3262 54.3649V54.3634ZM6.94187 75.452L2.57076 59.2941L4.88215 58.6808L9.25327 74.8387L6.94187 75.452ZM48.2536 60.9779L29.1448 71.9054C27.9467 72.5905 26.6281 72.7572 25.1165 72.4147L17.4752 70.6788C15.1005 70.1405 13.0361 70.4555 10.964 71.705L7.8652 60.2515L11.8457 57.2325C12.9867 56.3669 14.2312 56.0273 15.6501 56.1956L28.9071 59.7697C29.6034 59.9578 30.1871 60.4075 30.5514 61.0376C30.9158 61.6677 31.0116 62.3941 30.8217 63.0839C30.6317 63.7752 30.1778 64.3548 29.5432 64.7142C28.9086 65.0736 28.1752 65.1684 27.4773 64.9803L20.3517 63.0594C19.6352 62.8652 18.8957 63.3393 18.7999 64.0963C18.7243 64.705 19.1427 65.2694 19.7402 65.43L26.8304 67.3417C27.2859 67.464 27.7429 67.5237 28.1937 67.5237C30.2674 67.5237 32.1897 66.2818 32.9972 64.3426L45.9129 56.9557C46.4517 56.6467 47.0832 56.5672 47.6916 56.7278C48.2999 56.8884 48.8048 57.2722 49.1167 57.806C49.7637 58.9148 49.3792 60.3387 48.2582 60.9795L48.2536 60.9779Z" fill="#3A3A3A"/>
<path d="M27.7707 36.2647L22.2324 29.1653C21.9019 28.7417 21.4202 28.4435 20.8813 28.3808C20.1711 28.2967 19.4948 28.5811 19.0671 29.1302L13.5009 36.2647C13.0346 36.8612 12.9528 37.6519 13.2879 38.3279C13.6245 39.0069 14.3069 39.429 15.0697 39.429H16.0177V50.8504C16.0177 51.5264 16.5704 52.0739 17.2529 52.0739H24.0188C24.7012 52.0739 25.254 51.5264 25.254 50.8504V39.429H26.202C26.9648 39.429 27.6472 39.0069 27.9838 38.3279C28.3189 37.6534 28.237 36.8627 27.7707 36.2647ZM24.0188 36.982C23.3363 36.982 22.7836 37.5295 22.7836 38.2055V49.6269H18.4881V38.2055C18.4881 37.5295 17.9353 36.982 17.2529 36.982H16.0625L20.6358 31.1199L25.2092 36.982H24.0188Z" fill="#FF0033"/>
<path d="M43.1769 26.6006L37.6107 19.466C37.2355 18.9843 36.6565 18.7029 36.042 18.7029C35.4274 18.7029 34.8515 18.9812 34.4732 19.466L28.9071 26.6006C28.4408 27.1986 28.3589 27.9893 28.694 28.6637C29.0306 29.3443 29.713 29.7664 30.4758 29.7664H31.4238V50.8505C31.4238 51.5265 31.9766 52.074 32.659 52.074H39.4249C40.1074 52.074 40.6601 51.5265 40.6601 50.8505V29.7664H41.6082C42.3709 29.7664 43.0533 29.3443 43.3915 28.6637C43.725 27.9893 43.6432 27.1986 43.1769 26.6006ZM39.4249 27.3194C38.744 27.3194 38.1897 27.8669 38.1897 28.5429V49.627H33.8942V28.5429C33.8942 27.8669 33.3415 27.3194 32.659 27.3194H31.4686L36.042 21.4573L40.6153 27.3194H39.4249Z" fill="#FF0033"/>
<path d="M58.5831 33.5027L53.0169 26.3681C52.6387 25.8833 52.0674 25.605 51.4482 25.605C51.1394 25.605 50.8414 25.6753 50.5743 25.8053C50.3072 25.9353 50.0694 26.125 49.8795 26.3681L44.3133 33.5027C43.847 34.1007 43.7652 34.8914 44.1002 35.5674C44.4368 36.2464 45.1193 36.6685 45.882 36.6685H46.8301V50.8505C46.8301 51.5265 47.3828 52.074 48.0653 52.074H54.8312C55.5136 52.074 56.0664 51.5265 56.0664 50.8505V36.6685H57.0144C57.7771 36.6685 58.4596 36.2464 58.7962 35.5674C59.1312 34.8914 59.0494 34.1007 58.5831 33.5027ZM54.8312 34.2215C54.1502 34.2215 53.5959 34.769 53.5959 35.445V49.627H49.3005V35.445C49.3005 34.769 48.7477 34.2215 48.0653 34.2215H46.8748L51.4482 28.3594L56.0216 34.2215H54.8312Z" fill="#FF0033"/>
<path d="M45.323 6.4586C45.11 6.16649 44.7656 5.99672 44.4028 5.96614L39.2118 5.53485L37.1922 0.778474C37.0517 0.446598 36.7815 0.174368 36.4357 0.062723C35.7949 -0.142214 35.1464 0.177427 34.904 0.750945L32.8736 5.53485L27.6811 5.96614C27.3183 5.99672 26.9739 6.16649 26.7609 6.4586C26.3671 6.99847 26.4737 7.70963 26.9477 8.11492L30.9143 11.5056L29.7254 16.528C29.642 16.8783 29.6991 17.256 29.9122 17.5481C30.309 18.0865 31.0239 18.2058 31.5597 17.8846L36.0419 15.196L40.5242 17.8846C40.7203 18.0024 40.9427 18.062 41.1635 18.062C41.5479 18.062 41.9324 17.8831 42.1825 17.5313C42.3879 17.2423 42.4404 16.8722 42.3585 16.5265L41.1696 11.5056L45.1362 8.11492C45.6102 7.70963 45.7168 6.99847 45.323 6.4586ZM38.9895 10.1383C38.6405 10.435 38.4892 10.8999 38.5942 11.3434L39.2906 14.2829L36.6827 12.7199C36.4851 12.6006 36.2643 12.5425 36.0419 12.5425C35.8196 12.5425 35.5988 12.6006 35.4027 12.7199L32.7949 14.2829L33.4897 11.3434C33.5947 10.8999 33.4434 10.435 33.0944 10.1383L30.7861 8.16386L33.8247 7.91151C34.2833 7.87328 34.6817 7.58575 34.8608 7.1667L36.0419 4.3817L37.2231 7.1667C37.4022 7.58575 37.8006 7.87328 38.2592 7.91151L41.2978 8.16386L38.9895 10.1383Z" fill="#FF0033"/>
</g>
<defs>
<clipPath id="clip0_2018_174">
<rect width="59" height="78" fill="white"/>
</clipPath>
</defs>
</svg>
