<svg width="521" height="449" viewBox="0 0 521 449" fill="none" xmlns="http://www.w3.org/2000/svg">
<g clip-path="url(#clip0_47_225)">
<path d="M521 358.744L465.15 358.744L403.138 412.37L361.979 412.37L332.908 437.512" stroke="#DEDEDE" stroke-width="5" stroke-miterlimit="10"/>
<path d="M521 338.196L465.15 338.196L432.998 338.196L393.231 372.592L279.06 372.592L259.516 355.692" stroke="#DEDEDE" stroke-width="7" stroke-miterlimit="10"/>
<path d="M521 317.648L465.15 317.648L413.639 317.648L397.168 331.898L370.963 331.898L350.815 314.477L183.422 314.477L168.239 327.602L83.2879 327.602" stroke="#DEDEDE" stroke-width="3" stroke-miterlimit="10"/>
<path d="M521 297.1L465.15 297.1L451.79 308.662L318.35 308.662L304.455 296.646L205.489 296.646" stroke="#DEDEDE" stroke-width="5" stroke-miterlimit="10"/>
<path d="M521 276.552L465.15 276.552L343.804 276.552L333.199 285.724L143.536 285.724L122.325 267.38L-0.717786 267.38" stroke="#DEDEDE" stroke-width="3" stroke-miterlimit="10"/>
<path d="M521 256.003L465.15 256.003L409.992 256.003L394.296 269.583L167.301 269.583" stroke="#DEDEDE" stroke-width="3" stroke-miterlimit="10"/>
<path d="M521 235.463L320.844 235.463" stroke="#DEDEDE" stroke-width="5" stroke-miterlimit="10"/>
<path d="M377.75 235.463L359.501 251.239L144.385 251.239L125.294 234.726L75.6517 234.726" stroke="#DEDEDE" stroke-width="3" stroke-miterlimit="10"/>
<path d="M336.972 372.592L295.873 337.05L221.595 337.05L192.889 361.871" stroke="#DEDEDE" stroke-width="3" stroke-miterlimit="10"/>
<path d="M426.589 392.098L220.762 392.098" stroke="#DEDEDE" stroke-width="3" stroke-miterlimit="10"/>
<path d="M521 87.0019L465.15 87.0019L403.138 33.3682L328.041 33.3682L298.97 8.22653" stroke="#DEDEDE" stroke-width="5" stroke-miterlimit="10"/>
<path d="M521 107.543L465.15 107.543L432.998 107.543L393.231 73.1546L296.03 73.1546L276.493 90.0547" stroke="#DEDEDE" stroke-width="7" stroke-miterlimit="10"/>
<path d="M521 128.091L465.15 128.091L413.639 128.091L397.168 113.849L336.228 113.849L316.08 131.27L219.065 131.27L203.882 118.137L112.232 118.137" stroke="#DEDEDE" stroke-width="3" stroke-miterlimit="10"/>
<path d="M521 154.297L465.15 154.297L343.804 154.297L333.199 145.125L164.756 145.125L143.536 163.47L54.1497 163.47" stroke="#DEDEDE" stroke-width="6" stroke-miterlimit="10"/>
<path d="M521 174.846L465.15 174.846L409.992 174.846L394.296 161.273L177.483 161.273" stroke="#DEDEDE" stroke-width="3" stroke-miterlimit="10"/>
<path d="M521 195.394L303.919 195.394" stroke="#DEDEDE" stroke-width="3" stroke-miterlimit="10"/>
<path d="M377.75 195.394L359.501 179.618L144.385 179.618L125.294 196.131L-22.1304 196.131" stroke="#DEDEDE" stroke-width="3" stroke-miterlimit="10"/>
<path d="M336.972 73.1544L295.873 108.697L171.35 108.697L149.483 86.8159" stroke="#DEDEDE" stroke-width="3" stroke-miterlimit="10"/>
<path d="M426.589 53.6484L255.556 53.6485L233.645 75.5591" stroke="#DEDEDE" stroke-width="3" stroke-miterlimit="10"/>
<path d="M521 215.428L291.564 215.428L270.806 233.378L208.943 233.378L187.582 215.428L-44.6445 215.428" stroke="#DEDEDE" stroke-width="7" stroke-miterlimit="10"/>
<path d="M521 215.428L291.564 215.428L270.806 197.471L224.215 197.471" stroke="#DEDEDE" stroke-width="7" stroke-miterlimit="10"/>
<path d="M370.963 331.898L348.985 351.329" stroke="#DEDEDE" stroke-width="3" stroke-miterlimit="10"/>
<path d="M342.272 435.28C341.033 430.11 335.838 426.924 330.67 428.165C325.501 429.405 322.317 434.601 323.557 439.771C324.796 444.941 329.991 448.126 335.159 446.886C340.328 445.646 343.512 440.45 342.272 435.28Z" fill="#F9F9F9" stroke="#DEDEDE" stroke-width="5" stroke-miterlimit="10"/>
<path d="M332.908 442.18C335.483 442.18 337.575 440.088 337.575 437.512C337.575 434.936 335.483 432.844 332.908 432.844C330.333 432.844 328.242 434.936 328.242 437.512C328.242 440.088 330.333 442.18 332.908 442.18Z" fill="#DEDEDE"/>
<path d="M225.024 387.836C222.669 385.481 218.852 385.481 216.498 387.836C214.144 390.191 214.144 394.009 216.498 396.364C218.852 398.719 222.669 398.719 225.024 396.364C227.378 394.009 227.378 390.191 225.024 387.836Z" fill="#DEDEDE"/>
<path d="M182.886 161.274C182.886 158.289 180.467 155.869 177.483 155.869C174.498 155.869 172.079 158.289 172.079 161.274C172.079 164.259 174.498 166.679 177.483 166.679C180.467 166.679 182.886 164.259 182.886 161.274Z" fill="#DEDEDE"/>
<path d="M309.456 195.394C309.456 192.335 306.977 189.855 303.919 189.855C300.861 189.855 298.382 192.335 298.382 195.394C298.382 198.453 300.861 200.933 303.919 200.933C306.977 200.933 309.456 198.453 309.456 195.394Z" fill="#DEDEDE"/>
<path d="M241.092 73.8297C240.129 69.7308 236.027 67.1886 231.929 68.1515C227.832 69.1144 225.29 73.2178 226.253 77.3166C227.216 81.4155 231.318 83.9577 235.415 82.9948C239.513 82.0319 242.054 77.9286 241.092 73.8297Z" fill="#DEDEDE"/>
<path d="M75.6517 239.394C78.2268 239.394 80.3182 237.302 80.3182 234.726C80.3182 232.15 78.2268 230.058 75.6517 230.058C73.0765 230.058 70.9851 232.15 70.9851 234.726C70.9851 237.302 73.0765 239.394 75.6517 239.394Z" fill="#F9F9F9" stroke="#DEDEDE" stroke-width="3" stroke-miterlimit="10"/>
<path d="M158.772 86.8161C158.772 81.6846 154.613 77.5247 149.483 77.5247C144.353 77.5247 140.195 81.6846 140.195 86.8161C140.195 91.9475 144.353 96.1074 149.483 96.1074C154.613 96.1074 158.772 91.9475 158.772 86.8161Z" fill="#F9F9F9" stroke="#DEDEDE" stroke-width="3" stroke-miterlimit="10"/>
<path d="M305.333 8.22683C305.333 4.71128 302.484 1.86132 298.97 1.86132C295.455 1.86132 292.606 4.71128 292.606 8.22683C292.606 11.7424 295.455 14.5923 298.97 14.5923C302.484 14.5923 305.333 11.7424 305.333 8.22683Z" fill="#F9F9F9" stroke="#DEDEDE" stroke-width="5" stroke-miterlimit="10"/>
<path d="M285.531 87.6061C284.17 82.633 279.036 79.7051 274.065 81.0665C269.093 82.428 266.166 87.5632 267.527 92.5363C268.888 97.5095 274.022 100.437 278.993 99.0759C283.965 97.7145 286.892 92.5793 285.531 87.6061Z" fill="#F9F9F9" stroke="#DEDEDE" stroke-width="7" stroke-miterlimit="10"/>
<path d="M119.972 110.395C115.696 106.118 108.764 106.118 104.489 110.395C100.213 114.672 100.213 121.606 104.489 125.883C108.764 130.16 115.696 130.16 119.972 125.883C124.247 121.606 124.247 114.672 119.972 110.395Z" fill="#F9F9F9" stroke="#DEDEDE" stroke-width="3" stroke-miterlimit="10"/>
<path d="M117.517 118.137C117.517 115.218 115.151 112.851 112.232 112.851C109.314 112.851 106.948 115.218 106.948 118.137C106.948 121.056 109.314 123.423 112.232 123.423C115.151 123.423 117.517 121.056 117.517 118.137Z" fill="#F9F9F9" stroke="#DEDEDE" stroke-width="3" stroke-miterlimit="10"/>
<path d="M94.4072 327.602C94.4072 321.459 89.4289 316.479 83.2879 316.479C77.1468 316.479 72.1685 321.459 72.1685 327.602C72.1685 333.745 77.1468 338.725 83.2879 338.725C89.4289 338.725 94.4072 333.745 94.4072 327.602Z" fill="#F9F9F9" stroke="#DEDEDE" stroke-width="3" stroke-miterlimit="10"/>
<path d="M83.2879 332.493C85.9896 332.493 88.1777 330.304 88.1777 327.602C88.1777 324.899 85.9896 322.71 83.2879 322.71C80.5862 322.71 78.398 324.899 78.398 327.602C78.398 330.304 80.5862 332.493 83.2879 332.493Z" stroke="#DEDEDE" stroke-width="5" stroke-miterlimit="10"/>
<path d="M328.424 234.224C327.746 230.031 323.798 227.182 319.607 227.86C315.415 228.539 312.567 232.488 313.245 236.68C313.923 240.873 317.871 243.723 322.062 243.044C326.254 242.366 329.102 238.417 328.424 234.224Z" fill="#F9F9F9" stroke="#DEDEDE" stroke-width="5" stroke-miterlimit="10"/>
<path d="M171.797 265.085C169.312 262.599 165.283 262.599 162.798 265.085C160.313 267.571 160.313 271.601 162.798 274.087C165.283 276.573 169.312 276.573 171.797 274.087C174.282 271.601 174.282 267.571 171.797 265.085Z" fill="#F9F9F9" stroke="#DEDEDE" stroke-width="3" stroke-miterlimit="10"/>
<path d="M266.121 354.139C265.263 350.489 261.609 348.225 257.96 349.083C254.311 349.941 252.048 353.596 252.906 357.247C253.764 360.897 257.418 363.161 261.067 362.303C264.716 361.444 266.979 357.789 266.121 354.139Z" fill="#F9F9F9" stroke="#DEDEDE" stroke-width="7" stroke-miterlimit="10"/>
<path d="M355.749 349.604C354.794 345.867 350.991 343.613 347.256 344.569C343.52 345.525 341.267 349.329 342.223 353.066C343.178 356.802 346.981 359.056 350.716 358.1C354.452 357.144 356.705 353.34 355.749 349.604Z" fill="#F9F9F9" stroke="#DEDEDE" stroke-width="3" stroke-miterlimit="10"/>
<path d="M61.2277 163.47C61.2277 159.559 58.0588 156.389 54.1497 156.389C50.2407 156.389 47.0717 159.559 47.0717 163.47C47.0717 167.38 50.2407 170.55 54.1497 170.55C58.0588 170.55 61.2277 167.38 61.2277 163.47Z" fill="#DEDEDE"/>
<path d="M233.645 197.471C233.645 192.261 229.423 188.038 224.215 188.038C219.007 188.038 214.785 192.261 214.785 197.471C214.785 202.681 219.007 206.904 224.215 206.904C229.423 206.904 233.645 202.681 233.645 197.471Z" fill="#F9F9F9" stroke="#DEDEDE" stroke-width="7" stroke-miterlimit="10"/>
<path d="M211.33 295.26C210.565 292.031 207.329 290.034 204.101 290.799C200.873 291.564 198.877 294.801 199.641 298.03C200.406 301.259 203.643 303.256 206.871 302.491C210.098 301.726 212.095 298.489 211.33 295.26Z" fill="#F9F9F9" stroke="#DEDEDE" stroke-width="5" stroke-miterlimit="10"/>
<path d="M203.606 361.871C203.606 355.951 198.808 351.151 192.889 351.151C186.97 351.151 182.171 355.951 182.171 361.871C182.171 367.792 186.97 372.592 192.889 372.592C198.808 372.592 203.606 367.792 203.606 361.871Z" fill="#F9F9F9" stroke="#DEDEDE" stroke-width="3" stroke-miterlimit="10"/>
<path d="M198.717 361.871C198.717 358.652 196.107 356.042 192.889 356.042C189.67 356.042 187.061 358.652 187.061 361.871C187.061 365.091 189.67 367.701 192.889 367.701C196.107 367.701 198.717 365.091 198.717 361.871Z" fill="#DEDEDE"/>
<path d="M-0.717783 272.725C2.22952 272.725 4.62607 270.335 4.62607 267.38C4.62607 264.424 2.23696 262.034 -0.717784 262.034C-3.67253 262.034 -6.06163 264.424 -6.06163 267.38C-6.06163 270.335 -3.67253 272.725 -0.717783 272.725Z" fill="#DEDEDE"/>
</g>
<defs>
<clipPath id="clip0_47_225">
<rect width="449" height="575" fill="white" transform="translate(-54 449) rotate(-90)"/>
</clipPath>
</defs>
</svg>
