<svg width="470" height="449" viewBox="0 0 470 449" fill="none" xmlns="http://www.w3.org/2000/svg">
<g clip-path="url(#clip0_47_275)">
<path d="M-4.30721e-05 90.2556L55.8499 90.2556L117.862 36.6293L159.021 36.6293L188.092 11.4875" stroke="#DEDEDE" stroke-width="5" stroke-miterlimit="10"/>
<path d="M6.51297e-05 110.804L55.85 110.804L88.0024 110.804L127.769 76.4077L241.94 76.4077L261.484 93.3078" stroke="#DEDEDE" stroke-width="7" stroke-miterlimit="10"/>
<path d="M4.96937e-05 131.352L55.85 131.352L107.361 131.352L123.832 117.102L150.037 117.102L170.185 134.523L337.578 134.523L352.761 121.398L437.712 121.398" stroke="#DEDEDE" stroke-width="3" stroke-miterlimit="10"/>
<path d="M3.95634e-05 151.9L55.85 151.9L69.2096 140.338L202.65 140.338L216.545 152.354L315.511 152.354" stroke="#DEDEDE" stroke-width="5" stroke-miterlimit="10"/>
<path d="M1.15035e-05 172.448L55.8499 172.448L177.196 172.448L187.801 163.276L377.464 163.276L398.675 181.62L521.718 181.62" stroke="#DEDEDE" stroke-width="3" stroke-miterlimit="10"/>
<path d="M-5.32977e-05 192.997L55.8499 192.997L111.008 192.997L126.704 179.417L353.699 179.417" stroke="#DEDEDE" stroke-width="3" stroke-miterlimit="10"/>
<path d="M-4.23827e-05 213.537L200.156 213.537" stroke="#DEDEDE" stroke-width="5" stroke-miterlimit="10"/>
<path d="M143.25 213.537L161.499 197.761L376.615 197.761L395.706 214.274L445.348 214.274" stroke="#DEDEDE" stroke-width="3" stroke-miterlimit="10"/>
<path d="M184.028 76.4077L225.127 111.95L299.405 111.95L328.111 87.1285" stroke="#DEDEDE" stroke-width="3" stroke-miterlimit="10"/>
<path d="M94.4106 56.9019L300.238 56.9019" stroke="#DEDEDE" stroke-width="3" stroke-miterlimit="10"/>
<path d="M2.24152e-05 361.998L55.85 361.998L117.862 415.632L192.959 415.632L222.03 440.773" stroke="#DEDEDE" stroke-width="5" stroke-miterlimit="10"/>
<path d="M1.42358e-05 341.457L55.85 341.457L88.0024 341.457L127.769 375.845L224.97 375.845L244.507 358.945" stroke="#DEDEDE" stroke-width="7" stroke-miterlimit="10"/>
<path d="M-1.5117e-05 320.909L55.8499 320.909L107.361 320.909L123.831 335.151L184.772 335.151L204.92 317.73L301.935 317.73L317.118 330.863L408.767 330.863" stroke="#DEDEDE" stroke-width="3" stroke-miterlimit="10"/>
<path d="M-4.35559e-05 294.703L55.8499 294.703L177.196 294.703L187.801 303.875L356.244 303.875L377.463 285.53L466.85 285.53" stroke="#DEDEDE" stroke-width="6" stroke-miterlimit="10"/>
<path d="M2.42687e-05 274.154L55.85 274.154L111.008 274.154L126.704 287.727L343.517 287.727" stroke="#DEDEDE" stroke-width="3" stroke-miterlimit="10"/>
<path d="M8.4169e-05 253.606L217.081 253.606" stroke="#DEDEDE" stroke-width="3" stroke-miterlimit="10"/>
<path d="M143.249 253.606L161.499 269.382L376.615 269.382L395.706 252.869L543.13 252.869" stroke="#DEDEDE" stroke-width="3" stroke-miterlimit="10"/>
<path d="M184.028 375.846L225.127 340.303L349.65 340.303L371.517 362.184" stroke="#DEDEDE" stroke-width="3" stroke-miterlimit="10"/>
<path d="M94.4106 395.352L265.444 395.352L287.355 373.441" stroke="#DEDEDE" stroke-width="3" stroke-miterlimit="10"/>
<path d="M-9.32269e-06 233.572L229.436 233.572L250.194 215.622L312.057 215.622L333.418 233.572L565.645 233.572" stroke="#DEDEDE" stroke-width="7" stroke-miterlimit="10"/>
<path d="M2.34496e-05 233.572L229.436 233.572L250.194 251.529L296.785 251.529" stroke="#DEDEDE" stroke-width="7" stroke-miterlimit="10"/>
<path d="M150.037 117.102L172.016 97.6709" stroke="#DEDEDE" stroke-width="3" stroke-miterlimit="10"/>
<path d="M178.728 13.7204C179.967 18.8902 185.162 22.0758 190.33 20.8356C195.499 19.5954 198.683 14.399 197.443 9.2292C196.204 4.05938 191.009 0.87379 185.841 2.114C180.672 3.35421 177.488 8.55058 178.728 13.7204Z" fill="#F9F9F9" stroke="#DEDEDE" stroke-width="5" stroke-miterlimit="10"/>
<path d="M188.092 6.81958C185.517 6.81958 183.425 8.91162 183.425 11.4876C183.425 14.0636 185.517 16.1556 188.092 16.1556C190.667 16.1556 192.758 14.0636 192.758 11.4876C192.758 8.91162 190.667 6.81958 188.092 6.81958Z" fill="#DEDEDE"/>
<path d="M295.977 61.1641C298.331 63.5191 302.148 63.5191 304.502 61.1641C306.857 58.809 306.857 54.9908 304.502 52.6357C302.148 50.2807 298.331 50.2807 295.977 52.6358C293.622 54.9908 293.622 58.809 295.977 61.1641Z" fill="#DEDEDE"/>
<path d="M338.114 287.726C338.114 290.711 340.533 293.131 343.517 293.131C346.502 293.131 348.921 290.711 348.921 287.726C348.921 284.741 346.502 282.321 343.517 282.321C340.533 282.321 338.114 284.741 338.114 287.726Z" fill="#DEDEDE"/>
<path d="M211.544 253.606C211.544 256.665 214.023 259.145 217.081 259.145C220.139 259.145 222.618 256.665 222.618 253.606C222.618 250.547 220.139 248.067 217.081 248.067C214.023 248.067 211.544 250.547 211.544 253.606Z" fill="#DEDEDE"/>
<path d="M279.908 375.17C280.871 379.269 284.973 381.811 289.071 380.848C293.168 379.886 295.71 375.782 294.747 371.683C293.784 367.585 289.682 365.042 285.585 366.005C281.487 366.968 278.946 371.071 279.908 375.17Z" fill="#DEDEDE"/>
<path d="M445.348 209.606C442.773 209.606 440.682 211.698 440.682 214.274C440.682 216.85 442.773 218.942 445.348 218.942C447.923 218.942 450.015 216.85 450.015 214.274C450.015 211.698 447.923 209.606 445.348 209.606Z" fill="#F9F9F9" stroke="#DEDEDE" stroke-width="3" stroke-miterlimit="10"/>
<path d="M362.228 362.184C362.228 367.315 366.387 371.475 371.517 371.475C376.647 371.475 380.805 367.315 380.805 362.184C380.805 357.052 376.647 352.893 371.517 352.893C366.387 352.893 362.228 357.052 362.228 362.184Z" fill="#F9F9F9" stroke="#DEDEDE" stroke-width="3" stroke-miterlimit="10"/>
<path d="M215.667 440.773C215.667 444.289 218.516 447.139 222.03 447.139C225.545 447.139 228.394 444.289 228.394 440.773C228.394 437.258 225.545 434.408 222.03 434.408C218.516 434.408 215.667 437.258 215.667 440.773Z" fill="#F9F9F9" stroke="#DEDEDE" stroke-width="5" stroke-miterlimit="10"/>
<path d="M235.469 361.394C236.83 366.367 241.964 369.295 246.935 367.933C251.907 366.572 254.834 361.437 253.473 356.464C252.112 351.491 246.978 348.563 242.007 349.924C237.035 351.286 234.108 356.421 235.469 361.394Z" fill="#F9F9F9" stroke="#DEDEDE" stroke-width="7" stroke-miterlimit="10"/>
<path d="M401.028 338.605C405.304 342.882 412.236 342.882 416.511 338.605C420.787 334.328 420.787 327.394 416.511 323.117C412.236 318.84 405.304 318.84 401.028 323.117C396.753 327.394 396.753 334.328 401.028 338.605Z" fill="#F9F9F9" stroke="#DEDEDE" stroke-width="3" stroke-miterlimit="10"/>
<path d="M403.483 330.863C403.483 333.782 405.849 336.149 408.767 336.149C411.686 336.149 414.052 333.782 414.052 330.863C414.052 327.944 411.686 325.577 408.767 325.577C405.849 325.577 403.483 327.944 403.483 330.863Z" fill="#F9F9F9" stroke="#DEDEDE" stroke-width="3" stroke-miterlimit="10"/>
<path d="M426.593 121.398C426.593 127.541 431.571 132.521 437.712 132.521C443.853 132.521 448.832 127.541 448.832 121.398C448.832 115.255 443.853 110.275 437.712 110.275C431.571 110.275 426.593 115.255 426.593 121.398Z" fill="#F9F9F9" stroke="#DEDEDE" stroke-width="3" stroke-miterlimit="10"/>
<path d="M437.712 116.507C435.01 116.507 432.822 118.696 432.822 121.398C432.822 124.101 435.01 126.29 437.712 126.29C440.414 126.29 442.602 124.101 442.602 121.398C442.602 118.696 440.414 116.507 437.712 116.507Z" stroke="#DEDEDE" stroke-width="5" stroke-miterlimit="10"/>
<path d="M192.576 214.776C193.254 218.969 197.202 221.818 201.393 221.14C205.585 220.461 208.433 216.512 207.755 212.32C207.077 208.127 203.129 205.277 198.938 205.956C194.746 206.634 191.898 210.583 192.576 214.776Z" fill="#F9F9F9" stroke="#DEDEDE" stroke-width="5" stroke-miterlimit="10"/>
<path d="M349.203 183.915C351.688 186.401 355.717 186.401 358.202 183.915C360.687 181.429 360.687 177.399 358.202 174.913C355.717 172.427 351.688 172.427 349.203 174.913C346.718 177.399 346.718 181.429 349.203 183.915Z" fill="#F9F9F9" stroke="#DEDEDE" stroke-width="3" stroke-miterlimit="10"/>
<path d="M254.879 94.861C255.737 98.5114 259.391 100.775 263.04 99.9167C266.689 99.0585 268.952 95.4036 268.094 91.7532C267.236 88.1028 263.582 85.8393 259.933 86.6975C256.284 87.5557 254.021 91.2106 254.879 94.861Z" fill="#F9F9F9" stroke="#DEDEDE" stroke-width="7" stroke-miterlimit="10"/>
<path d="M165.251 99.3961C166.206 103.133 170.009 105.387 173.744 104.431C177.48 103.475 179.733 99.671 178.778 95.9345C177.822 92.198 174.019 89.9439 170.284 90.8997C166.548 91.8556 164.295 95.6596 165.251 99.3961Z" fill="#F9F9F9" stroke="#DEDEDE" stroke-width="3" stroke-miterlimit="10"/>
<path d="M459.772 285.53C459.772 289.441 462.941 292.611 466.85 292.611C470.759 292.611 473.928 289.441 473.928 285.53C473.928 281.62 470.759 278.45 466.85 278.45C462.941 278.45 459.772 281.62 459.772 285.53Z" fill="#DEDEDE"/>
<path d="M287.355 251.529C287.355 256.739 291.577 260.962 296.785 260.962C301.993 260.962 306.215 256.739 306.215 251.529C306.215 246.319 301.993 242.096 296.785 242.096C291.577 242.096 287.355 246.319 287.355 251.529Z" fill="#F9F9F9" stroke="#DEDEDE" stroke-width="7" stroke-miterlimit="10"/>
<path d="M309.67 153.74C310.435 156.969 313.671 158.966 316.899 158.201C320.127 157.436 322.123 154.199 321.359 150.97C320.594 147.741 317.357 145.744 314.129 146.509C310.902 147.274 308.905 150.511 309.67 153.74Z" fill="#F9F9F9" stroke="#DEDEDE" stroke-width="5" stroke-miterlimit="10"/>
<path d="M317.394 87.1285C317.394 93.0494 322.192 97.8493 328.111 97.8493C334.03 97.8493 338.828 93.0494 338.828 87.1285C338.828 81.2076 334.03 76.4077 328.111 76.4077C322.192 76.4077 317.394 81.2076 317.394 87.1285Z" fill="#F9F9F9" stroke="#DEDEDE" stroke-width="3" stroke-miterlimit="10"/>
<path d="M322.283 87.1287C322.283 90.3482 324.893 92.9582 328.111 92.9582C331.33 92.9582 333.939 90.3482 333.939 87.1287C333.939 83.9092 331.33 81.2993 328.111 81.2993C324.893 81.2993 322.283 83.9092 322.283 87.1287Z" fill="#DEDEDE"/>
</g>
<defs>
<clipPath id="clip0_47_275">
<rect width="449" height="575" fill="white" transform="translate(575) rotate(90)"/>
</clipPath>
</defs>
</svg>
