<?xml version="1.0" encoding="UTF-8"?><svg xmlns="http://www.w3.org/2000/svg" viewBox="0 0 137.82 18.17"><path d="M5.05,14.22c-.94,0-1.79-.23-2.55-.69s-1.37-1.07-1.82-1.84c-.45-.77-.68-1.63-.68-2.58s.23-1.81,.68-2.58c.45-.77,1.06-1.38,1.84-1.83,.78-.45,1.65-.68,2.61-.68,.5,0,.97,.07,1.43,.2,.46,.13,.88,.33,1.28,.58V.74l2.61-.44V14.09h-2.57v-.82c-.81,.64-1.75,.95-2.82,.95Zm.42-2.23c.48,0,.92-.08,1.32-.24,.4-.16,.75-.4,1.04-.71v-3.87c-.29-.29-.64-.52-1.05-.69-.41-.16-.85-.25-1.32-.25-.55,0-1.04,.12-1.48,.37-.44,.25-.78,.59-1.04,1.03-.25,.44-.38,.93-.38,1.48s.13,1.04,.38,1.47c.25,.43,.6,.77,1.04,1.03s.93,.38,1.48,.38Z" fill="#a3bbda"/><path d="M13.78,2.97c-.41,0-.76-.15-1.05-.44-.29-.29-.44-.64-.44-1.05s.15-.77,.44-1.06c.29-.29,.64-.43,1.05-.43s.77,.14,1.06,.43c.29,.29,.43,.64,.43,1.06s-.14,.76-.43,1.05c-.29,.29-.64,.44-1.06,.44Zm-1.3,11.11V4.16h2.61V14.09h-2.61Z" fill="#a3bbda"/><path d="M22.13,18.17c-.76,0-1.5-.08-2.21-.24-.71-.16-1.35-.38-1.93-.68l.92-2.02c.55,.27,1.08,.46,1.6,.59,.52,.13,1.04,.19,1.56,.19,.78,0,1.36-.17,1.76-.5,.4-.33,.6-.83,.6-1.49v-.78c-.81,.6-1.72,.9-2.73,.9-.94,0-1.79-.23-2.54-.68-.76-.45-1.36-1.06-1.81-1.84-.45-.77-.68-1.63-.68-2.57s.23-1.79,.68-2.55c.45-.76,1.06-1.37,1.84-1.82,.78-.45,1.64-.68,2.59-.68,.48,0,.95,.07,1.41,.21,.46,.14,.88,.34,1.28,.59v-.65h2.57V14.07c0,1.31-.42,2.32-1.27,3.03-.85,.71-2.06,1.07-3.65,1.07Zm-.02-6.23c.48,0,.92-.08,1.32-.24,.39-.16,.73-.38,1.01-.68v-3.89c-.28-.28-.62-.5-1.02-.66-.4-.16-.83-.24-1.29-.24-.55,0-1.04,.12-1.47,.37-.43,.25-.78,.58-1.03,1.01-.25,.43-.38,.91-.38,1.44s.12,1.04,.37,1.47c.25,.43,.59,.78,1.03,1.03s.92,.38,1.46,.38Z" fill="#a3bbda"/><path d="M30.39,2.97c-.41,0-.76-.15-1.05-.44-.29-.29-.44-.64-.44-1.05s.15-.77,.44-1.06c.29-.29,.64-.43,1.05-.43s.77,.14,1.06,.43c.29,.29,.43,.64,.43,1.06s-.14,.76-.43,1.05c-.29,.29-.64,.44-1.06,.44Zm-1.3,11.11V4.16h2.61V14.09h-2.61Z" fill="#a3bbda"/><path d="M38.45,14.24c-1.11,0-1.94-.25-2.51-.75-.57-.5-.85-1.24-.85-2.2V6.33h-2.04v-2.17h2.04V1.62l2.61-.59v3.13h2.84v2.17h-2.84v4.42c0,.46,.1,.78,.3,.98,.2,.2,.56,.3,1.07,.3,.25,0,.49-.02,.7-.05s.44-.09,.7-.18v2.15c-.27,.09-.6,.16-1,.21-.4,.05-.74,.08-1.02,.08Z" fill="#a3bbda"/><path d="M44.99,14.26c-.71,0-1.34-.13-1.89-.39-.55-.26-.97-.62-1.28-1.08-.3-.46-.46-.98-.46-1.58,0-.95,.36-1.69,1.08-2.22,.72-.53,1.71-.79,2.96-.79,.86,0,1.68,.13,2.44,.4v-.72c0-.57-.18-1-.53-1.3-.36-.29-.88-.44-1.56-.44-.42,0-.87,.07-1.35,.2-.48,.13-1.04,.34-1.68,.62l-.95-1.93c.79-.36,1.54-.62,2.26-.8,.72-.18,1.44-.27,2.16-.27,1.33,0,2.37,.32,3.12,.96,.74,.64,1.12,1.55,1.12,2.72v6.44h-2.57v-.71c-.41,.3-.85,.53-1.32,.67-.47,.14-.98,.21-1.54,.21Zm-1.14-3.11c0,.38,.17,.68,.5,.91,.33,.22,.77,.33,1.32,.33,.43,0,.83-.05,1.2-.16,.37-.11,.7-.27,.99-.49v-1.45c-.32-.13-.65-.22-.99-.29-.34-.06-.71-.1-1.11-.1-.6,0-1.06,.11-1.4,.33-.34,.22-.51,.52-.51,.91Z" fill="#a3bbda"/><path d="M52.4,14.09V.74l2.61-.44V14.09h-2.61Z" fill="#a3bbda"/><path d="M60.89,14.09V4.16h2.61v.76c.71-.64,1.58-.95,2.59-.95,.65,0,1.23,.13,1.73,.39s.93,.63,1.26,1.1c.41-.48,.89-.85,1.44-1.11,.55-.25,1.17-.38,1.84-.38,.75,0,1.41,.17,1.97,.51,.57,.34,1.01,.8,1.33,1.39,.32,.59,.49,1.28,.49,2.07v6.16h-2.59v-5.78c0-.65-.17-1.16-.51-1.53-.34-.37-.8-.56-1.37-.56-.39,0-.75,.08-1.08,.25-.32,.17-.6,.41-.83,.74,.01,.11,.03,.23,.04,.34s.02,.24,.02,.38v6.16h-2.61v-5.78c0-.65-.17-1.16-.51-1.53-.34-.37-.79-.56-1.36-.56-.39,0-.75,.08-1.06,.23-.31,.15-.58,.38-.79,.69v6.96h-2.61Z" fill="#a3bbda"/><path d="M83,14.28c-.99,0-1.89-.23-2.7-.69s-1.45-1.07-1.92-1.85c-.47-.77-.71-1.65-.71-2.61s.23-1.84,.68-2.61c.45-.77,1.06-1.39,1.84-1.85,.77-.46,1.64-.69,2.59-.69s1.8,.24,2.54,.71c.74,.47,1.32,1.11,1.74,1.91,.43,.8,.64,1.71,.64,2.73v.69h-7.36c.11,.39,.3,.75,.56,1.07,.26,.32,.58,.57,.97,.74,.39,.18,.8,.27,1.25,.27s.85-.07,1.23-.21c.37-.14,.7-.34,.96-.59l1.72,1.56c-.61,.5-1.24,.86-1.88,1.09-.64,.23-1.36,.34-2.16,.34Zm-2.69-6.14h4.82c-.09-.39-.25-.74-.49-1.04-.23-.3-.51-.53-.84-.71-.32-.17-.68-.26-1.08-.26s-.78,.08-1.11,.25c-.33,.17-.61,.4-.83,.7-.22,.3-.38,.65-.49,1.06Z" fill="#a3bbda"/><path d="M93.98,14.22c-.94,0-1.79-.23-2.55-.69-.76-.46-1.37-1.07-1.82-1.84-.45-.77-.68-1.63-.68-2.58s.23-1.81,.68-2.58c.45-.77,1.06-1.38,1.84-1.83,.77-.45,1.65-.68,2.61-.68,.5,0,.97,.07,1.43,.2,.46,.13,.88,.33,1.28,.58V.74l2.61-.44V14.09h-2.57v-.82c-.81,.64-1.75,.95-2.82,.95Zm.42-2.23c.48,0,.92-.08,1.32-.24,.4-.16,.75-.4,1.04-.71v-3.87c-.29-.29-.64-.52-1.05-.69-.41-.16-.85-.25-1.32-.25-.55,0-1.04,.12-1.48,.37-.44,.25-.78,.59-1.04,1.03-.25,.44-.38,.93-.38,1.48s.13,1.04,.38,1.47c.25,.43,.6,.77,1.04,1.03s.93,.38,1.48,.38Z" fill="#a3bbda"/><path d="M102.71,2.97c-.41,0-.76-.15-1.05-.44-.29-.29-.44-.64-.44-1.05s.15-.77,.44-1.06c.29-.29,.64-.43,1.05-.43s.77,.14,1.06,.43c.29,.29,.43,.64,.43,1.06s-.14,.76-.43,1.05c-.29,.29-.64,.44-1.06,.44Zm-1.3,11.11V4.16h2.61V14.09h-2.61Z" fill="#a3bbda"/><path d="M109.23,14.26c-.71,0-1.34-.13-1.89-.39s-.97-.62-1.28-1.08c-.3-.46-.46-.98-.46-1.58,0-.95,.36-1.69,1.08-2.22,.72-.53,1.71-.79,2.96-.79,.86,0,1.68,.13,2.44,.4v-.72c0-.57-.18-1-.53-1.3-.36-.29-.88-.44-1.56-.44-.42,0-.87,.07-1.35,.2-.48,.13-1.04,.34-1.68,.62l-.95-1.93c.79-.36,1.54-.62,2.26-.8,.72-.18,1.44-.27,2.16-.27,1.33,0,2.37,.32,3.12,.96,.74,.64,1.11,1.55,1.11,2.72v6.44h-2.57v-.71c-.41,.3-.85,.53-1.32,.67s-.98,.21-1.54,.21Zm-1.14-3.11c0,.38,.17,.68,.5,.91,.33,.22,.77,.33,1.31,.33,.43,0,.83-.05,1.2-.16,.37-.11,.7-.27,.99-.49v-1.45c-.32-.13-.65-.22-.99-.29-.34-.06-.71-.1-1.11-.1-.6,0-1.06,.11-1.4,.33-.34,.22-.51,.52-.51,.91Z" fill="#a3bbda"/><path d="M121.07,14.24c-1.11,0-1.94-.25-2.51-.75-.57-.5-.85-1.24-.85-2.2V6.33h-2.04v-2.17h2.04V1.62l2.61-.59v3.13h2.84v2.17h-2.84v4.42c0,.46,.1,.78,.3,.98,.2,.2,.56,.3,1.07,.3,.25,0,.49-.02,.7-.05,.21-.03,.44-.09,.7-.18v2.15c-.27,.09-.6,.16-1,.21s-.74,.08-1.02,.08Z" fill="#a3bbda"/><path d="M129.19,14.28c-.99,0-1.89-.23-2.7-.69s-1.45-1.07-1.92-1.85c-.47-.77-.71-1.65-.71-2.61s.23-1.84,.68-2.61c.45-.77,1.06-1.39,1.84-1.85,.77-.46,1.64-.69,2.59-.69s1.8,.24,2.54,.71c.74,.47,1.32,1.11,1.74,1.91,.43,.8,.64,1.71,.64,2.73v.69h-7.36c.11,.39,.3,.75,.56,1.07,.26,.32,.58,.57,.97,.74,.39,.18,.8,.27,1.25,.27s.85-.07,1.23-.21c.37-.14,.7-.34,.96-.59l1.72,1.56c-.61,.5-1.24,.86-1.88,1.09-.64,.23-1.36,.34-2.16,.34Zm-2.69-6.14h4.82c-.09-.39-.25-.74-.49-1.04-.23-.3-.51-.53-.84-.71-.32-.17-.68-.26-1.08-.26s-.78,.08-1.11,.25c-.33,.17-.61,.4-.83,.7-.22,.3-.38,.65-.49,1.06Z" fill="#a3bbda"/><path d="M136.28,14.28c-.42,0-.78-.15-1.09-.46-.31-.3-.46-.67-.46-1.09s.15-.8,.46-1.11c.3-.31,.67-.46,1.09-.46s.78,.15,1.09,.46c.31,.3,.46,.67,.46,1.11s-.15,.78-.46,1.09c-.3,.31-.67,.46-1.09,.46Z" fill="#a3bbda"/></svg>