<svg width="293" height="98" viewBox="0 0 293 98" fill="none" xmlns="http://www.w3.org/2000/svg">
<g clip-path="url(#clip0_1_53)">
<path d="M2.5832 92.7142V97.8255H0.861069V84.7729H5.67805C7.11317 84.7729 8.22382 85.1345 9.03497 85.87C9.84612 86.5931 10.2455 87.5655 10.2455 88.7622C10.2455 90.0338 9.84612 91.0062 9.05993 91.6919C8.27374 92.3776 7.13813 92.7142 5.6531 92.7142H2.57072H2.5832ZM2.5832 91.3054H5.67805C6.60152 91.3054 7.30035 91.0935 7.79952 90.6572C8.28621 90.2208 8.5358 89.5975 8.5358 88.7747C8.5358 87.9519 8.28621 87.3785 7.79952 86.9047C7.31283 86.4435 6.63896 86.1941 5.77789 86.1817H2.5832V91.3054Z" fill="white"/>
<path d="M18.0824 97.8255C17.9826 97.6385 17.9077 97.2894 17.8453 96.8032C17.0716 97.6011 16.1481 98 15.0874 98C14.1265 98 13.3403 97.7257 12.7288 97.1897C12.1173 96.6536 11.8054 95.9679 11.8054 95.1327C11.8054 94.1229 12.1922 93.3375 12.9534 92.7765C13.7272 92.2155 14.8004 91.9412 16.1981 91.9412H17.8079V91.1808C17.8079 90.6073 17.6332 90.1336 17.2837 89.797C16.9343 89.4479 16.4227 89.2858 15.7488 89.2858C15.1623 89.2858 14.6631 89.4354 14.2638 89.7346C13.8644 90.0338 13.6648 90.3954 13.6648 90.8192H11.9925C11.9925 90.333 12.1673 89.8718 12.5042 89.423C12.8536 88.9742 13.3153 88.6126 13.9019 88.3509C14.4884 88.0891 15.1373 87.9519 15.8486 87.9519C16.9718 87.9519 17.8453 88.2262 18.4818 88.7872C19.1182 89.3482 19.4427 90.1211 19.4676 91.0935V95.5565C19.4676 96.4417 19.5799 97.1523 19.8045 97.6759V97.813H18.0699L18.0824 97.8255ZM15.337 96.5539C15.8611 96.5539 16.3478 96.4167 16.822 96.1549C17.2837 95.8807 17.6207 95.5316 17.8328 95.1077V93.1131H16.535C14.5009 93.1131 13.4901 93.7115 13.4901 94.8958C13.4901 95.4194 13.6648 95.8183 14.0142 96.1175C14.3636 96.4167 14.8004 96.5539 15.3495 96.5539H15.337Z" fill="white"/>
<path d="M27.7413 95.2449C27.7413 94.7961 27.5666 94.447 27.2297 94.1977C26.8928 93.9484 26.3062 93.7364 25.4576 93.5619C24.6215 93.3874 23.9477 93.163 23.461 92.9136C22.9618 92.6643 22.5999 92.3651 22.3628 92.016C22.1257 91.667 22.0134 91.2556 22.0134 90.7818C22.0134 89.984 22.3503 89.3108 23.0242 88.7622C23.6981 88.2137 24.5591 87.9395 25.6074 87.9395C26.7056 87.9395 27.6041 88.2262 28.2904 88.7872C28.9768 89.3606 29.3137 90.0837 29.3137 90.9688H27.6415C27.6415 90.5076 27.4418 90.1211 27.0675 89.797C26.6931 89.4728 26.1939 89.2983 25.6074 89.2983C25.0209 89.2983 24.5342 89.4354 24.1848 89.6972C23.8478 89.959 23.6731 90.3081 23.6731 90.732C23.6731 91.1309 23.8353 91.4301 24.1473 91.642C24.4593 91.8415 25.0333 92.041 25.8695 92.228C26.7056 92.415 27.367 92.6394 27.8786 92.8887C28.3903 93.1505 28.7771 93.4497 29.0267 93.8112C29.2763 94.1728 29.4011 94.6091 29.4011 95.1327C29.4011 95.9929 29.0517 96.691 28.3653 97.2146C27.6789 97.7382 26.768 98 25.6698 98C24.8961 98 24.2097 97.8629 23.6107 97.5886C23.0117 97.3143 22.55 96.9279 22.213 96.4417C21.8761 95.943 21.7014 95.4194 21.7014 94.846H23.3611C23.3861 95.407 23.6107 95.8433 24.035 96.1674C24.4468 96.4915 24.9959 96.6536 25.6823 96.6536C26.3062 96.6536 26.8179 96.5289 27.1923 96.2671C27.5666 96.0178 27.7663 95.6812 27.7663 95.2574L27.7413 95.2449Z" fill="white"/>
<path d="M37.2131 95.2449C37.2131 94.7961 37.0384 94.447 36.7014 94.1977C36.3645 93.9484 35.778 93.7364 34.9294 93.5619C34.0933 93.3874 33.4194 93.163 32.9327 92.9136C32.4335 92.6643 32.0716 92.3651 31.8345 92.016C31.5974 91.667 31.4851 91.2556 31.4851 90.7818C31.4851 89.984 31.822 89.3108 32.4959 88.7622C33.1698 88.2137 34.0309 87.9395 35.0791 87.9395C36.1773 87.9395 37.0758 88.2262 37.7622 88.7872C38.4485 89.3606 38.7855 90.0837 38.7855 90.9688H37.1132C37.1132 90.5076 36.9136 90.1211 36.5392 89.797C36.1648 89.4728 35.6657 89.2983 35.0791 89.2983C34.4926 89.2983 34.0059 89.4354 33.6565 89.6972C33.3196 89.959 33.1448 90.3081 33.1448 90.732C33.1448 91.1309 33.3071 91.4301 33.6191 91.642C33.931 91.8415 34.5051 92.041 35.3412 92.228C36.1773 92.415 36.8387 92.6394 37.3503 92.8887C37.862 93.1505 38.2489 93.4497 38.4984 93.8112C38.748 94.1728 38.8728 94.6091 38.8728 95.1327C38.8728 95.9929 38.5234 96.691 37.837 97.2146C37.1507 97.7382 36.2397 98 35.1415 98C34.3678 98 33.6815 97.8629 33.0825 97.5886C32.4834 97.3143 32.0217 96.9279 31.6848 96.4417C31.3478 95.943 31.1731 95.4194 31.1731 94.846H32.8329C32.8578 95.407 33.0825 95.8433 33.5067 96.1674C33.9186 96.4915 34.4676 96.6536 35.154 96.6536C35.778 96.6536 36.2896 96.5289 36.664 96.2671C37.0384 96.0178 37.238 95.6812 37.238 95.2574L37.2131 95.2449Z" fill="white"/>
<path d="M41.0442 85.5583C41.0442 85.2841 41.1316 85.0597 41.2938 84.8727C41.456 84.6857 41.7056 84.5984 42.0176 84.5984C42.3296 84.5984 42.5916 84.6857 42.7539 84.8727C42.9161 85.0597 43.0035 85.2841 43.0035 85.5583C43.0035 85.8326 42.9161 86.057 42.7539 86.2315C42.5916 86.4061 42.3421 86.5058 42.0176 86.5058C41.6931 86.5058 41.456 86.4185 41.2938 86.2315C41.1316 86.057 41.0442 85.8326 41.0442 85.5583ZM42.8288 97.8255H41.169V88.1265H42.8288V97.8255Z" fill="white"/>
<path d="M45.05 92.8887C45.05 91.9412 45.2372 91.081 45.6116 90.3206C45.986 89.5601 46.5101 88.9742 47.1715 88.5628C47.8329 88.1514 48.5942 87.9395 49.4552 87.9395C50.778 87.9395 51.8388 88.4007 52.6624 89.3108C53.4735 90.2208 53.8854 91.4426 53.8854 92.951V93.0632C53.8854 94.0107 53.7106 94.8584 53.3363 95.6064C52.9744 96.3544 52.4627 96.9403 51.7888 97.3642C51.115 97.7881 50.3412 97.9875 49.4677 97.9875C48.1574 97.9875 47.0842 97.5263 46.273 96.6162C45.4619 95.7061 45.05 94.4969 45.05 92.9884V92.8762V92.8887ZM46.7223 93.0757C46.7223 94.1478 46.9719 95.0205 47.471 95.6687C47.9702 96.317 48.6441 96.6411 49.4802 96.6411C50.3163 96.6411 50.9902 96.317 51.4893 95.6563C51.9885 94.9956 52.2381 94.073 52.2381 92.8887C52.2381 91.829 51.9885 90.9688 51.4769 90.3081C50.9652 89.6474 50.3038 89.3232 49.4677 89.3232C48.6316 89.3232 47.9827 89.6474 47.4835 90.2956C46.9843 90.9439 46.7347 91.8789 46.7347 93.0882L46.7223 93.0757Z" fill="white"/>
<path d="M57.5293 88.1265L57.5792 89.3482C58.3155 88.4132 59.2889 87.9519 60.4869 87.9519C62.5335 87.9519 63.5692 89.1113 63.5942 91.4176V97.8255H61.9345V91.4052C61.9345 90.707 61.7722 90.1834 61.4602 89.8593C61.1483 89.5352 60.6616 89.3606 59.9877 89.3606C59.4511 89.3606 58.9769 89.4978 58.5775 89.7845C58.1782 90.0712 57.8537 90.4452 57.6291 90.919V97.8255H55.9694V88.1265H57.5418H57.5293Z" fill="white"/>
<path d="M70.1208 98C68.8105 98 67.7373 97.5637 66.9137 96.7035C66.09 95.8433 65.6782 94.6839 65.6782 93.2378V92.9386C65.6782 91.9786 65.8654 91.1184 66.2273 90.358C66.6017 89.5975 67.1133 89.0116 67.7747 88.5877C68.4361 88.1638 69.1474 87.9519 69.9212 87.9519C71.1816 87.9519 72.1674 88.3633 72.8663 89.1986C73.5651 90.0338 73.9145 91.2182 73.9145 92.764V93.4497H67.338C67.3629 94.4096 67.6375 95.1825 68.1741 95.7685C68.7107 96.3544 69.3846 96.6536 70.2207 96.6536C70.8072 96.6536 71.3064 96.5289 71.7057 96.2921C72.1175 96.0552 72.4669 95.7311 72.7789 95.3446L73.7897 96.13C72.9786 97.3767 71.7556 98 70.1333 98H70.1208ZM69.9212 89.3108C69.2473 89.3108 68.6857 89.5601 68.2365 90.0463C67.7872 90.5325 67.5002 91.2182 67.3879 92.0908H72.2548V91.9662C72.2049 91.1184 71.9802 90.4702 71.5684 90.0089C71.1566 89.5476 70.6075 89.3108 69.9212 89.3108Z" fill="white"/>
<path d="M75.4245 92.8887C75.4245 91.4052 75.7739 90.2084 76.4852 89.2983C77.1966 88.3882 78.12 87.9395 79.2556 87.9395C80.3912 87.9395 81.2897 88.3259 81.9511 89.0988V84.0499H83.6109V97.813H82.0884L82.0135 96.7783C81.3521 97.5886 80.4287 98 79.2431 98C78.0576 98 77.1966 97.5387 76.4977 96.6162C75.7864 95.6937 75.437 94.4969 75.437 93.0134V92.8887H75.4245ZM77.0842 93.0757C77.0842 94.1728 77.3089 95.033 77.7706 95.6563C78.2323 96.2796 78.8563 96.5913 79.655 96.5913C80.7032 96.5913 81.4769 96.1175 81.9636 95.1825V90.732C81.4645 89.8219 80.7032 89.3606 79.6799 89.3606C78.8688 89.3606 78.2323 89.6723 77.7831 90.3081C77.3338 90.9314 77.0967 91.8664 77.0967 93.0882L77.0842 93.0757Z" fill="white"/>
<path d="M96.7266 97.8255C96.6267 97.6385 96.5519 97.2894 96.4895 96.8032C95.7158 97.6011 94.7923 98 93.7316 98C92.7707 98 91.9845 97.7257 91.373 97.1897C90.7615 96.6536 90.4495 95.9679 90.4495 95.1327C90.4495 94.1229 90.8364 93.3375 91.5976 92.7765C92.3713 92.2155 93.4445 91.9412 94.8422 91.9412H96.452V91.1808C96.452 90.6073 96.2773 90.1336 95.9279 89.797C95.5785 89.4479 95.0668 89.2858 94.393 89.2858C93.8064 89.2858 93.3073 89.4354 92.9079 89.7346C92.5086 90.0338 92.3089 90.3954 92.3089 90.8192H90.6367C90.6367 90.333 90.8114 89.8718 91.1484 89.423C91.4978 88.9742 91.9595 88.6126 92.546 88.3509C93.1326 88.0891 93.7815 87.9519 94.4928 87.9519C95.6159 87.9519 96.4895 88.2262 97.1259 88.7872C97.7624 89.3482 98.0868 90.1211 98.1118 91.0935V95.5565C98.1118 96.4417 98.2241 97.1523 98.4487 97.6759V97.813H96.7141L96.7266 97.8255ZM93.9811 96.5539C94.5053 96.5539 94.992 96.4167 95.4662 96.1549C95.9279 95.8807 96.2648 95.5316 96.477 95.1077V93.1131H95.1791C93.145 93.1131 92.1342 93.7115 92.1342 94.8958C92.1342 95.4194 92.3089 95.8183 92.6583 96.1175C93.0078 96.4167 93.4445 96.5539 93.9936 96.5539H93.9811Z" fill="white"/>
<path d="M106.722 96.8655C106.074 97.626 105.125 98 103.877 98C102.841 98 102.055 97.7008 101.519 97.1024C100.982 96.504 100.707 95.6189 100.695 94.4345V88.1264H102.355V94.3847C102.355 95.8557 102.954 96.5913 104.152 96.5913C105.425 96.5913 106.261 96.1175 106.685 95.1825V88.1264H108.345V97.8255H106.772L106.735 96.8655H106.722Z" fill="white"/>
<path d="M113.112 85.7827V88.1265H114.921V89.4105H113.112V95.4319C113.112 95.8183 113.187 96.1175 113.349 96.3045C113.511 96.504 113.786 96.5913 114.173 96.5913C114.36 96.5913 114.622 96.5539 114.959 96.4791V97.813C114.522 97.9252 114.098 97.9875 113.686 97.9875C112.95 97.9875 112.388 97.7631 112.014 97.3143C111.639 96.8655 111.452 96.2297 111.452 95.4069V89.398H109.68V88.114H111.452V85.7703H113.112V85.7827Z" fill="white"/>
<path d="M116.244 92.8887C116.244 91.9412 116.431 91.081 116.806 90.3206C117.18 89.5601 117.704 88.9742 118.366 88.5628C119.027 88.1514 119.788 87.9395 120.649 87.9395C121.972 87.9395 123.033 88.4007 123.856 89.3108C124.668 90.2208 125.079 91.4426 125.079 92.951V93.0632C125.079 94.0107 124.905 94.8584 124.53 95.6064C124.168 96.3544 123.657 96.9403 122.983 97.3642C122.309 97.7881 121.535 97.9875 120.662 97.9875C119.351 97.9875 118.278 97.5263 117.467 96.6162C116.656 95.7061 116.244 94.4969 116.244 92.9884V92.8762V92.8887ZM117.904 93.0757C117.904 94.1478 118.153 95.0205 118.653 95.6687C119.152 96.317 119.826 96.6411 120.662 96.6411C121.498 96.6411 122.172 96.317 122.671 95.6563C123.17 94.9956 123.42 94.073 123.42 92.8887C123.42 91.829 123.17 90.9688 122.658 90.3081C122.147 89.6474 121.485 89.3232 120.649 89.3232C119.813 89.3232 119.164 89.6474 118.665 90.2956C118.166 90.9439 117.916 91.8789 117.916 93.0882L117.904 93.0757Z" fill="white"/>
<path d="M128.711 88.1265L128.748 89.1986C129.46 88.3633 130.421 87.9395 131.631 87.9395C132.991 87.9395 133.915 88.4631 134.401 89.4978C134.726 89.0365 135.15 88.65 135.662 88.3633C136.173 88.0766 136.785 87.9395 137.496 87.9395C139.63 87.9395 140.703 89.0614 140.741 91.3179V97.813H139.081V91.4176C139.081 90.7195 138.919 90.2084 138.607 89.8593C138.295 89.5102 137.758 89.3482 137.01 89.3482C136.398 89.3482 135.886 89.5352 135.475 89.8967C135.063 90.2707 134.826 90.7569 134.763 91.3802V97.813H133.091V91.455C133.091 90.0463 132.405 89.3357 131.02 89.3357C129.934 89.3357 129.185 89.797 128.786 90.7195V97.8005H127.126V88.1015H128.698L128.711 88.1265Z" fill="white"/>
<path d="M149.252 97.8255C149.152 97.6385 149.077 97.2894 149.015 96.8032C148.241 97.6011 147.317 98 146.257 98C145.296 98 144.51 97.7257 143.898 97.1897C143.287 96.6536 142.975 95.9679 142.975 95.1327C142.975 94.1229 143.361 93.3375 144.123 92.7765C144.896 92.2155 145.97 91.9412 147.367 91.9412H148.977V91.1808C148.977 90.6073 148.802 90.1336 148.453 89.797C148.104 89.4479 147.592 89.2858 146.918 89.2858C146.332 89.2858 145.832 89.4354 145.433 89.7346C145.034 90.0338 144.834 90.3954 144.834 90.8192H143.162C143.162 90.333 143.337 89.8718 143.673 89.423C144.023 88.9742 144.485 88.6126 145.071 88.3509C145.658 88.0891 146.307 87.9519 147.018 87.9519C148.141 87.9519 149.015 88.2262 149.651 88.7872C150.287 89.3482 150.612 90.1211 150.637 91.0935V95.5565C150.637 96.4417 150.749 97.1523 150.974 97.6759V97.813H149.239L149.252 97.8255ZM146.494 96.5539C147.018 96.5539 147.505 96.4167 147.979 96.1549C148.441 95.8807 148.777 95.5316 148.99 95.1077V93.1131H147.692C145.658 93.1131 144.647 93.7115 144.647 94.8958C144.647 95.4194 144.822 95.8183 145.171 96.1175C145.52 96.4167 145.957 96.5539 146.506 96.5539H146.494Z" fill="white"/>
<path d="M155.504 85.7827V88.1265H157.313V89.4105H155.504V95.4319C155.504 95.8183 155.579 96.1175 155.741 96.3045C155.903 96.504 156.178 96.5913 156.564 96.5913C156.752 96.5913 157.014 96.5539 157.351 96.4791V97.813C156.914 97.9252 156.49 97.9875 156.078 97.9875C155.342 97.9875 154.78 97.7631 154.406 97.3143C154.031 96.8655 153.844 96.2297 153.844 95.4069V89.398H152.072V88.114H153.844V85.7703H155.504V85.7827Z" fill="white"/>
<path d="M159.26 85.5583C159.26 85.2841 159.347 85.0597 159.51 84.8727C159.672 84.6857 159.921 84.5984 160.233 84.5984C160.545 84.5984 160.807 84.6857 160.97 84.8727C161.132 85.0597 161.219 85.2841 161.219 85.5583C161.219 85.8326 161.132 86.057 160.97 86.2315C160.807 86.4061 160.558 86.5058 160.233 86.5058C159.909 86.5058 159.672 86.4185 159.51 86.2315C159.347 86.057 159.26 85.8326 159.26 85.5583ZM161.057 97.8255H159.397V88.1265H161.057V97.8255Z" fill="white"/>
<path d="M163.266 92.8887C163.266 91.9412 163.453 91.081 163.827 90.3206C164.202 89.5601 164.726 88.9742 165.387 88.5628C166.049 88.1514 166.81 87.9395 167.671 87.9395C168.994 87.9395 170.055 88.4007 170.878 89.3108C171.689 90.2208 172.101 91.4426 172.101 92.951V93.0632C172.101 94.0107 171.926 94.8584 171.552 95.6064C171.19 96.3544 170.679 96.9403 170.005 97.3642C169.331 97.7881 168.557 97.9875 167.684 97.9875C166.373 97.9875 165.3 97.5263 164.489 96.6162C163.678 95.7061 163.266 94.4969 163.266 92.9884V92.8762V92.8887ZM164.938 93.0757C164.938 94.1478 165.188 95.0205 165.687 95.6687C166.186 96.317 166.86 96.6411 167.696 96.6411C168.532 96.6411 169.206 96.317 169.705 95.6563C170.204 94.9956 170.454 94.073 170.454 92.8887C170.454 91.829 170.204 90.9688 169.693 90.3081C169.181 89.6474 168.52 89.3232 167.684 89.3232C166.847 89.3232 166.198 89.6474 165.699 90.2956C165.2 90.9439 164.951 91.8789 164.951 93.0882L164.938 93.0757Z" fill="white"/>
<path d="M175.758 88.1265L175.807 89.3482C176.544 88.4132 177.517 87.9519 178.715 87.9519C180.762 87.9519 181.798 89.1113 181.822 91.4176V97.8255H180.163V91.4052C180.163 90.707 180.001 90.1834 179.689 89.8593C179.377 89.5352 178.89 89.3606 178.216 89.3606C177.679 89.3606 177.205 89.4978 176.806 89.7845C176.406 90.0712 176.082 90.4452 175.857 90.919V97.8255H174.198V88.1265H175.77H175.758Z" fill="white"/>
<path d="M188.511 94.3223C188.511 93.699 188.686 93.1255 189.035 92.5895C189.385 92.0659 190.059 91.455 191.045 90.7569C190.458 90.0463 190.071 89.4853 189.884 89.049C189.684 88.6251 189.585 88.1888 189.585 87.7649C189.585 86.78 189.872 85.9946 190.458 85.4337C191.045 84.8727 191.843 84.5859 192.842 84.5859C193.74 84.5859 194.476 84.8477 195.063 85.3713C195.649 85.8949 195.937 86.5556 195.937 87.341C195.937 87.8646 195.799 88.3508 195.537 88.7996C195.275 89.2484 194.813 89.7097 194.14 90.1959L193.179 90.9065L196.086 94.3722C196.498 93.5993 196.698 92.7266 196.698 91.7792H198.195C198.195 93.3001 197.833 94.5717 197.097 95.569L198.956 97.8005H196.972L196.099 96.7658C195.649 97.1647 195.138 97.4639 194.539 97.6634C193.94 97.8629 193.341 97.9751 192.729 97.9751C191.456 97.9751 190.433 97.6385 189.659 96.9653C188.886 96.2921 188.499 95.3945 188.499 94.2974L188.511 94.3223ZM192.742 96.6536C193.615 96.6536 194.427 96.317 195.15 95.6438L191.968 91.8415L191.669 92.0534C190.67 92.7889 190.171 93.5494 190.171 94.3223C190.171 95.0329 190.396 95.5939 190.857 96.0178C191.319 96.4417 191.943 96.6536 192.742 96.6536ZM191.244 87.715C191.244 88.2885 191.594 88.9991 192.305 89.8718L193.366 89.1238C193.778 88.837 194.052 88.5628 194.202 88.301C194.352 88.0392 194.427 87.7275 194.427 87.3535C194.427 86.9546 194.277 86.618 193.977 86.3562C193.678 86.0944 193.303 85.9572 192.842 85.9572C192.355 85.9572 191.968 86.1193 191.681 86.4559C191.394 86.7925 191.257 87.2039 191.257 87.715H191.244Z" fill="white"/>
<path d="M208.853 98C207.542 98 206.469 97.5637 205.645 96.7035C204.822 95.8433 204.41 94.6839 204.41 93.2378V92.9386C204.41 91.9786 204.597 91.1184 204.959 90.358C205.333 89.5975 205.845 89.0116 206.506 88.5877C207.168 88.1638 207.879 87.9519 208.653 87.9519C209.913 87.9519 210.899 88.3633 211.598 89.1986C212.297 90.0338 212.646 91.2182 212.646 92.764V93.4497H206.07C206.095 94.4096 206.369 95.1825 206.906 95.7685C207.442 96.3544 208.116 96.6536 208.952 96.6536C209.539 96.6536 210.038 96.5289 210.437 96.2921C210.849 96.0552 211.199 95.7311 211.511 95.3446L212.521 96.13C211.71 97.3767 210.487 98 208.865 98H208.853ZM208.653 89.3108C207.979 89.3108 207.417 89.5601 206.968 90.0463C206.519 90.5325 206.232 91.2182 206.12 92.0908H210.986V91.9662C210.937 91.1184 210.712 90.4702 210.3 90.0089C209.888 89.5476 209.339 89.3108 208.653 89.3108Z" fill="white"/>
<path d="M216.365 97.8255H214.705V84.0623H216.365V97.8255Z" fill="white"/>
<path d="M223.054 98C221.744 98 220.67 97.5637 219.847 96.7035C219.023 95.8433 218.611 94.6839 218.611 93.2378V92.9386C218.611 91.9786 218.798 91.1184 219.16 90.358C219.535 89.5975 220.046 89.0116 220.708 88.5877C221.369 88.1638 222.081 87.9519 222.854 87.9519C224.115 87.9519 225.1 88.3633 225.799 89.1986C226.498 90.0338 226.848 91.2182 226.848 92.764V93.4497H220.271C220.296 94.4096 220.571 95.1825 221.107 95.7685C221.644 96.3544 222.318 96.6536 223.154 96.6536C223.74 96.6536 224.239 96.5289 224.639 96.2921C225.051 96.0552 225.4 95.7311 225.712 95.3446L226.723 96.13C225.912 97.3767 224.689 98 223.066 98H223.054ZM222.842 89.3108C222.168 89.3108 221.606 89.5601 221.157 90.0463C220.708 90.5325 220.421 91.2182 220.308 92.0908H225.175V91.9662C225.125 91.1184 224.901 90.4702 224.489 90.0089C224.077 89.5476 223.528 89.3108 222.842 89.3108Z" fill="white"/>
<path d="M232.65 96.6536C233.237 96.6536 233.761 96.4791 234.198 96.1175C234.635 95.756 234.884 95.3072 234.934 94.7711H236.507C236.482 95.3321 236.282 95.8557 235.932 96.3544C235.583 96.8531 235.109 97.252 234.522 97.5512C233.936 97.8504 233.312 98 232.65 98C231.328 98 230.279 97.5637 229.493 96.6785C228.707 95.7934 228.32 94.5966 228.32 93.0632V92.789C228.32 91.8415 228.495 91.0062 228.844 90.2707C229.194 89.5352 229.693 88.9617 230.342 88.5628C230.991 88.1514 231.752 87.9519 232.638 87.9519C233.724 87.9519 234.635 88.276 235.358 88.9243C236.082 89.5726 236.457 90.4203 236.507 91.455H234.934C234.884 90.8317 234.647 90.3081 234.223 89.9092C233.799 89.5102 233.262 89.2983 232.638 89.2983C231.789 89.2983 231.14 89.5975 230.679 90.2084C230.217 90.8192 229.98 91.6919 229.98 92.8388V93.1505C229.98 94.2725 230.204 95.1327 230.666 95.7311C231.128 96.3295 231.789 96.6411 232.638 96.6411L232.65 96.6536Z" fill="white"/>
<path d="M240.625 85.7827V88.1265H242.434V89.4105H240.625V95.4319C240.625 95.8183 240.7 96.1175 240.862 96.3045C241.024 96.504 241.299 96.5913 241.685 96.5913C241.873 96.5913 242.135 96.5539 242.472 96.4791V97.813C242.035 97.9252 241.611 97.9875 241.199 97.9875C240.462 97.9875 239.901 97.7631 239.526 97.3143C239.152 96.8655 238.965 96.2297 238.965 95.4069V89.398H237.193V88.114H238.965V85.7703H240.625V85.7827Z" fill="white"/>
<path d="M249.061 89.61C248.811 89.5726 248.536 89.5476 248.249 89.5476C247.164 89.5476 246.427 90.0089 246.028 90.9314V97.813H244.368V88.114H245.978L246.003 89.236C246.552 88.3633 247.313 87.9395 248.312 87.9395C248.636 87.9395 248.886 87.9769 249.048 88.0641V89.61H249.061Z" fill="white"/>
<path d="M249.972 92.8887C249.972 91.9412 250.159 91.081 250.533 90.3206C250.908 89.5601 251.432 88.9742 252.093 88.5628C252.754 88.1514 253.516 87.9395 254.377 87.9395C255.7 87.9395 256.76 88.4007 257.584 89.3108C258.395 90.2208 258.807 91.4426 258.807 92.951V93.0632C258.807 94.0107 258.632 94.8584 258.258 95.6064C257.896 96.3544 257.384 96.9403 256.71 97.3642C256.037 97.7881 255.263 97.9875 254.389 97.9875C253.079 97.9875 252.006 97.5263 251.195 96.6162C250.383 95.7061 249.972 94.4969 249.972 92.9884V92.8762V92.8887ZM251.631 93.0757C251.631 94.1478 251.881 95.0205 252.38 95.6687C252.879 96.317 253.553 96.6411 254.389 96.6411C255.225 96.6411 255.899 96.317 256.398 95.6563C256.898 94.9956 257.147 94.073 257.147 92.8887C257.147 91.829 256.898 90.9688 256.386 90.3081C255.874 89.6474 255.213 89.3232 254.377 89.3232C253.541 89.3232 252.892 89.6474 252.393 90.2956C251.893 90.9439 251.644 91.8789 251.644 93.0882L251.631 93.0757Z" fill="white"/>
<path d="M262.451 88.1265L262.501 89.3482C263.237 88.4132 264.21 87.9519 265.408 87.9519C267.455 87.9519 268.491 89.1113 268.516 91.4176V97.8255H266.856V91.4052C266.856 90.707 266.694 90.1834 266.382 89.8593C266.07 89.5352 265.583 89.3606 264.909 89.3606C264.373 89.3606 263.898 89.4978 263.499 89.7845C263.1 90.0712 262.775 90.4452 262.551 90.919V97.8255H260.891V88.1265H262.463H262.451Z" fill="white"/>
<path d="M271.024 85.5583C271.024 85.2841 271.111 85.0597 271.274 84.8727C271.436 84.6857 271.685 84.5984 271.997 84.5984C272.309 84.5984 272.571 84.6857 272.734 84.8727C272.896 85.0597 272.983 85.2841 272.983 85.5583C272.983 85.8326 272.896 86.057 272.734 86.2315C272.571 86.4061 272.322 86.5058 271.997 86.5058C271.673 86.5058 271.436 86.4185 271.274 86.2315C271.111 86.057 271.024 85.8326 271.024 85.5583ZM272.821 97.8255H271.161V88.1265H272.821V97.8255Z" fill="white"/>
<path d="M279.373 96.6536C279.959 96.6536 280.483 96.4791 280.92 96.1175C281.357 95.756 281.606 95.3072 281.656 94.7711H283.229C283.204 95.3321 283.004 95.8557 282.655 96.3544C282.305 96.8531 281.831 97.252 281.245 97.5512C280.658 97.8504 280.034 98 279.373 98C278.05 98 277.002 97.5637 276.215 96.6785C275.429 95.7934 275.042 94.5966 275.042 93.0632V92.789C275.042 91.8415 275.217 91.0062 275.567 90.2707C275.916 89.5352 276.415 88.9617 277.064 88.5628C277.713 88.1514 278.474 87.9519 279.36 87.9519C280.446 87.9519 281.357 88.276 282.081 88.9243C282.804 89.5726 283.179 90.4203 283.229 91.455H281.656C281.606 90.8317 281.369 90.3081 280.945 89.9092C280.521 89.5102 279.984 89.2983 279.36 89.2983C278.512 89.2983 277.863 89.5975 277.401 90.2084C276.939 90.8192 276.702 91.6919 276.702 92.8388V93.1505C276.702 94.2725 276.927 95.1327 277.388 95.7311C277.85 96.3295 278.512 96.6411 279.36 96.6411L279.373 96.6536Z" fill="white"/>
<path d="M290.741 95.2449C290.741 94.7961 290.567 94.447 290.23 94.1977C289.893 93.9484 289.306 93.7364 288.458 93.5619C287.621 93.3874 286.948 93.163 286.461 92.9136C285.962 92.6643 285.6 92.3651 285.363 92.016C285.126 91.667 285.013 91.2556 285.013 90.7818C285.013 89.984 285.35 89.3108 286.024 88.7622C286.698 88.2137 287.559 87.9395 288.607 87.9395C289.705 87.9395 290.604 88.2262 291.29 88.7872C291.977 89.3606 292.314 90.0837 292.314 90.9688H290.641C290.641 90.5076 290.442 90.1211 290.067 89.797C289.693 89.4728 289.194 89.2983 288.607 89.2983C288.021 89.2983 287.534 89.4354 287.185 89.6972C286.848 89.959 286.673 90.3081 286.673 90.732C286.673 91.1309 286.835 91.4301 287.147 91.642C287.459 91.8415 288.033 92.041 288.869 92.228C289.705 92.415 290.367 92.6394 290.879 92.8887C291.39 93.1505 291.777 93.4497 292.027 93.8112C292.276 94.1728 292.401 94.6091 292.401 95.1327C292.401 95.9929 292.052 96.691 291.365 97.2146C290.679 97.7382 289.768 98 288.67 98C287.896 98 287.21 97.8629 286.611 97.5886C286.012 97.3143 285.55 96.9279 285.213 96.4417C284.876 95.943 284.701 95.4194 284.701 94.846H286.361C286.386 95.407 286.611 95.8433 287.035 96.1674C287.447 96.4915 287.996 96.6536 288.682 96.6536C289.306 96.6536 289.818 96.5289 290.192 96.2671C290.567 96.0178 290.766 95.6812 290.766 95.2574L290.741 95.2449Z" fill="white"/>
<path d="M4.70467 15.2217C2.10899 15.2217 0 17.3286 0 19.9216V63.2805C0 65.8736 2.10899 67.9804 4.70467 67.9804C7.30035 67.9804 9.40934 65.8736 9.40934 63.2805V19.9216C9.40934 17.3286 7.30035 15.2217 4.70467 15.2217Z" fill="white"/>
<path d="M174.347 15.2217C171.752 15.2217 169.643 17.3286 169.643 19.9216V63.2805C169.643 65.8736 171.752 67.9804 174.347 67.9804C176.943 67.9804 179.052 65.8736 179.052 63.2805V19.9216C179.052 17.3286 176.943 15.2217 174.347 15.2217Z" fill="white"/>
<path d="M225.587 15.2217C222.992 15.2217 220.883 17.3286 220.883 19.9216V63.2805C220.883 65.8736 222.992 67.9804 225.587 67.9804C228.183 67.9804 230.292 65.8736 230.292 63.2805V19.9216C230.292 17.3286 228.183 15.2217 225.587 15.2217Z" fill="white"/>
<path d="M187.9 45.8647H206.706C209.302 45.8647 211.411 43.7578 211.411 41.1647C211.411 38.5717 209.302 36.4648 206.706 36.4648H187.9C185.304 36.4648 183.195 38.5717 183.195 41.1647C183.195 43.7578 185.304 45.8647 187.9 45.8647Z" fill="white"/>
<path d="M206.706 16.2315H187.9C185.304 16.2315 183.195 18.3384 183.195 20.9314C183.195 23.5245 185.304 25.6313 187.9 25.6313H206.706C209.302 25.6313 211.411 23.5245 211.411 20.9314C211.411 18.3384 209.302 16.2315 206.706 16.2315Z" fill="white"/>
<path d="M206.706 58.1318H187.9C185.304 58.1318 183.195 60.2386 183.195 62.8317C183.195 65.4248 185.304 67.5316 187.9 67.5316H206.706C209.302 67.5316 211.411 65.4248 211.411 62.8317C211.411 60.2386 209.302 58.1318 206.706 58.1318Z" fill="white"/>
<path d="M25.1956 32.6625H18.7812C16.1856 32.6625 14.0766 34.7694 14.0766 37.3624C14.0766 39.9555 16.1856 42.0623 18.7812 42.0623H25.1956C32.5958 42.0623 38.6232 36.041 38.6232 28.6483C38.6232 21.2556 32.5958 15.2342 25.1956 15.2342H18.7812C16.1856 15.2342 14.0766 17.341 14.0766 19.9341C14.0766 22.5272 16.1856 24.634 18.7812 24.634H25.1956C27.4169 24.634 29.2264 26.4417 29.2264 28.6607C29.2264 30.8798 27.4169 32.6874 25.1956 32.6874V32.6625Z" fill="white"/>
<path d="M37.6748 40.1923C35.3662 41.3891 34.4676 44.2191 35.6657 46.5254C36.2771 47.6972 36.5891 48.9813 36.5891 50.3277C36.5891 54.878 32.8828 58.5931 28.3154 58.5931H18.7812C16.1856 58.5931 14.0766 60.6999 14.0766 63.293C14.0766 65.886 16.1856 67.9929 18.7812 67.9929H28.3154C38.0617 67.9929 45.986 60.0766 45.986 50.3402C45.986 47.5102 45.2996 44.7053 44.0018 42.2119C42.8038 39.9056 39.971 39.008 37.6623 40.2048L37.6748 40.1923Z" fill="white"/>
<path d="M72.3172 25.569C74.7381 24.6465 75.9611 21.9288 75.0376 19.5102C74.1142 17.0793 71.3937 15.8825 68.9727 16.7925C58.877 20.6447 52.0883 30.4809 52.0883 41.2769C52.0883 52.073 58.4527 61.4354 68.3113 65.4996C68.8979 65.7364 69.5093 65.8611 70.1084 65.8611C71.9553 65.8611 73.7024 64.764 74.4511 62.9564C75.437 60.5628 74.3014 57.8077 71.9054 56.8228C65.5784 54.2173 61.4977 48.1086 61.4977 41.2769C61.4977 34.4452 65.8529 28.0374 72.3297 25.569H72.3172Z" fill="white"/>
<path d="M86.8181 16.4933C84.3596 15.6581 81.6891 16.9671 80.8405 19.4105C80.0044 21.8664 81.3147 24.5343 83.7606 25.382C90.5618 27.7133 95.1292 34.0962 95.1292 41.2769C95.1292 48.4577 90.462 55.0027 83.5111 57.2591C81.0402 58.057 79.6924 60.7124 80.4911 63.1808C81.14 65.163 82.9745 66.4346 84.9586 66.4346C85.4453 66.4346 85.932 66.3597 86.4187 66.1977C97.2507 62.6821 104.539 52.659 104.539 41.2769C104.539 29.8949 97.4129 20.1211 86.8181 16.4933Z" fill="white"/>
<path d="M150.425 52.7213C147.243 56.1621 142.738 58.1318 138.058 58.1318C131.119 58.1318 124.805 53.7809 122.334 47.3108C121.411 44.8798 118.69 43.683 116.269 44.5931C113.848 45.5156 112.625 48.2333 113.549 50.6518C117.405 60.7373 127.251 67.5191 138.058 67.5191C145.358 67.5191 152.384 64.4399 157.326 59.0917C159.085 57.1843 158.973 54.2173 157.064 52.4595C155.154 50.7017 152.184 50.8139 150.425 52.7213Z" fill="white"/>
<path d="M138.058 15.1345C126.851 15.1345 116.881 22.2529 113.249 32.837C112.413 35.293 113.723 37.9608 116.169 38.8085C116.668 38.9831 117.193 39.0579 117.692 39.0579C119.651 39.0579 121.473 37.8362 122.147 35.8789C124.48 29.0846 130.87 24.5218 138.058 24.5218C143.411 24.5218 148.49 27.1024 151.66 31.4283C153.195 33.5227 156.14 33.984 158.224 32.4506C160.321 30.9172 160.782 27.9875 159.248 25.8931C154.318 19.1487 146.394 15.122 138.058 15.122V15.1345Z" fill="white"/>
<path d="M265.621 60.0142L246.764 41.1772L264.71 23.2502C266.544 21.4176 266.544 18.4381 264.71 16.6055C262.875 14.7729 259.893 14.7729 258.058 16.6055L236.794 37.8486C234.959 39.6812 234.959 42.6607 236.794 44.4933L258.982 66.659C259.905 67.5815 261.103 68.0303 262.301 68.0303C263.499 68.0303 264.71 67.569 265.621 66.659C267.455 64.8264 267.455 61.8468 265.621 60.0142Z" fill="white"/>
<path d="M130.296 9.39982H145.146C147.742 9.39982 149.851 7.29297 149.851 4.69991C149.851 2.10686 147.742 0 145.146 0H130.296C127.7 0 125.591 2.10686 125.591 4.69991C125.591 7.29297 127.7 9.39982 130.296 9.39982Z" fill="white"/>
<path d="M288.682 67.8308C286.299 67.8308 284.364 65.8985 284.364 63.5174V36.7142C284.364 34.333 286.299 32.4007 288.682 32.4007C291.066 32.4007 293 34.333 293 36.7142V63.5174C293 65.8985 291.066 67.8308 288.682 67.8308Z" fill="#FF0033"/>
<path d="M274.119 37.6242C273.008 37.6242 271.91 37.2004 271.062 36.3651C269.377 34.6821 269.377 31.9519 271.062 30.2689L285.55 15.7952C287.235 14.1122 289.968 14.1122 291.652 15.7952C293.337 17.4782 293.337 20.2084 291.652 21.8914L277.164 36.3651C276.315 37.2128 275.217 37.6242 274.106 37.6242H274.119Z" fill="#FF0033"/>
</g>
<defs>
<clipPath id="clip0_1_53">
<rect width="293" height="98" fill="white"/>
</clipPath>
</defs>
</svg>
